<?xml version="1.0" standalone="no"?>
<!DOCTYPE svg PUBLIC "-//W3C//DTD SVG 1.1//EN" "http://www.w3.org/Graphics/SVG/1.1/DTD/svg11.dtd" >
<svg xmlns="http://www.w3.org/2000/svg" xmlns:xlink="http://www.w3.org/1999/xlink" version="1.1">
<metadata>
Created by FontForge 20170731 at Thu Feb 21 06:01:12 2019
 By Aleksey,,,
Copyright (c) 2013 by Mariya V. Pigoulevskaya. All rights reserved.
</metadata>
<defs>
<font id="NeusaNextPro-Bold" horiz-adv-x="324" >
  <font-face 
    font-family="Neusa Next Pro"
    font-weight="700"
    font-stretch="normal"
    units-per-em="1000"
    panose-1="0 0 8 0 0 0 0 0 0 0"
    ascent="759"
    descent="-241"
    x-height="510"
    cap-height="710"
    bbox="-560 -261 1180 1002"
    underline-thickness="50"
    underline-position="-300"
    unicode-range="U+001D-2265"
  />
<missing-glyph horiz-adv-x="500" 
d="M93 770h317v-1000h-317v1000zM333 670v33h-165v-33h65v-37h-66v-33h166v33h-66v37h66zM267 504v70h-100v-104h166v34h-66zM200 540h33v-36h-33v36zM333 410v33h-166v-33h66v-37h-66v-33h100v70h66zM333 283v100h-33v-66h-133v-34h166zM333 148v113h-100v-56h34v23h33v-47
h-100v80h-33v-113h166zM333 -25v113h-166v-113h166zM200 55h100v-47h-100v47zM333 -81v33h-166v-33h70l-70 -47v-33h166v33h-102l70 47h32z" />
    <glyph glyph-name=".notdef" horiz-adv-x="500" 
d="M93 770h317v-1000h-317v1000zM333 670v33h-165v-33h65v-37h-66v-33h166v33h-66v37h66zM267 504v70h-100v-104h166v34h-66zM200 540h33v-36h-33v36zM333 410v33h-166v-33h66v-37h-66v-33h100v70h66zM333 283v100h-33v-66h-133v-34h166zM333 148v113h-100v-56h34v23h33v-47
h-100v80h-33v-113h166zM333 -25v113h-166v-113h166zM200 55h100v-47h-100v47zM333 -81v33h-166v-33h70l-70 -47v-33h166v33h-102l70 47h32z" />
    <glyph glyph-name=".null" horiz-adv-x="0" 
 />
    <glyph glyph-name="nonmarkingreturn" horiz-adv-x="333" 
 />
    <glyph glyph-name="null" horiz-adv-x="0" 
 />
    <glyph glyph-name="null" horiz-adv-x="0" 
 />
    <glyph glyph-name="space" unicode=" " horiz-adv-x="238" 
 />
    <glyph glyph-name="exclam" unicode="!" horiz-adv-x="282" 
d="M63 710h155v-250l-20 -237h-115l-20 235v252zM216 0h-150v146h150v-146z" />
    <glyph glyph-name="quotedbl" unicode="&#x22;" horiz-adv-x="451" 
d="M37 770h157l-24 -230h-110zM257 770h157l-24 -230h-110z" />
    <glyph glyph-name="numbersign" unicode="#" horiz-adv-x="699" 
d="M672 553v-135h-94l-26 -125h65v-135h-92l-32 -158h-146l32 158h-133l-32 -158h-145l32 158h-74v135h101l26 125h-72v135h99l32 157h146l-32 -157h132l32 157h146l-32 -157h67zM274 293h132l26 125h-133z" />
    <glyph glyph-name="dollar" unicode="$" horiz-adv-x="624" 
d="M588 210q0 -84 -53 -142.5t-147 -76.5v-91h-150v92q-98 18 -153 79t-55 149v25h155v-35q0 -38 39 -62.5t95 -24.5q47 0 80 21.5t33 58.5q0 20 -9.5 34t-32 25t-40.5 17.5t-55 16.5t-56 16q-42 12 -72.5 26t-60.5 36.5t-45.5 57t-15.5 80.5q0 81 49.5 137t143.5 71v90h150
v-92q92 -17 140 -71.5t48 -137.5v-33h-155v37q0 32 -33 52t-82 20q-47 0 -76 -18.5t-29 -50.5q0 -16 10 -27.5t31 -20.5t41.5 -15t54.5 -15.5t57 -17.5q88 -28 140.5 -76t52.5 -134z" />
    <glyph glyph-name="percent" unicode="%" horiz-adv-x="761" 
d="M303 397q-44 -32 -113 -32t-113 32t-44 82v132q0 50 43.5 82t112.5 32q70 0 114 -32t44 -82v-132q0 -50 -44 -82zM214 0h-119l454 710h119zM150 467q18 -11 40 -11t40.5 11t15.5 27v103q0 15 -15.5 25.5t-39.5 10.5t-40 -10.5t-16 -25.5v-103q0 -16 15 -27zM684 17
q-44 -32 -113 -32t-113 32t-44 82v132q0 50 43.5 82t112.5 32q70 0 114 -32t44 -82v-132q0 -50 -44 -82zM531 87q17 -11 39.5 -11t40.5 11t16 27v103q0 15 -15.5 25.5t-39.5 10.5t-40 -10.5t-16 -25.5v-103q0 -16 15 -27z" />
    <glyph glyph-name="ampersand" unicode="&#x26;" horiz-adv-x="658" 
d="M578 429h69v-132h-69v-110q0 -80 -54 -133q-54 -54 -132 -54h-151q-79 0 -132 52q-55 52 -55 130v67q0 64 41 114q-41 47 -41 113v52q0 78 55 130q53 52 132 52h224v-135h-225q-14 0 -22.5 -11t-8.5 -29v-66q0 -18 8.5 -29t22.5 -11h183v81h155v-81zM423 175v122h-183
q-31 0 -31 -41v-81q0 -18 9 -29t23 -11h151q14 0 22.5 11t8.5 29z" />
    <glyph glyph-name="quotesingle" unicode="'" horiz-adv-x="231" 
d="M37 770h157l-24 -230h-110z" />
    <glyph glyph-name="parenleft" unicode="(" horiz-adv-x="320" 
d="M300 -30v-135q-112 0 -176 59.5t-64 161.5v493q0 103 63.5 162t176.5 59v-135q-90 0 -90 -87v-491q0 -87 90 -87z" />
    <glyph glyph-name="parenright" unicode=")" horiz-adv-x="320" 
d="M19 -165v135q90 0 90 87v491q0 87 -90 87v135q113 0 176.5 -59t63.5 -162v-493q0 -103 -63.5 -162t-176.5 -59z" />
    <glyph glyph-name="asterisk" unicode="*" horiz-adv-x="368" 
d="M309 721l36 -114l-96 -13l71 -68l-94 -70l-42 91l-42 -91l-94 70l71 68l-96 13l36 114l85 -48l-18 97h116l-18 -97z" />
    <glyph glyph-name="plus" unicode="+" horiz-adv-x="516" 
d="M333 435h141v-140h-141v-162h-148v162h-143v140h143v163h148v-163z" />
    <glyph glyph-name="comma" unicode="," horiz-adv-x="259" 
d="M54 146h150v-146l-69 -163h-64l41 163h-58v146z" />
    <glyph glyph-name="hyphen" unicode="-" horiz-adv-x="334" 
d="M295 210h-256v130h256v-130z" />
    <glyph glyph-name="period" unicode="." horiz-adv-x="259" 
d="M204 0h-150v146h150v-146z" />
    <glyph glyph-name="slash" unicode="/" horiz-adv-x="400" 
d="M24 -50l203 795h149l-203 -795h-149z" />
    <glyph glyph-name="zero" unicode="0" horiz-adv-x="634" 
d="M318 -15q-123 0 -197 62q-75 61 -75 165v286q0 103 74 165t197 62q121 0 197 -62q74 -62 74 -165v-286q0 -103 -74 -165t-196 -62zM232 151q31 -26 85 -26t86 26q30 25 30 68v272q0 43 -30.5 68.5t-84.5 25.5q-56 0 -86.5 -25.5t-30.5 -68.5v-272q0 -43 31 -68z" />
    <glyph glyph-name="one" unicode="1" horiz-adv-x="457" 
d="M313 710v-570h126v-140h-406v140h125v430h-125v140h280z" />
    <glyph glyph-name="two" unicode="2" horiz-adv-x="587" 
d="M552 522v-29q2 -127 -202 -244q-119 -70 -133 -109h328v-140h-500v73q0 47 20 90.5t58 80.5t70.5 61.5t79.5 54.5q124 82 124 139v21q0 31 -25 48t-70 17t-69.5 -22.5t-24.5 -64.5v-29h-155v22q0 106 70 170q68 64 182 64q111 0 179 -56t68 -147z" />
    <glyph glyph-name="three" unicode="3" horiz-adv-x="607" 
d="M561 518v-42q0 -68 -49 -117q49 -49 49 -117v-50q0 -95 -71 -151t-186 -56t-186 59q-72 58 -72 155v29h155v-36q0 -31 27.5 -49t75.5 -18q102 0 102 60v57q0 50 -83 50h-122v134h122q83 0 83 50v49q0 60 -101 60q-48 0 -76 -18t-28 -49v-39h-155v32q0 97 72 155
q71 59 186 59t186 -56t71 -151z" />
    <glyph glyph-name="four" unicode="4" horiz-adv-x="575" 
d="M370 289v169h155v-458h-155v149h-329v140l178 421h170l-178 -421h159z" />
    <glyph glyph-name="five" unicode="5" horiz-adv-x="580" 
d="M220 451h115q90 0 144.5 -55t54.5 -145v-59q0 -95 -67 -150q-67 -57 -177 -57t-177 57q-67 55 -67 150v52h155v-63q0 -60 89 -60t89 60v81q0 24 -14.5 38.5t-36.5 14.5h-263v395h442v-140h-287v-119z" />
    <glyph glyph-name="six" unicode="6" horiz-adv-x="607" 
d="M326 460q104 0 170 -51q66 -53 66 -141v-76q0 -93 -72 -150t-186 -57q-115 0 -186 61q-72 62 -72 160v290q0 106 73 167q73 62 184 62q110 0 184 -59q72 -60 72 -161h-154q0 39 -27.5 61.5t-73.5 22.5q-48 0 -75.5 -24t-27.5 -68v-71q58 34 125 34zM407 195v77
q0 28 -28 44t-74 16q-48 0 -76 -18.5t-28 -48.5v-70q0 -35 28 -54.5t76 -19.5q46 0 74 19.5t28 54.5z" />
    <glyph glyph-name="seven" unicode="7" horiz-adv-x="518" 
d="M19 570v140h480v-140l-285 -570h-169l284 570h-310z" />
    <glyph glyph-name="eight" unicode="8" horiz-adv-x="626" 
d="M515 360q65 -50 65 -129v-59q0 -84 -73 -135q-73 -52 -193 -52t-194 51t-74 136v59q0 80 64 129q-58 46 -58 121v50q0 89 72 141q73 53 189 53t189 -53q71 -53 71 -141v-50q0 -75 -58 -121zM207 528v-51q0 -28 28 -44t78 -16t77.5 16t27.5 44v51q0 31 -27.5 49t-76.5 18
q-50 0 -78.5 -18t-28.5 -49zM425 175v59q0 31 -29.5 49t-81.5 18q-53 0 -83 -18t-30 -49v-59q0 -28 29.5 -44t82.5 -16t82.5 16t29.5 44z" />
    <glyph glyph-name="nine" unicode="9" horiz-adv-x="607" 
d="M304 725q113 0 185 -60q72 -61 72 -160v-291q0 -105 -72 -167q-74 -62 -184 -62q-111 0 -184 60t-73 160h154q0 -40 27.5 -62t74.5 -22q48 0 75 24t27 68v64q-58 -34 -124 -34q-105 0 -170 52q-66 53 -66 141v82q0 93 72 150t186 57zM303 372q48 0 75.5 18.5t27.5 48.5
v77q0 35 -27.5 54t-75.5 19t-75 -19t-27 -54v-84q0 -28 27.5 -44t74.5 -16z" />
    <glyph glyph-name="colon" unicode=":" horiz-adv-x="279" 
d="M214 364h-150v146h150v-146zM214 0h-150v146h150v-146z" />
    <glyph glyph-name="semicolon" unicode=";" horiz-adv-x="279" 
d="M214 364h-150v146h150v-146zM64 146h150v-146l-69 -163h-64l41 163h-58v146z" />
    <glyph glyph-name="less" unicode="&#x3c;" horiz-adv-x="498" 
d="M374 594l82 -107l-170 -123l169 -121l-81 -107l-332 229z" />
    <glyph glyph-name="equal" unicode="=" horiz-adv-x="516" 
d="M467 415h-429v140h429v-140zM467 175h-429v140h429v-140z" />
    <glyph glyph-name="greater" unicode="&#x3e;" horiz-adv-x="498" 
d="M42 487l82 107l332 -229l-332 -229l-81 107l169 121z" />
    <glyph glyph-name="question" unicode="?" horiz-adv-x="632" 
d="M378 223h-150v43q0 45 15 79t37.5 51.5t48.5 33t48.5 25t37.5 26.5t15 39q0 32 -29 48.5t-80 16.5q-65 0 -99 -26t-34 -74v-28h-150v30q0 107 75 173q74 65 201 65q130 0 200.5 -55.5t70.5 -152.5q0 -43 -12 -75.5t-34.5 -53.5t-41 -32.5t-45.5 -23.5q-74 -36 -74 -91
v-18zM378 0h-150v146h150v-146z" />
    <glyph glyph-name="at" unicode="@" horiz-adv-x="847" 
d="M428 628q170 0 273 -72q104 -74 104 -197v-154q0 -89 -49 -138t-141 -49q-70 0 -116 49q-45 -49 -107 -49q-72 0 -111.5 47t-39.5 135v80q0 88 39.5 135t111.5 47q55 0 95 -37l14 22h93v-280q0 -24 6 -32t25 -8q56 0 56 40v208q0 141 -255 141q-122 0 -190.5 -54
t-68.5 -150v-148q0 -94 66.5 -147.5t187.5 -53.5q58 0 102 10l13 -109q-61 -13 -120 -13q-174 0 -275 87q-100 87 -100 235v130q0 152 106 239q107 86 281 86zM418 153q39 0 39 27v120q0 27 -39 27q-40 0 -40 -43v-88q0 -43 40 -43z" />
    <glyph glyph-name="A" unicode="A" horiz-adv-x="645" 
d="M631 0h-153l-37 125h-238l-37 -125h-152l198 710h221zM243 265h158l-79 283z" />
    <glyph glyph-name="B" unicode="B" horiz-adv-x="614" 
d="M511 372q71 -53 71 -134v-41q0 -85 -59 -141q-61 -56 -152 -56h-321v710h303q91 0 152 -50q60 -50 60 -127v-51q0 -67 -54 -110zM357 575h-152v-148h151q22 0 38 15t16 38v50q0 19 -16 32t-37 13zM427 190v50q0 23 -14.5 38t-38.5 15h-169v-158h168q24 0 39 15.5t15 39.5
z" />
    <glyph glyph-name="C" unicode="C" horiz-adv-x="656" 
d="M329 -15q-133 0 -210 62q-78 61 -78 165v286q0 104 77 166q76 61 210 61q132 0 209 -61t77 -166v-64h-161v57q0 45 -32 69.5t-92 24.5q-63 0 -98 -25t-35 -69v-272q0 -45 34.5 -69.5t97.5 -24.5q60 0 92.5 25t32.5 69v57h161v-64q0 -104 -76 -165q-77 -62 -209 -62z" />
    <glyph glyph-name="D" unicode="D" horiz-adv-x="649" 
d="M50 710h279q127 0 204 -62q75 -62 75 -165v-256q0 -103 -75 -165q-77 -62 -203 -62h-280v710zM453 234v242q0 43 -30 68.5t-83 25.5h-135v-430h134q53 0 83.5 25.5t30.5 68.5z" />
    <glyph glyph-name="E" unicode="E" horiz-adv-x="535" 
d="M508 710v-140h-303v-155h263v-140h-263v-135h303v-140h-458v710h458z" />
    <glyph glyph-name="F" unicode="F" horiz-adv-x="528" 
d="M508 710v-140h-303v-180h273v-140h-273v-250h-155v710h458z" />
    <glyph glyph-name="G" unicode="G" horiz-adv-x="656" 
d="M614 498v-44h-155v37q0 43 -35.5 68.5t-94.5 25.5q-61 0 -97 -25.5t-36 -68.5v-272q0 -43 36 -68.5t96 -25.5t95.5 25.5t35.5 68.5v26h-134v140h289v-173q0 -104 -76 -165q-77 -62 -209 -62q-133 0 -210 62q-78 61 -78 165v286q0 104 77 166q76 61 210 61q132 0 209 -61
t77 -166z" />
    <glyph glyph-name="H" unicode="H" horiz-adv-x="660" 
d="M455 415v295h155v-710h-155v275h-250v-275h-155v710h155v-295h250z" />
    <glyph glyph-name="I" unicode="I" horiz-adv-x="255" 
d="M205 0h-155v710h155v-710z" />
    <glyph glyph-name="J" unicode="J" horiz-adv-x="382" 
d="M75 0h-57v140h66q93 0 93 117v453h155v-453q0 -113 -69 -185q-71 -72 -188 -72z" />
    <glyph glyph-name="K" unicode="K" horiz-adv-x="662" 
d="M379 364l265 -364h-191l-248 336v-336h-155v710h155v-317l239 317h194z" />
    <glyph glyph-name="L" unicode="L" horiz-adv-x="527" 
d="M205 710v-570h310v-140h-465v710h155z" />
    <glyph glyph-name="M" unicode="M" horiz-adv-x="763" 
d="M519 710h194v-710h-140v466l-136 -466h-111l-136 464v-464h-140v710h194l138 -419z" />
    <glyph glyph-name="N" unicode="N" horiz-adv-x="631" 
d="M438 282v428h144v-710h-144l-244 426v-426h-144v710h144z" />
    <glyph glyph-name="O" unicode="O" horiz-adv-x="662" 
d="M544 47q-77 -62 -212 -62q-134 0 -213 62q-78 61 -78 165v286q0 105 77.5 166t212.5 61t212.5 -61t77.5 -166v-286q0 -103 -77 -165zM331 125q135 0 135 94v272q0 94 -134 94q-136 0 -136 -94v-272q0 -94 135 -94z" />
    <glyph glyph-name="P" unicode="P" horiz-adv-x="609" 
d="M50 710h299q104 0 169 -56q64 -57 64 -151v-66q0 -95 -63 -150q-65 -57 -169 -57h-145v-230h-155v710zM427 430v80q0 28 -18 44t-49 16h-155v-200h154q31 0 49.5 16t18.5 44z" />
    <glyph glyph-name="Q" unicode="Q" horiz-adv-x="669" 
d="M533 38l120 -69l-72 -125l-245 141h-4q-134 0 -213 62q-78 61 -78 165v286q0 105 77.5 166t212.5 61t212.5 -61t77.5 -166v-286q0 -113 -88 -174zM196 491v-272q0 -94 135 -94t135 94v272q0 94 -134 94q-136 0 -136 -94z" />
    <glyph glyph-name="R" unicode="R" horiz-adv-x="620" 
d="M591 0h-161l-100 256h-125v-256h-155v710h299q104 0 169 -56q64 -55 64 -149v-44q0 -120 -100 -174zM360 570h-155v-174h154q32 0 50 15t18 43v58q0 27 -18 42.5t-49 15.5z" />
    <glyph glyph-name="S" unicode="S" horiz-adv-x="624" 
d="M318 -15q-131 0 -208 65t-77 170v25h155v-35q0 -38 39 -62.5t95 -24.5q47 0 80 21.5t33 58.5q0 20 -9.5 34t-32 25t-40.5 17.5t-55 16.5t-56 16q-42 12 -72.5 26t-60.5 36.5t-45.5 57t-15.5 80.5q0 96 68 154.5t195 58.5q129 0 198.5 -58t69.5 -158v-33h-155v37
q0 32 -33 52t-82 20q-47 0 -76 -18.5t-29 -50.5q0 -16 10 -27.5t31 -20.5t41.5 -15t54.5 -15.5t57 -17.5q88 -28 140.5 -76t52.5 -134q0 -99 -72 -162t-201 -63z" />
    <glyph glyph-name="T" unicode="T" horiz-adv-x="551" 
d="M8 710h535v-140h-189v-570h-155v570h-191v140z" />
    <glyph glyph-name="U" unicode="U" horiz-adv-x="644" 
d="M323 -15q-129 0 -206 62q-76 61 -76 165v498h155v-491q0 -44 33 -69t93 -25t92.5 25t32.5 69v491h155v-498q0 -104 -75 -165q-76 -62 -204 -62z" />
    <glyph glyph-name="V" unicode="V" horiz-adv-x="627" 
d="M314 188l143 523h156l-188 -710h-223l-188 710h158z" />
    <glyph glyph-name="W" unicode="W" horiz-adv-x="946" 
d="M661 170l109 541h162l-164 -710h-203l-92 410l-92 -410h-204l-163 710h163l109 -539l115 539h138z" />
    <glyph glyph-name="X" unicode="X" horiz-adv-x="645" 
d="M458 710h174l-221 -361l211 -349h-180l-127 211l-128 -211h-170l208 360l-211 350h180l130 -215z" />
    <glyph glyph-name="Y" unicode="Y" horiz-adv-x="629" 
d="M448 710h167l-223 -472v-238h-155v236l-223 474h169l133 -291z" />
    <glyph glyph-name="Z" unicode="Z" horiz-adv-x="553" 
d="M529 562l-325 -422h331v-140h-516v148l325 422h-307v140h492v-148z" />
    <glyph glyph-name="bracketleft" unicode="[" horiz-adv-x="320" 
d="M302 770v-135h-92v-665h92v-135h-242v935h242z" />
    <glyph glyph-name="backslash" unicode="\" horiz-adv-x="400" 
d="M376 -50h-149l-203 795h149z" />
    <glyph glyph-name="bracketright" unicode="]" horiz-adv-x="320" 
d="M17 770h243v-935h-243v135h93v665h-93v135z" />
    <glyph glyph-name="asciicircum" unicode="^" horiz-adv-x="398" 
d="M199 725l161 -200h-115l-46 58l-46 -58h-114z" />
    <glyph glyph-name="underscore" unicode="_" horiz-adv-x="445" 
d="M423 -137h-401v117h401v-117z" />
    <glyph glyph-name="grave" unicode="`" horiz-adv-x="326" 
d="M154 555l-130 179h170l102 -179h-142z" />
    <glyph glyph-name="a" unicode="a" horiz-adv-x="557" 
d="M382 476l24 34h99v-510h-99l-24 34q-55 -49 -147 -49q-199 0 -199 216v108q0 216 199 216q92 0 147 -49zM208 143q22 -22 61 -22t63 21q23 21 23 60v106q0 38 -23 59.5t-63 21.5q-39 0 -61 -21.5t-22 -62.5v-100q0 -41 22 -62z" />
    <glyph glyph-name="b" unicode="b" horiz-adv-x="557" 
d="M321 525q200 0 200 -216v-108q0 -216 -200 -216q-91 0 -145 48l-24 -33h-99v770h150v-274q50 29 118 29zM371 205v100q0 41 -22 62.5t-61 21.5q-40 0 -62.5 -21t-22.5 -60v-106q0 -38 23 -59.5t62 -21.5t61 21.5t22 62.5z" />
    <glyph glyph-name="c" unicode="c" horiz-adv-x="523" 
d="M265 -15q-107 0 -168 59.5t-61 161.5v98q0 102 61 161.5t167 59.5q101 0 162 -58t61 -154v-15h-151v19q0 34 -19.5 53.5t-51.5 19.5q-79 0 -79 -87v-96q0 -87 79 -87q32 0 51.5 19.5t19.5 53.5v19h151v-15q0 -95 -60 -154q-61 -58 -162 -58z" />
    <glyph glyph-name="d" unicode="d" horiz-adv-x="557" 
d="M355 496v274h150v-770h-99l-24 34q-52 -49 -145 -49q-201 0 -201 216v108q0 216 201 216q68 0 118 -29zM208 143q22 -22 61 -22t63 21q23 21 23 60v106q0 38 -23 59.5t-63 21.5q-39 0 -61 -21.5t-22 -62.5v-100q0 -41 22 -62z" />
    <glyph glyph-name="e" unicode="e" horiz-adv-x="526" 
d="M266 525q99 0 161 -55q63 -55 63 -140v-119h-304v-9q0 -47 22 -72t60 -25q27 0 49 13.5t22 33.5v10h150q0 -81 -61.5 -129t-161.5 -48q-107 0 -168.5 60.5t-61.5 163.5v95q0 102 61.5 161.5t168.5 59.5zM186 318h151v12q0 75 -70 75q-78 0 -81 -87z" />
    <glyph glyph-name="f" unicode="f" horiz-adv-x="355" 
d="M350 635h-52q-78 0 -78 -96v-29h124v-135h-124v-375h-150v375h-50v135h50v35q0 97 57 162q57 63 152 63h71v-135z" />
    <glyph glyph-name="g" unicode="g" horiz-adv-x="557" 
d="M382 476l24 34h99v-558q0 -89 -60.5 -143t-171.5 -54q-110 0 -169 53q-59 54 -59 132h150q0 -23 21.5 -36.5t54.5 -13.5q37 0 60.5 16.5t23.5 47.5v60q-50 -29 -120 -29q-199 0 -199 216v108q0 216 199 216q92 0 147 -49zM208 143q22 -22 61 -22t63 21q23 21 23 60v106
q0 38 -23 59.5t-63 21.5q-39 0 -61 -21.5t-22 -62.5v-100q0 -41 22 -62z" />
    <glyph glyph-name="h" unicode="h" horiz-adv-x="562" 
d="M323 525q92 0 142 -57t50 -172v-296h-150v298q0 43 -22.5 67t-57.5 24q-34 0 -58 -22.5t-24 -59.5v-307h-150v770h150v-276q52 31 120 31z" />
    <glyph glyph-name="i" unicode="i" horiz-adv-x="259" 
d="M204 564h-150v146h150v-146zM204 0h-150v510h150v-510z" />
    <glyph glyph-name="j" unicode="j" horiz-adv-x="274" 
d="M219 564h-150v146h150v-146zM34 -230h-65v135h22q48 0 63 21t15 73v511h150v-550q0 -100 -53 -145q-52 -45 -132 -45z" />
    <glyph glyph-name="k" unicode="k" horiz-adv-x="554" 
d="M361 269l191 -269h-177l-171 239v-239h-150v770h150v-472l164 212h180z" />
    <glyph glyph-name="l" unicode="l" horiz-adv-x="259" 
d="M54 0v770h150v-770h-150z" />
    <glyph glyph-name="m" unicode="m" horiz-adv-x="814" 
d="M579 525q187 0 187 -229v-296h-150v305q2 52 -31.5 74t-67.5 0t-33 -76v-303h-150v305q0 39 -18.5 61.5t-46.5 22.5t-47 -22t-19 -59v-308h-150v510h96l25 -33q51 48 123 48q99 0 145 -61q55 61 137 61z" />
    <glyph glyph-name="n" unicode="n" horiz-adv-x="562" 
d="M322 525q93 0 143 -57t50 -172v-296h-150v299q0 42 -22.5 66t-57.5 24q-34 0 -58 -22t-24 -59v-308h-150v510h96l27 -36q57 51 146 51z" />
    <glyph glyph-name="o" unicode="o" horiz-adv-x="538" 
d="M440 45q-62 -60 -171 -60t-171 60q-62 59 -62 161v98q0 102 62 161.5t170 59.5q110 0 172 -59t62 -162v-98q0 -102 -62 -161zM268 120q84 0 84 87v96q0 87 -83 87t-83 -87v-96q0 -87 82 -87z" />
    <glyph glyph-name="p" unicode="p" horiz-adv-x="557" 
d="M321 525q200 0 200 -216v-108q0 -216 -200 -216q-68 0 -118 29v-244h-150v740h99l24 -33q54 48 145 48zM371 205v100q0 41 -22 62.5t-61 21.5q-40 0 -62.5 -21t-22.5 -60v-106q0 -38 23 -59.5t62 -21.5t61 21.5t22 62.5z" />
    <glyph glyph-name="q" unicode="q" horiz-adv-x="557" 
d="M382 476l24 34h99v-740h-150v244q-50 -29 -118 -29q-201 0 -201 216v108q0 216 201 216q93 0 145 -49zM208 143q22 -22 61 -22t63 21q23 21 23 60v106q0 38 -23 59.5t-63 21.5q-39 0 -61 -21.5t-22 -62.5v-100q0 -41 22 -62z" />
    <glyph glyph-name="r" unicode="r" horiz-adv-x="376" 
d="M329 521q19 0 24 -1v-130q-32 9 -52 9q-44 0 -71 -26.5t-27 -75.5v-297h-150v510h99l29 -41q61 52 148 52z" />
    <glyph glyph-name="s" unicode="s" horiz-adv-x="473" 
d="M238 -15q-96 0 -154 49q-59 48 -59 124v12h149v-12q0 -21 19.5 -33t50.5 -12q27 0 43.5 9t16.5 25q0 30 -70 44q-93 22 -124 38q-77 40 -78 123q0 77 58 125q57 48 148 48q90 0 148 -47q57 -48 57 -121v-10h-148v10q0 18 -16.5 29t-41.5 11q-26 0 -41.5 -10t-15.5 -25
q0 -16 24.5 -26t75 -22t77.5 -21q43 -16 69.5 -51t26.5 -86q0 -82 -62 -126q-63 -45 -153 -45z" />
    <glyph glyph-name="t" unicode="t" horiz-adv-x="366" 
d="M297 135h49v-135h-84q-190 0 -190 203v172h-68v135h68v143h150v-143h117v-135h-117v-145q0 -95 75 -95z" />
    <glyph glyph-name="u" unicode="u" horiz-adv-x="547" 
d="M344 202v308h150v-510h-95l-26 34q-52 -49 -135 -49q-91 0 -140.5 57t-49.5 172v296h150v-299q0 -44 19.5 -67t53.5 -23q31 0 52 22t21 59z" />
    <glyph glyph-name="v" unicode="v" horiz-adv-x="495" 
d="M252 159l81 351h155l-142 -510h-197l-142 510h155z" />
    <glyph glyph-name="w" unicode="w" horiz-adv-x="701" 
d="M483 153l59 357h152l-119 -510h-153l-71 224l-71 -224h-154l-119 510h152l60 -357l73 357h117z" />
    <glyph glyph-name="x" unicode="x" horiz-adv-x="519" 
d="M347 510h165l-171 -252l168 -258h-171l-85 132l-83 -132h-160l161 257l-164 253h170l84 -129z" />
    <glyph glyph-name="y" unicode="y" horiz-adv-x="548" 
d="M345 202v308h150v-558q0 -89 -58.5 -143t-165.5 -54t-165 53q-57 54 -57 132h150q0 -23 19.5 -36.5t49.5 -13.5q34 0 55.5 16.5t21.5 47.5v58q-47 -27 -106 -27q-91 0 -140.5 57t-49.5 172v296h150v-299q0 -44 19.5 -67t53.5 -23q31 0 52 22t21 59z" />
    <glyph glyph-name="z" unicode="z" horiz-adv-x="473" 
d="M41 510h407v-110l-218 -265h218v-135h-423v109l219 266h-203v135z" />
    <glyph glyph-name="braceleft" unicode="{" horiz-adv-x="333" 
d="M230 595v-159q0 -88 -58 -133q58 -45 58 -133v-160q0 -40 38 -40h55v-135h-61q-83 0 -132.5 50.5t-49.5 136.5v160q0 24 -12.5 38.5t-30.5 14.5h-22v136h22q18 0 30.5 14.5t12.5 38.5v159q0 86 49.5 136.5t132.5 50.5h61v-135h-55q-38 0 -38 -40z" />
    <glyph glyph-name="bar" unicode="|" horiz-adv-x="252" 
d="M56 -160v970h140v-970h-140z" />
    <glyph glyph-name="braceright" unicode="}" horiz-adv-x="333" 
d="M296 371h22v-136h-22q-19 0 -31 -14t-12 -39v-160q0 -86 -49.5 -136.5t-132.5 -50.5h-62v135h56q38 0 38 40v160q0 88 58 133q-58 45 -58 133v159q0 40 -38 40h-56v135h62q83 0 132.5 -50.5t49.5 -136.5v-159q0 -25 12 -39t31 -14z" />
    <glyph glyph-name="asciitilde" unicode="~" horiz-adv-x="524" 
d="M173 459q31 0 91 -23q36 -16 54 -16q34 0 34 39h130q0 -175 -135 -175q-38 0 -95 24q-36 14 -46 14q-34 0 -34 -43h-130q0 180 131 180z" />
    <glyph glyph-name="uni00A0" unicode="&#xa0;" horiz-adv-x="238" 
 />
    <glyph glyph-name="exclamdown" unicode="&#xa1;" horiz-adv-x="282" 
d="M66 510h150v-146h-150v146zM219 -200h-155v250l20 237h115l20 -235v-252z" />
    <glyph glyph-name="cent" unicode="&#xa2;" horiz-adv-x="520" 
d="M483 413v-15h-151v19q0 34 -19.5 53.5t-51.5 19.5q-79 0 -79 -87v-96q0 -87 79 -87q32 0 51.5 19.5t19.5 53.5v19h151v-15q0 -75 -39 -128.5t-108 -73.5v-95h-150v94q-73 19 -113.5 74.5t-40.5 137.5v98q0 82 40.5 137.5t113.5 74.5v94h150v-95q69 -20 108 -73.5
t39 -128.5z" />
    <glyph glyph-name="sterling" unicode="&#xa3;" horiz-adv-x="671" 
d="M631 498v-64h-162v57q0 45 -25 69.5t-72 24.5q-51 0 -78 -24.5t-27 -69.5v-101h199v-140h-199v-110h351v-140h-351v-1h-155v1h-77v140h77v110h-77v140h77v108q0 103 71 165t188 62q118 0 189 -62t71 -165z" />
    <glyph glyph-name="currency" unicode="&#xa4;" horiz-adv-x="527" 
d="M465 377v-56q0 -51 -22 -89l58 -69l-99 -75l-58 67q-39 -11 -80 -11q-45 0 -81 12l-58 -68l-99 75l59 70q-22 38 -22 88v56q0 48 20 86l-57 68l98 79l58 -68q36 12 81 12t83 -12l57 68l98 -79l-57 -67q21 -38 21 -87zM263 257q70 0 70 60v64q0 60 -69 60q-70 0 -70 -60
v-64q0 -60 69 -60z" />
    <glyph glyph-name="yen" unicode="&#xa5;" horiz-adv-x="629" 
d="M448 710h167l-180 -380h115v-95h-158v-37h158v-95h-158v-103h-155v103h-155v95h155v37h-155v95h111l-179 380h169l133 -291z" />
    <glyph glyph-name="brokenbar" unicode="&#xa6;" horiz-adv-x="252" 
d="M196 374h-140v436h140v-436zM196 -160h-140v436h140v-436z" />
    <glyph glyph-name="section" unicode="&#xa7;" horiz-adv-x="580" 
d="M513 379q35 -43 35 -106q0 -64 -34 -110q30 -39 30 -100q0 -91 -68 -147q-67 -55 -184 -55q-121 0 -190 60.5t-69 161.5v6h153v-16q0 -34 30 -54t83 -20q32 -2 60.5 12t30.5 44q0 18 -12.5 31.5t-37.5 23t-49 16t-60.5 15t-59.5 15.5q-54 16 -87 55.5t-33 98.5
q0 68 39 119q-35 43 -35 103q0 88 63.5 140.5t179.5 52.5t178 -54t62 -148v-15h-153v19q0 25 -25 41.5t-66 16.5q-35 0 -60 -12t-25 -34q0 -39 120 -68q44 -11 69 -19t59 -27.5t56 -45.5zM206 325q-5 -36 79 -56q12 -4 49.5 -13.5t52.5 -14.5q11 24 1 45.5t-33 32.5
q-8 5 -59 21q-8 2 -35 9t-35 9q-20 -15 -20 -33z" />
    <glyph glyph-name="dieresis" unicode="&#xa8;" horiz-adv-x="397" 
d="M160 564h-136v133h136v-133zM367 564h-136v133h136v-133z" />
    <glyph glyph-name="copyright" unicode="&#xa9;" horiz-adv-x="730" 
d="M365 -15q-150 0 -237 69t-87 178v246q0 109 87 178q86 69 236 69q148 0 237 -69q87 -69 87 -178v-246q0 -109 -87 -178t-236 -69zM365 37q122 0 192.5 53.5t70.5 141.5v246q0 88 -71 141.5t-193 53.5t-192.5 -53.5t-70.5 -141.5v-246q0 -88 70.5 -141.5t193.5 -53.5z
M538 125q-61 -55 -173 -55t-173 58q-62 57 -62 149v156q0 94 62 150.5t172 56.5t172 -54.5t62 -145.5v-51h-155v58q0 28 -17 40.5t-61 12.5q-80 0 -80 -60v-170q0 -60 79 -60q44 0 61.5 12.5t17.5 40.5v58h155v-51q0 -90 -60 -145z" />
    <glyph glyph-name="ordfeminine" unicode="&#xaa;" horiz-adv-x="321" 
d="M220 700l14 16h60v-301h-60l-14 17q-31 -25 -80 -25q-109 0 -109 118v81q0 119 109 119q49 0 80 -25zM162 490q18 0 29 10.5t11 28.5v74q0 18 -11 28.5t-29 10.5q-17 0 -28 -10t-11 -27v-77q0 -18 10.5 -28t28.5 -10z" />
    <glyph glyph-name="guillemotleft" unicode="&#xab;" horiz-adv-x="595" 
d="M290 11l-231 168v150l231 168v-150l-129 -92l129 -94v-150zM300 329l231 168v-150l-129 -92l129 -94v-150l-231 168v150z" />
    <glyph glyph-name="logicalnot" unicode="&#xac;" horiz-adv-x="516" 
d="M42 435h432v-302h-148v162h-284v140z" />
    <glyph glyph-name="uni00AD" unicode="&#xad;" horiz-adv-x="334" 
d="M295 210h-256v130h256v-130z" />
    <glyph glyph-name="registered" unicode="&#xae;" horiz-adv-x="526" 
d="M262 725q95 0 159 -50q63 -51 63 -134v-108q0 -82 -63 -133t-158 -51q-94 0 -157 51q-64 51 -64 133v108q0 82 63 133t157 51zM424 433v108q0 59 -45.5 95.5t-116.5 36.5q-70 0 -115 -36.5t-45 -95.5v-108q0 -59 45.5 -95.5t115.5 -36.5t115.5 36.5t45.5 95.5zM387 548
v-9q0 -45 -36 -64l39 -111h-75l-35 96h-54v-96h-72v263h127q49 0 77.5 -20.5t28.5 -58.5zM286 562h-60v-36h59q29 0 29 12v11q0 13 -28 13z" />
    <glyph glyph-name="overscore" unicode="&#xaf;" horiz-adv-x="403" 
d="M24 698h349v-122h-349v122z" />
    <glyph glyph-name="degree" unicode="&#xb0;" horiz-adv-x="369" 
d="M74 686q40 39 110 39t111 -39t41 -106t-41 -106t-111 -39t-110 39q-41 39 -41 106t41 106zM184 625q-18 3 -26 -21t0 -48t26 -21q31 0 31 45t-31 45z" />
    <glyph glyph-name="plusminus" unicode="&#xb1;" horiz-adv-x="516" 
d="M333 648v-163h141v-140h-141v-162h-148v162h-143v140h143v163h148zM474 0h-432v140h432v-140z" />
    <glyph glyph-name="uni00B2" unicode="&#xb2;" 
d="M292 674v-16q0 -31 -24.5 -61t-57.5 -48q-82 -44 -82 -56h160v-79h-256v79q0 25 25 51t61 45q86 46 86 74v10q0 25 -38 25q-40 0 -40 -34v-15h-88v11q0 53 35.5 85.5t93.5 32.5q55 0 90 -28.5t35 -75.5z" />
    <glyph glyph-name="uni00B3" unicode="&#xb3;" 
d="M296 671v-21q0 -31 -23 -57q22 -23 22 -56v-25q0 -48 -36.5 -77t-94.5 -29q-60 0 -97 30.5t-37 79.5v12h88v-17q0 -26 47 -26q42 0 42 23v30q0 17 -36 17h-61v77h61q37 0 37 18v25q0 23 -42 23q-48 0 -48 -25v-20h-88v15q0 49 37 79.5t97 30.5q58 0 95 -29.5t37 -77.5z
" />
    <glyph glyph-name="acute" unicode="&#xb4;" horiz-adv-x="326" 
d="M127 734h169l-130 -179h-142z" />
    <glyph glyph-name="mu" unicode="&#xb5;" horiz-adv-x="554" 
d="M532 123q10 0 20 3v-136q-27 -5 -53 -5q-81 0 -120 55q-54 -55 -141 -55q-20 0 -40 3v-218h-150v740h150v-299q0 -44 19.5 -67t53.5 -23q31 0 52 22t21 59v308h150v-312q0 -41 8.5 -58t29.5 -17z" />
    <glyph glyph-name="paragraph" unicode="&#xb6;" horiz-adv-x="713" 
d="M171 710h512v-140h-78v-570h-149v570h-78v-570h-149v318h-58q-61 0 -101 43q-41 43 -41 105v96q0 59 42 104q41 44 100 44z" />
    <glyph glyph-name="middot" unicode="&#xb7;" horiz-adv-x="241" 
d="M195 268h-150v146h150v-146z" />
    <glyph glyph-name="cedilla" unicode="&#xb8;" horiz-adv-x="222" 
d="M145 -161h-162l74 191h125z" />
    <glyph glyph-name="uni00B9" unicode="&#xb9;" 
d="M204 770v-277h59v-79h-207v79h60v198h-60v79h148z" />
    <glyph glyph-name="ordmasculine" unicode="&#xba;" horiz-adv-x="319" 
d="M162 407q-61 0 -96 33t-35 90v72q0 57 34.5 90t95.5 33q60 0 95 -33t35 -90v-72q0 -57 -34.5 -90t-94.5 -33zM123 601v-70q0 -42 38 -42t38 42v70q0 41 -37 41q-39 0 -39 -41z" />
    <glyph glyph-name="guillemotright" unicode="&#xbb;" horiz-adv-x="595" 
d="M193 255l-129 92v150l231 -168v-150l-231 -168v150zM305 347v150l231 -168v-150l-231 -168v150l129 94z" />
    <glyph glyph-name="onequarter" unicode="&#xbc;" horiz-adv-x="820" 
d="M204 433h59v-79h-207v79h60v198h-60v79h148v-277zM239 0l243 710h99l-243 -710h-99zM693 152v80h88v-232h-88v73h-160v79l82 204h96l-81 -204h63z" />
    <glyph glyph-name="onehalf" unicode="&#xbd;" horiz-adv-x="820" 
d="M204 433h59v-79h-207v79h60v198h-60v79h148v-277zM239 0l243 710h99l-243 -710h-99zM788 260v-16q0 -31 -24.5 -61t-57.5 -48q-82 -44 -82 -56h160v-79h-256v79q0 25 25 51t61 45q86 46 86 74v10q0 25 -38 25q-40 0 -40 -34v-15h-88v11q0 53 35.5 85.5t93.5 32.5
q55 0 90 -28.5t35 -75.5z" />
    <glyph glyph-name="threequarters" unicode="&#xbe;" horiz-adv-x="820" 
d="M295 477v-25q0 -48 -36.5 -77t-94.5 -29q-60 0 -97 30.5t-37 79.5v12h88v-17q0 -26 47 -26q42 0 42 23v30q0 17 -36 17h-61v77h61q37 0 37 18v25q0 23 -42 23q-48 0 -48 -25v-20h-88v15q0 49 37 79.5t97 30.5q58 0 95 -29.5t37 -77.5v-21q0 -31 -23 -57q22 -23 22 -56z
M239 0l243 710h99l-243 -710h-99zM693 152v80h88v-232h-88v73h-160v79l82 204h96l-81 -204h63z" />
    <glyph glyph-name="questiondown" unicode="&#xbf;" horiz-adv-x="632" 
d="M254 510h150v-146h-150v146zM254 287h150v-43q0 -45 -15 -79t-37.5 -51.5t-48.5 -33t-48.5 -25t-37.5 -26.5t-15 -39q0 -32 29 -48.5t80 -16.5q65 0 99 26t34 74v28h150v-30q0 -107 -74 -173q-76 -65 -202 -65q-130 0 -200.5 55.5t-70.5 152.5q0 43 11.5 75.5t34 53.5
t41.5 33t47 24q73 35 73 90v18z" />
    <glyph glyph-name="Agrave" unicode="&#xc0;" horiz-adv-x="645" 
d="M286 910l115 -155h-160l-142 155h187zM631 0h-153l-37 125h-238l-37 -125h-152l198 710h221zM243 265h158l-79 283z" />
    <glyph glyph-name="Aacute" unicode="&#xc1;" horiz-adv-x="645" 
d="M360 910h187l-142 -155h-160zM631 0h-153l-37 125h-238l-37 -125h-152l198 710h221zM243 265h158l-79 283z" />
    <glyph glyph-name="Acircumflex" unicode="&#xc2;" horiz-adv-x="645" 
d="M372 756l-47 43l-46 -43h-169l141 127h149l141 -127h-169zM631 0h-153l-37 125h-238l-37 -125h-152l198 710h221zM243 265h158l-79 283z" />
    <glyph glyph-name="Atilde" unicode="&#xc3;" horiz-adv-x="645" 
d="M272 798q-29 0 -29 -43h-107q0 76 23.5 113t80.5 37q34 0 77 -21t56 -21q30 0 30 42h107q0 -80 -25.5 -115t-79.5 -35q-37 0 -78 22q-42 21 -55 21zM631 0h-153l-37 125h-238l-37 -125h-152l198 710h221zM243 265h158l-79 283z" />
    <glyph glyph-name="Adieresis" unicode="&#xc4;" horiz-adv-x="645" 
d="M151 897h136v-133h-136v133zM358 897h136v-133h-136v133zM631 0h-153l-37 125h-238l-37 -125h-152l198 710h221zM243 265h158l-79 283z" />
    <glyph glyph-name="Aring" unicode="&#xc5;" horiz-adv-x="645" 
d="M420 785q-38 -35 -97 -35q-58 0 -96 35q-37 34 -37 91q0 55 37 90.5t96 35.5t97 -35q37 -34 37 -91t-37 -91zM354 902q-19 16 -47.5 7t-25.5 -33q0 -16 11.5 -26t30.5 -10q29 0 40 23t-9 39zM631 0h-153l-37 125h-238l-37 -125h-152l198 710h221zM243 265h158l-79 283z
" />
    <glyph glyph-name="AE" unicode="&#xc6;" horiz-adv-x="962" 
d="M935 710v-140h-303v-155h263v-140h-263v-135h303v-140h-458v165h-245l-62 -165h-156l265 710h656zM284 305h193v265h-93z" />
    <glyph glyph-name="Ccedilla" unicode="&#xc7;" horiz-adv-x="656" 
d="M614 498v-64h-161v57q0 45 -32 69.5t-92 24.5q-63 0 -98 -25t-35 -69v-272q0 -45 34.5 -69.5t97.5 -24.5q60 0 92.5 25t32.5 69v57h161v-64q0 -93 -61.5 -152.5t-170.5 -71.5l-29 -149h-162l59 152q-99 17 -154 75.5t-55 145.5v286q0 104 77 166q76 61 210 61
q132 0 209 -61t77 -166z" />
    <glyph glyph-name="Egrave" unicode="&#xc8;" horiz-adv-x="535" 
d="M230 910l115 -155h-160l-142 155h187zM508 710v-140h-303v-155h263v-140h-263v-135h303v-140h-458v710h458z" />
    <glyph glyph-name="Eacute" unicode="&#xc9;" horiz-adv-x="535" 
d="M304 910h187l-142 -155h-160zM508 710v-140h-303v-155h263v-140h-263v-135h303v-140h-458v710h458z" />
    <glyph glyph-name="Ecircumflex" unicode="&#xca;" horiz-adv-x="535" 
d="M316 756l-47 43l-46 -43h-169l141 127h149l141 -127h-169zM508 710v-140h-303v-155h263v-140h-263v-135h303v-140h-458v710h458z" />
    <glyph glyph-name="Edieresis" unicode="&#xcb;" horiz-adv-x="535" 
d="M95 897h136v-133h-136v133zM302 897h136v-133h-136v133zM508 710v-140h-303v-155h263v-140h-263v-135h303v-140h-458v710h458z" />
    <glyph glyph-name="Igrave" unicode="&#xcc;" horiz-adv-x="255" 
d="M46 755l-142 155h187l115 -155h-160zM205 0h-155v710h155v-710z" />
    <glyph glyph-name="Iacute" unicode="&#xcd;" horiz-adv-x="255" 
d="M165 910h187l-142 -155h-160zM205 0h-155v710h155v-710z" />
    <glyph glyph-name="Icircumflex" unicode="&#xce;" horiz-adv-x="255" 
d="M177 756l-47 43l-46 -43h-169l141 127h149l141 -127h-169zM205 0h-155v710h155v-710z" />
    <glyph glyph-name="Idieresis" unicode="&#xcf;" horiz-adv-x="255" 
d="M92 764h-136v133h136v-133zM299 764h-136v133h136v-133zM205 0h-155v710h155v-710z" />
    <glyph glyph-name="Eth" unicode="&#xd0;" horiz-adv-x="649" 
d="M50 710h279q127 0 204 -62q75 -62 75 -165v-256q0 -103 -75 -165q-77 -62 -203 -62h-280v294h-86v122h86v294zM453 234v242q0 43 -30 68.5t-83 25.5h-135v-154h136v-122h-136v-154h134q53 0 83.5 25.5t30.5 68.5z" />
    <glyph glyph-name="Ntilde" unicode="&#xd1;" horiz-adv-x="631" 
d="M265 798q-29 0 -29 -43h-107q0 76 23.5 113t80.5 37q33 0 77 -21q43 -21 56 -21q30 0 30 42h107q0 -80 -25.5 -115t-79.5 -35q-37 0 -78 22q-42 21 -55 21zM438 282v428h144v-710h-144l-244 426v-426h-144v710h144z" />
    <glyph glyph-name="Ograve" unicode="&#xd2;" horiz-adv-x="662" 
d="M249 755l-142 155h187l115 -155h-160zM544 47q-77 -62 -212 -62q-134 0 -213 62q-78 61 -78 165v286q0 105 77.5 166t212.5 61t212.5 -61t77.5 -166v-286q0 -103 -77 -165zM331 125q135 0 135 94v272q0 94 -134 94q-136 0 -136 -94v-272q0 -94 135 -94z" />
    <glyph glyph-name="Oacute" unicode="&#xd3;" horiz-adv-x="662" 
d="M368 910h187l-142 -155h-160zM544 47q-77 -62 -212 -62q-134 0 -213 62q-78 61 -78 165v286q0 105 77.5 166t212.5 61t212.5 -61t77.5 -166v-286q0 -103 -77 -165zM331 125q135 0 135 94v272q0 94 -134 94q-136 0 -136 -94v-272q0 -94 135 -94z" />
    <glyph glyph-name="Ocircumflex" unicode="&#xd4;" horiz-adv-x="662" 
d="M380 756l-47 43l-46 -43h-169l141 127h149l141 -127h-169zM119 664q76 61 212 61t213 -61q77 -62 77 -166v-286q0 -105 -77.5 -166t-211.5 -61t-213 62q-78 61 -78 165v286q0 104 78 166zM466 219v272q0 94 -134 94q-136 0 -136 -94v-272q0 -94 135 -94t135 94z" />
    <glyph glyph-name="Otilde" unicode="&#xd5;" horiz-adv-x="662" 
d="M411 905h107q0 -80 -25.5 -115t-79.5 -35q-37 0 -78 22q-42 21 -55 21q-29 0 -29 -43h-107q0 76 23.5 113t80.5 37q34 0 77 -21t56 -21q30 0 30 42zM544 47q-77 -62 -212 -62q-134 0 -213 62q-78 61 -78 165v286q0 105 77.5 166t212.5 61t212.5 -61t77.5 -166v-286
q0 -103 -77 -165zM331 125q135 0 135 94v272q0 94 -134 94q-136 0 -136 -94v-272q0 -94 135 -94z" />
    <glyph glyph-name="Odieresis" unicode="&#xd6;" horiz-adv-x="662" 
d="M295 764h-136v133h136v-133zM502 764h-136v133h136v-133zM544 47q-77 -62 -212 -62q-134 0 -213 62q-78 61 -78 165v286q0 105 77.5 166t212.5 61t212.5 -61t77.5 -166v-286q0 -103 -77 -165zM331 125q135 0 135 94v272q0 94 -134 94q-136 0 -136 -94v-272q0 -94 135 -94
z" />
    <glyph glyph-name="multiply" unicode="&#xd7;" horiz-adv-x="524" 
d="M388 601l94 -92l-131 -144l131 -143l-94 -93l-126 138l-126 -138l-94 93l131 143l-131 144l94 92l126 -138z" />
    <glyph glyph-name="Oslash" unicode="&#xd8;" horiz-adv-x="662" 
d="M592 729l-37 -75q66 -60 66 -156v-286q0 -105 -77.5 -166t-211.5 -61q-50 0 -102 11l-39 -79l-122 65l37 75q-65 60 -65 155v286q0 105 77.5 166t212.5 61q53 0 100 -10l39 78zM196 491v-252l170 344q-26 2 -34 2q-136 0 -136 -94zM331 125q135 0 135 94v255l-171 -347
q30 -2 36 -2z" />
    <glyph glyph-name="Ugrave" unicode="&#xd9;" horiz-adv-x="644" 
d="M240 755l-142 155h187l115 -155h-160zM323 -15q-129 0 -206 62q-76 61 -76 165v498h155v-491q0 -44 33 -69t93 -25t92.5 25t32.5 69v491h155v-498q0 -104 -75 -165q-76 -62 -204 -62z" />
    <glyph glyph-name="Uacute" unicode="&#xda;" horiz-adv-x="644" 
d="M359 910h187l-142 -155h-160zM323 -15q-129 0 -206 62q-76 61 -76 165v498h155v-491q0 -44 33 -69t93 -25t92.5 25t32.5 69v491h155v-498q0 -104 -75 -165q-76 -62 -204 -62z" />
    <glyph glyph-name="Ucircumflex" unicode="&#xdb;" horiz-adv-x="644" 
d="M371 756l-47 43l-46 -43h-169l141 127h149l141 -127h-169zM447 219v491h155v-498q0 -104 -75 -165q-76 -62 -204 -62q-129 0 -206 62q-76 61 -76 165v498h155v-491q0 -44 33 -69t93 -25t92.5 25t32.5 69z" />
    <glyph glyph-name="Udieresis" unicode="&#xdc;" horiz-adv-x="644" 
d="M286 764h-136v133h136v-133zM493 764h-136v133h136v-133zM323 -15q-129 0 -206 62q-76 61 -76 165v498h155v-491q0 -44 33 -69t93 -25t92.5 25t32.5 69v491h155v-498q0 -104 -75 -165q-76 -62 -204 -62z" />
    <glyph glyph-name="Yacute" unicode="&#xdd;" horiz-adv-x="629" 
d="M352 910h187l-142 -155h-160zM448 710h167l-223 -472v-238h-155v236l-223 474h169l133 -291z" />
    <glyph glyph-name="Thorn" unicode="&#xde;" horiz-adv-x="609" 
d="M205 600h144q104 0 169 -56q64 -57 64 -151v-66q0 -95 -63 -150q-65 -57 -169 -57h-145v-120h-155v710h155v-110zM427 320v80q0 28 -18 44t-49 16h-155v-200h154q31 0 49.5 16t18.5 44z" />
    <glyph glyph-name="germandbls" unicode="&#xdf;" horiz-adv-x="570" 
d="M476 401q58 -52 58 -141v-60q0 -92 -64.5 -146t-175.5 -54h-34v135h35q89 0 89 67v56q0 67 -90 67h-34v135h34q69 0 69 67v56q0 67 -72 67q-87 0 -87 -87v-563h-150v564q0 102 63 161.5t173 59.5q104 0 164 -54t60 -146v-60q0 -74 -38 -124z" />
    <glyph glyph-name="agrave" unicode="&#xe0;" horiz-adv-x="557" 
d="M244 734l102 -179h-142l-130 179h170zM382 476l24 34h99v-510h-99l-24 34q-55 -49 -147 -49q-199 0 -199 216v108q0 216 199 216q92 0 147 -49zM208 143q22 -22 61 -22t63 21q23 21 23 60v106q0 38 -23 59.5t-63 21.5q-39 0 -61 -21.5t-22 -62.5v-100q0 -41 22 -62z" />
    <glyph glyph-name="aacute" unicode="&#xe1;" horiz-adv-x="557" 
d="M304 734h169l-130 -179h-142zM382 476l24 34h99v-510h-99l-24 34q-55 -49 -147 -49q-199 0 -199 216v108q0 216 199 216q92 0 147 -49zM208 143q22 -22 61 -22t63 21q23 21 23 60v106q0 38 -23 59.5t-63 21.5q-39 0 -61 -21.5t-22 -62.5v-100q0 -41 22 -62z" />
    <glyph glyph-name="acircumflex" unicode="&#xe2;" horiz-adv-x="557" 
d="M323 555l-47 64l-46 -64h-150l131 157h131l131 -157h-150zM382 476l24 34h99v-510h-99l-24 34q-55 -49 -147 -49q-199 0 -199 216v108q0 216 199 216q92 0 147 -49zM208 143q22 -22 61 -22t63 21q23 21 23 60v106q0 38 -23 59.5t-63 21.5q-39 0 -61 -21.5t-22 -62.5v-100
q0 -41 22 -62z" />
    <glyph glyph-name="atilde" unicode="&#xe3;" horiz-adv-x="557" 
d="M223 598q-29 0 -29 -43h-107q0 76 23.5 113t80.5 37q33 0 77 -21q43 -21 56 -21q30 0 30 42h107q0 -80 -25.5 -115t-79.5 -35q-37 0 -78 22q-42 21 -55 21zM382 476l24 34h99v-510h-99l-24 34q-55 -49 -147 -49q-199 0 -199 216v108q0 216 199 216q92 0 147 -49zM208 143
q22 -22 61 -22t63 21q23 21 23 60v106q0 38 -23 59.5t-63 21.5q-39 0 -61 -21.5t-22 -62.5v-100q0 -41 22 -62z" />
    <glyph glyph-name="adieresis" unicode="&#xe4;" horiz-adv-x="557" 
d="M102 697h136v-133h-136v133zM309 697h136v-133h-136v133zM382 476l24 34h99v-510h-99l-24 34q-55 -49 -147 -49q-199 0 -199 216v108q0 216 199 216q92 0 147 -49zM208 143q22 -22 61 -22t63 21q23 21 23 60v106q0 38 -23 59.5t-63 21.5q-39 0 -61 -21.5t-22 -62.5v-100
q0 -41 22 -62z" />
    <glyph glyph-name="aring" unicode="&#xe5;" horiz-adv-x="557" 
d="M371 585q-38 -35 -97 -35q-58 0 -96 35q-37 34 -37 91q0 55 37 90.5t96 35.5t97 -35q37 -34 37 -91t-37 -91zM305 702q-19 16 -47.5 7t-25.5 -33q0 -16 11.5 -26t30.5 -10q29 0 40 23t-9 39zM382 476l24 34h99v-510h-99l-24 34q-55 -49 -147 -49q-199 0 -199 216v108
q0 216 199 216q92 0 147 -49zM208 143q22 -22 61 -22t63 21q23 21 23 60v106q0 38 -23 59.5t-63 21.5q-39 0 -61 -21.5t-22 -62.5v-100q0 -41 22 -62z" />
    <glyph glyph-name="ae" unicode="&#xe6;" horiz-adv-x="831" 
d="M602 525q89 0 141 -55t52 -140v-119h-297v-9q0 -97 82 -97q30 0 47 14.5t17 38.5v14h150q0 -89 -49 -138t-142 -49q-78 0 -131 50l-25 -35h-48l-24 33q-54 -48 -144 -48q-195 0 -195 216v108q0 108 51 162t146 54q89 0 143 -48l23 33h48l24 -34q55 49 131 49zM498 318
h144v12q0 75 -64 75q-77 0 -80 -87zM267 121q37 0 59 21.5t22 59.5v106q0 38 -22 59.5t-59 21.5q-39 0 -60 -21.5t-21 -62.5v-100q0 -41 22 -62.5t59 -21.5z" />
    <glyph glyph-name="ccedilla" unicode="&#xe7;" horiz-adv-x="523" 
d="M487 313v-15h-151v19q0 34 -19.5 53.5t-51.5 19.5q-79 0 -79 -87v-96q0 -87 79 -87q32 0 51.5 19.5t19.5 53.5v19h151v-15q0 -83 -46 -138.5t-125 -69.5l-29 -150h-162l61 156q-71 20 -110.5 75t-39.5 136v98q0 102 61 161.5t167 59.5q101 0 162 -58t61 -154z" />
    <glyph glyph-name="egrave" unicode="&#xe8;" horiz-adv-x="526" 
d="M233 734l102 -179h-142l-130 179h170zM266 525q99 0 161 -55q63 -55 63 -140v-119h-304v-9q0 -47 22 -72t60 -25q27 0 49 13.5t22 33.5v10h150q0 -81 -61.5 -129t-161.5 -48q-107 0 -168.5 60.5t-61.5 163.5v95q0 102 61.5 161.5t168.5 59.5zM186 318h151v12q0 75 -70 75
q-78 0 -81 -87z" />
    <glyph glyph-name="eacute" unicode="&#xe9;" horiz-adv-x="526" 
d="M293 734h169l-130 -179h-142zM266 525q99 0 161 -55q63 -55 63 -140v-119h-304v-9q0 -47 22 -72t60 -25q27 0 49 13.5t22 33.5v10h150q0 -81 -61.5 -129t-161.5 -48q-107 0 -168.5 60.5t-61.5 163.5v95q0 102 61.5 161.5t168.5 59.5zM186 318h151v12q0 75 -70 75
q-78 0 -81 -87z" />
    <glyph glyph-name="ecircumflex" unicode="&#xea;" horiz-adv-x="526" 
d="M312 555l-47 64l-46 -64h-150l131 157h131l131 -157h-150zM266 525q99 0 161 -55q63 -55 63 -140v-119h-304v-9q0 -47 22 -72t60 -25q27 0 49 13.5t22 33.5v10h150q0 -81 -61.5 -129t-161.5 -48q-107 0 -168.5 60.5t-61.5 163.5v95q0 102 61.5 161.5t168.5 59.5zM186 318
h151v12q0 75 -70 75q-78 0 -81 -87z" />
    <glyph glyph-name="edieresis" unicode="&#xeb;" horiz-adv-x="526" 
d="M91 697h136v-133h-136v133zM298 697h136v-133h-136v133zM266 525q99 0 161 -55q63 -55 63 -140v-119h-304v-9q0 -47 22 -72t60 -25q27 0 49 13.5t22 33.5v10h150q0 -81 -61.5 -129t-161.5 -48q-107 0 -168.5 60.5t-61.5 163.5v95q0 102 61.5 161.5t168.5 59.5zM186 318
h151v12q0 75 -70 75q-78 0 -81 -87z" />
    <glyph glyph-name="igrave" unicode="&#xec;" horiz-adv-x="259" 
d="M59 555l-130 179h170l102 -179h-142zM204 0h-150v510h150v-510z" />
    <glyph glyph-name="iacute" unicode="&#xed;" horiz-adv-x="259" 
d="M159 734h169l-130 -179h-142zM204 0h-150v510h150v-510z" />
    <glyph glyph-name="icircumflex" unicode="&#xee;" horiz-adv-x="259" 
d="M178 555l-47 64l-46 -64h-150l131 157h131l131 -157h-150zM204 0h-150v510h150v-510z" />
    <glyph glyph-name="idieresis" unicode="&#xef;" horiz-adv-x="259" 
d="M93 564h-136v133h136v-133zM300 564h-136v133h136v-133zM204 0h-150v510h150v-510z" />
    <glyph glyph-name="eth" unicode="&#xf0;" horiz-adv-x="539" 
d="M419 795l96 -86l-73 -67q60 -94 60 -239v-184q0 -108 -62.5 -171t-170.5 -63t-170.5 59.5t-62.5 161.5v103q0 216 199 216q63 0 109 -24q-31 148 -212 148v136q132 0 218 -54zM352 221v87q0 39 -22 60t-61 21t-61 -21.5t-22 -62.5v-97q0 -88 83 -88t83 101z" />
    <glyph glyph-name="ntilde" unicode="&#xf1;" horiz-adv-x="562" 
d="M230 598q-29 0 -29 -43h-107q0 76 23.5 113t80.5 37q34 0 77 -21t56 -21q30 0 30 42h107q0 -80 -25.5 -115t-79.5 -35q-37 0 -78 22q-42 21 -55 21zM322 525q93 0 143 -57t50 -172v-296h-150v299q0 42 -22.5 66t-57.5 24q-34 0 -58 -22t-24 -59v-308h-150v510h96l27 -36
q57 51 146 51z" />
    <glyph glyph-name="ograve" unicode="&#xf2;" horiz-adv-x="538" 
d="M199 555l-130 179h170l102 -179h-142zM440 45q-62 -60 -171 -60t-171 60q-62 59 -62 161v98q0 102 62 161.5t170 59.5q110 0 172 -59t62 -162v-98q0 -102 -62 -161zM268 120q84 0 84 87v96q0 87 -83 87t-83 -87v-96q0 -87 82 -87z" />
    <glyph glyph-name="oacute" unicode="&#xf3;" horiz-adv-x="538" 
d="M299 734h169l-130 -179h-142zM440 45q-62 -60 -171 -60t-171 60q-62 59 -62 161v98q0 102 62 161.5t170 59.5q110 0 172 -59t62 -162v-98q0 -102 -62 -161zM268 120q84 0 84 87v96q0 87 -83 87t-83 -87v-96q0 -87 82 -87z" />
    <glyph glyph-name="ocircumflex" unicode="&#xf4;" horiz-adv-x="538" 
d="M318 555l-47 64l-46 -64h-150l131 157h131l131 -157h-150zM268 525q110 0 172 -59t62 -162v-98q0 -102 -62.5 -161.5t-170.5 -59.5t-170.5 59.5t-62.5 161.5v98q0 102 62 161.5t170 59.5zM352 207v96q0 87 -83 87t-83 -87v-96q0 -87 82 -87q84 0 84 87z" />
    <glyph glyph-name="otilde" unicode="&#xf5;" horiz-adv-x="538" 
d="M349 705h107q0 -80 -25.5 -115t-79.5 -35q-37 0 -78 22q-42 21 -55 21q-29 0 -29 -43h-107q0 76 23.5 113t80.5 37q34 0 77 -21t56 -21q30 0 30 42zM440 45q-62 -60 -171 -60t-171 60q-62 59 -62 161v98q0 102 62 161.5t170 59.5q110 0 172 -59t62 -162v-98
q0 -102 -62 -161zM268 120q84 0 84 87v96q0 87 -83 87t-83 -87v-96q0 -87 82 -87z" />
    <glyph glyph-name="odieresis" unicode="&#xf6;" horiz-adv-x="538" 
d="M233 564h-136v133h136v-133zM440 564h-136v133h136v-133zM440 45q-62 -60 -171 -60t-171 60q-62 59 -62 161v98q0 102 62 161.5t170 59.5q110 0 172 -59t62 -162v-98q0 -102 -62 -161zM268 120q84 0 84 87v96q0 87 -83 87t-83 -87v-96q0 -87 82 -87z" />
    <glyph glyph-name="divide" unicode="&#xf7;" horiz-adv-x="516" 
d="M334 475h-150v146h150v-146zM474 295h-432v140h432v-140zM334 109h-150v146h150v-146z" />
    <glyph glyph-name="oslash" unicode="&#xf8;" horiz-adv-x="538" 
d="M482 531l-35 -72q55 -58 55 -155v-98q0 -102 -62.5 -161.5t-170.5 -59.5q-24 0 -45 3l-34 -72l-128 63l32 69q-58 58 -58 158v98q0 102 62 161.5t170 59.5q31 0 50 -4l36 73zM352 207v96q0 87 -83 87t-83 -87v-96q0 -87 82 -87q84 0 84 87z" />
    <glyph glyph-name="ugrave" unicode="&#xf9;" horiz-adv-x="547" 
d="M244 734l102 -179h-142l-130 179h170zM344 202v308h150v-510h-95l-26 34q-52 -49 -135 -49q-91 0 -140.5 57t-49.5 172v296h150v-299q0 -44 19.5 -67t53.5 -23q31 0 52 22t21 59z" />
    <glyph glyph-name="uacute" unicode="&#xfa;" horiz-adv-x="547" 
d="M304 734h169l-130 -179h-142zM344 202v308h150v-510h-95l-26 34q-52 -49 -135 -49q-91 0 -140.5 57t-49.5 172v296h150v-299q0 -44 19.5 -67t53.5 -23q31 0 52 22t21 59z" />
    <glyph glyph-name="ucircumflex" unicode="&#xfb;" horiz-adv-x="547" 
d="M323 555l-47 64l-46 -64h-150l131 157h131l131 -157h-150zM344 202v308h150v-510h-95l-26 34q-52 -49 -135 -49q-91 0 -140.5 57t-49.5 172v296h150v-299q0 -44 19.5 -67t53.5 -23q31 0 52 22t21 59z" />
    <glyph glyph-name="udieresis" unicode="&#xfc;" horiz-adv-x="547" 
d="M102 697h136v-133h-136v133zM309 697h136v-133h-136v133zM344 202v308h150v-510h-95l-26 34q-52 -49 -135 -49q-91 0 -140.5 57t-49.5 172v296h150v-299q0 -44 19.5 -67t53.5 -23q31 0 52 22t21 59z" />
    <glyph glyph-name="yacute" unicode="&#xfd;" horiz-adv-x="548" 
d="M304 734h169l-130 -179h-142zM345 202v308h150v-558q0 -89 -58.5 -143t-165.5 -54t-165 53q-57 54 -57 132h150q0 -23 19.5 -36.5t49.5 -13.5q34 0 55.5 16.5t21.5 47.5v58q-47 -27 -106 -27q-91 0 -140.5 57t-49.5 172v296h150v-299q0 -44 19.5 -67t53.5 -23q31 0 52 22
t21 59z" />
    <glyph glyph-name="thorn" unicode="&#xfe;" horiz-adv-x="557" 
d="M321 525q200 0 200 -216v-108q0 -216 -200 -216q-68 0 -118 29v-244h-150v1000h150v-274q50 29 118 29zM371 205v100q0 41 -22 62.5t-61 21.5q-40 0 -62.5 -21t-22.5 -60v-106q0 -38 23 -59.5t62 -21.5t61 21.5t22 62.5z" />
    <glyph glyph-name="ydieresis" unicode="&#xff;" horiz-adv-x="548" 
d="M102 697h136v-133h-136v133zM309 697h136v-133h-136v133zM345 202v308h150v-558q0 -89 -58.5 -143t-165.5 -54t-165 53q-57 54 -57 132h150q0 -23 19.5 -36.5t49.5 -13.5q34 0 55.5 16.5t21.5 47.5v58q-47 -27 -106 -27q-91 0 -140.5 57t-49.5 172v296h150v-299
q0 -44 19.5 -67t53.5 -23q31 0 52 22t21 59z" />
    <glyph glyph-name="Amacron" unicode="&#x100;" horiz-adv-x="645" 
d="M148 898h349v-122h-349v122zM631 0h-153l-37 125h-238l-37 -125h-152l198 710h221zM243 265h158l-79 283z" />
    <glyph glyph-name="amacron" unicode="&#x101;" horiz-adv-x="557" 
d="M99 698h349v-122h-349v122zM382 476l24 34h99v-510h-99l-24 34q-55 -49 -147 -49q-199 0 -199 216v108q0 216 199 216q92 0 147 -49zM208 143q22 -22 61 -22t63 21q23 21 23 60v106q0 38 -23 59.5t-63 21.5q-39 0 -61 -21.5t-22 -62.5v-100q0 -41 22 -62z" />
    <glyph glyph-name="Abreve" unicode="&#x102;" horiz-adv-x="645" 
d="M442 793q-46 -43 -119 -43q-74 0 -118 43q-46 42 -46 109h93q0 -29 19 -45.5t52 -16.5t52 16.5t19 45.5h93q0 -67 -45 -109zM631 0h-153l-37 125h-238l-37 -125h-152l198 710h221zM243 265h158l-79 283z" />
    <glyph glyph-name="abreve" unicode="&#x103;" horiz-adv-x="557" 
d="M393 593q-46 -43 -119 -43q-74 0 -118 43q-46 42 -46 109h93q0 -29 19 -45.5t52 -16.5t52 16.5t19 45.5h93q0 -67 -45 -109zM382 476l24 34h99v-510h-99l-24 34q-55 -49 -147 -49q-199 0 -199 216v108q0 216 199 216q92 0 147 -49zM208 143q22 -22 61 -22t63 21
q23 21 23 60v106q0 38 -23 59.5t-63 21.5q-39 0 -61 -21.5t-22 -62.5v-100q0 -41 22 -62z" />
    <glyph glyph-name="Aogonek" unicode="&#x104;" horiz-adv-x="645" 
d="M563 -85q0 -38 41 -38q17 0 22 1v-99q-32 -7 -67 -7q-80 0 -115.5 24.5t-35.5 86.5q0 65 72 117h-2l-37 125h-238l-37 -125h-152l198 710h221l198 -710q-32 -17 -50 -40t-18 -45zM243 265h158l-79 283z" />
    <glyph glyph-name="aogonek" unicode="&#x105;" horiz-adv-x="557" 
d="M505 510v-510q-32 -17 -50.5 -40t-18.5 -45q0 -38 41 -38q17 0 22 1v-99q-32 -7 -67 -7q-80 0 -115 24.5t-35 86.5q0 78 111 135l-14 19q-61 -52 -144 -52q-95 0 -147 54.5t-52 161.5v108q0 216 199 216q92 0 147 -49l24 34h99zM208 143q22 -22 61 -22t63 21q23 21 23 60
v106q0 38 -23 59.5t-63 21.5q-39 0 -61 -21.5t-22 -62.5v-100q0 -41 22 -62z" />
    <glyph glyph-name="Cacute" unicode="&#x106;" horiz-adv-x="656" 
d="M365 910h187l-142 -155h-160zM329 -15q-133 0 -210 62q-78 61 -78 165v286q0 104 77 166q76 61 210 61q132 0 209 -61t77 -166v-64h-161v57q0 45 -32 69.5t-92 24.5q-63 0 -98 -25t-35 -69v-272q0 -45 34.5 -69.5t97.5 -24.5q60 0 92.5 25t32.5 69v57h161v-64
q0 -104 -76 -165q-77 -62 -209 -62z" />
    <glyph glyph-name="cacute" unicode="&#x107;" horiz-adv-x="523" 
d="M292 734h169l-130 -179h-142zM265 -15q-107 0 -168 59.5t-61 161.5v98q0 102 61 161.5t167 59.5q101 0 162 -58t61 -154v-15h-151v19q0 34 -19.5 53.5t-51.5 19.5q-79 0 -79 -87v-96q0 -87 79 -87q32 0 51.5 19.5t19.5 53.5v19h151v-15q0 -95 -60 -154q-61 -58 -162 -58z
" />
    <glyph glyph-name="Cdotaccent" unicode="&#x10a;" horiz-adv-x="656" 
d="M403 764h-150v146h150v-146zM329 -15q-133 0 -210 62q-78 61 -78 165v286q0 104 77 166q76 61 210 61q132 0 209 -61t77 -166v-64h-161v57q0 45 -32 69.5t-92 24.5q-63 0 -98 -25t-35 -69v-272q0 -45 34.5 -69.5t97.5 -24.5q60 0 92.5 25t32.5 69v57h161v-64
q0 -104 -76 -165q-77 -62 -209 -62z" />
    <glyph glyph-name="cdotaccent" unicode="&#x10b;" horiz-adv-x="523" 
d="M337 564h-150v146h150v-146zM265 -15q-107 0 -168 59.5t-61 161.5v98q0 102 61 161.5t167 59.5q101 0 162 -58t61 -154v-15h-151v19q0 34 -19.5 53.5t-51.5 19.5q-79 0 -79 -87v-96q0 -87 79 -87q32 0 51.5 19.5t19.5 53.5v19h151v-15q0 -95 -60 -154q-61 -58 -162 -58z
" />
    <glyph glyph-name="Ccaron" unicode="&#x10c;" horiz-adv-x="656" 
d="M543 882l-141 -127h-149l-141 127h169l47 -43l46 43h169zM614 498v-64h-161v57q0 45 -32 69.5t-92 24.5q-63 0 -98 -25t-35 -69v-272q0 -45 34.5 -69.5t97.5 -24.5q60 0 92.5 25t32.5 69v57h161v-64q0 -104 -76 -165q-77 -62 -209 -62q-133 0 -210 62q-78 61 -78 165v286
q0 104 77 166q76 61 210 61q132 0 209 -61t77 -166z" />
    <glyph glyph-name="ccaron" unicode="&#x10d;" horiz-adv-x="523" 
d="M458 712l-131 -157h-131l-131 157h150l47 -64l46 64h150zM487 313v-15h-151v19q0 34 -19.5 53.5t-51.5 19.5q-79 0 -79 -87v-96q0 -87 79 -87q32 0 51.5 19.5t19.5 53.5v19h151v-15q0 -95 -60 -154q-61 -58 -162 -58q-107 0 -168 59.5t-61 161.5v98q0 102 61 161.5
t167 59.5q101 0 162 -58t61 -154z" />
    <glyph glyph-name="Dcaron" unicode="&#x10e;" horiz-adv-x="649" 
d="M540 882l-141 -127h-149l-141 127h169l47 -43l46 43h169zM50 710h279q127 0 204 -62q75 -62 75 -165v-256q0 -103 -75 -165q-77 -62 -203 -62h-280v710zM453 234v242q0 43 -30 68.5t-83 25.5h-135v-430h134q53 0 83.5 25.5t30.5 68.5z" />
    <glyph glyph-name="dcaron" unicode="&#x10f;" horiz-adv-x="658" 
d="M355 496v274h150v-770h-99l-24 34q-52 -49 -145 -49q-201 0 -201 216v108q0 216 201 216q68 0 118 -29zM522 555l29 215h143l-38 -215h-134zM208 143q22 -22 61 -22t63 21q23 21 23 60v106q0 38 -23 59.5t-63 21.5q-39 0 -61 -21.5t-22 -62.5v-100q0 -41 22 -62z" />
    <glyph glyph-name="Dcroat" unicode="&#x110;" horiz-adv-x="649" 
d="M50 710h279q127 0 204 -62q75 -62 75 -165v-256q0 -103 -75 -165q-77 -62 -203 -62h-280v294h-86v122h86v294zM453 234v242q0 43 -30 68.5t-83 25.5h-135v-154h136v-122h-136v-154h134q53 0 83.5 25.5t30.5 68.5z" />
    <glyph glyph-name="dslash" unicode="&#x111;" horiz-adv-x="557" 
d="M505 681h61v-122h-61v-559h-99l-24 34q-52 -49 -145 -49q-201 0 -201 216v108q0 216 201 216q68 0 118 -29v63h-122v122h122v89h150v-89zM208 143q22 -22 61 -22t63 21q23 21 23 60v106q0 38 -23 59.5t-63 21.5q-39 0 -61 -21.5t-22 -62.5v-100q0 -41 22 -62z" />
    <glyph glyph-name="Emacron" unicode="&#x112;" horiz-adv-x="535" 
d="M92 898h349v-122h-349v122zM508 710v-140h-303v-155h263v-140h-263v-135h303v-140h-458v710h458z" />
    <glyph glyph-name="emacron" unicode="&#x113;" horiz-adv-x="526" 
d="M88 698h349v-122h-349v122zM266 525q99 0 161 -55q63 -55 63 -140v-119h-304v-9q0 -47 22 -72t60 -25q27 0 49 13.5t22 33.5v10h150q0 -81 -61.5 -129t-161.5 -48q-107 0 -168.5 60.5t-61.5 163.5v95q0 102 61.5 161.5t168.5 59.5zM186 318h151v12q0 75 -70 75
q-78 0 -81 -87z" />
    <glyph glyph-name="Edotaccent" unicode="&#x116;" horiz-adv-x="535" 
d="M192 910h150v-146h-150v146zM508 710v-140h-303v-155h263v-140h-263v-135h303v-140h-458v710h458z" />
    <glyph glyph-name="edotaccent" unicode="&#x117;" horiz-adv-x="526" 
d="M188 710h150v-146h-150v146zM266 525q99 0 161 -55q63 -55 63 -140v-119h-304v-9q0 -47 22 -72t60 -25q27 0 49 13.5t22 33.5v10h150q0 -81 -61.5 -129t-161.5 -48q-107 0 -168.5 60.5t-61.5 163.5v95q0 102 61.5 161.5t168.5 59.5zM186 318h151v12q0 75 -70 75
q-78 0 -81 -87z" />
    <glyph glyph-name="Eogonek" unicode="&#x118;" horiz-adv-x="535" 
d="M508 710v-140h-303v-155h263v-140h-263v-135h303v-140q-32 -17 -50 -40t-18 -45q0 -38 41 -38q17 0 22 1v-99q-32 -7 -67 -7q-80 0 -115.5 24.5t-35.5 86.5q0 65 72 117h-307v710h458z" />
    <glyph glyph-name="eogonek" unicode="&#x119;" horiz-adv-x="526" 
d="M266 525q99 0 161 -55q63 -55 63 -140v-119h-304v-9q0 -47 22 -72t60 -25q33 0 52 14.5t19 38.5v14h150q0 -79 -48 -133t-48 -113q0 -27 12.5 -38t41.5 -11q17 0 22 1v-99q-32 -7 -67 -7q-80 0 -115 24.5t-35 86.5q0 45 44 103q-7 -1 -30 -1q-107 0 -168.5 60.5
t-61.5 163.5v95q0 102 61.5 161.5t168.5 59.5zM186 318h151v12q0 75 -70 75q-78 0 -81 -87z" />
    <glyph glyph-name="Ecaron" unicode="&#x11a;" horiz-adv-x="535" 
d="M482 882l-141 -127h-149l-141 127h169l47 -43l46 43h169zM508 710v-140h-303v-155h263v-140h-263v-135h303v-140h-458v710h458z" />
    <glyph glyph-name="ecaron" unicode="&#x11b;" horiz-adv-x="526" 
d="M459 712l-131 -157h-131l-131 157h150l47 -64l46 64h150zM266 525q99 0 161 -55q63 -55 63 -140v-119h-304v-9q0 -47 22 -72t60 -25q27 0 49 13.5t22 33.5v10h150q0 -81 -61.5 -129t-161.5 -48q-107 0 -168.5 60.5t-61.5 163.5v95q0 102 61.5 161.5t168.5 59.5zM186 318
h151v12q0 75 -70 75q-78 0 -81 -87z" />
    <glyph glyph-name="Gbreve" unicode="&#x11e;" horiz-adv-x="656" 
d="M447 793q-46 -43 -119 -43q-74 0 -118 43q-46 42 -46 109h93q0 -29 19 -45.5t52 -16.5t52 16.5t19 45.5h93q0 -67 -45 -109zM614 498v-44h-155v37q0 43 -35.5 68.5t-94.5 25.5q-61 0 -97 -25.5t-36 -68.5v-272q0 -43 36 -68.5t96 -25.5t95.5 25.5t35.5 68.5v26h-134v140
h289v-173q0 -104 -76 -165q-77 -62 -209 -62q-133 0 -210 62q-78 61 -78 165v286q0 104 77 166q76 61 210 61q132 0 209 -61t77 -166z" />
    <glyph glyph-name="gbreve" unicode="&#x11f;" horiz-adv-x="557" 
d="M393 593q-46 -43 -119 -43q-74 0 -118 43q-46 42 -46 109h93q0 -29 19 -45.5t52 -16.5t52 16.5t19 45.5h93q0 -67 -45 -109zM382 476l24 34h99v-558q0 -89 -60.5 -143t-171.5 -54q-110 0 -169 53q-59 54 -59 132h150q0 -23 21.5 -36.5t54.5 -13.5q37 0 60.5 16.5
t23.5 47.5v60q-50 -29 -120 -29q-199 0 -199 216v108q0 216 199 216q92 0 147 -49zM208 143q22 -22 61 -22t63 21q23 21 23 60v106q0 38 -23 59.5t-63 21.5q-39 0 -61 -21.5t-22 -62.5v-100q0 -41 22 -62z" />
    <glyph glyph-name="Gdotaccent" unicode="&#x120;" horiz-adv-x="656" 
d="M253 910h150v-146h-150v146zM614 498v-44h-155v37q0 43 -35.5 68.5t-94.5 25.5q-61 0 -97 -25.5t-36 -68.5v-272q0 -43 36 -68.5t96 -25.5t95.5 25.5t35.5 68.5v26h-134v140h289v-173q0 -104 -76 -165q-77 -62 -209 -62q-133 0 -210 62q-78 61 -78 165v286q0 104 77 166
q76 61 210 61q132 0 209 -61t77 -166z" />
    <glyph glyph-name="gdotaccent" unicode="&#x121;" horiz-adv-x="557" 
d="M199 710h150v-146h-150v146zM382 476l24 34h99v-558q0 -89 -60.5 -143t-171.5 -54q-110 0 -169 53q-59 54 -59 132h150q0 -23 21.5 -36.5t54.5 -13.5q37 0 60.5 16.5t23.5 47.5v60q-50 -29 -120 -29q-199 0 -199 216v108q0 216 199 216q92 0 147 -49zM208 143
q22 -22 61 -22t63 21q23 21 23 60v106q0 38 -23 59.5t-63 21.5q-39 0 -61 -21.5t-22 -62.5v-100q0 -41 22 -62z" />
    <glyph glyph-name="uni0122" unicode="&#x122;" horiz-adv-x="656" 
d="M614 498v-44h-155v37q0 43 -35.5 68.5t-94.5 25.5q-61 0 -97 -25.5t-36 -68.5v-272q0 -43 36 -68.5t96 -25.5t95.5 25.5t35.5 68.5v26h-134v140h289v-173q0 -104 -76 -165q-77 -62 -209 -62q-133 0 -210 62q-78 61 -78 165v286q0 104 77 166q76 61 210 61q132 0 209 -61
t77 -166zM303 -163h-45v117h141v-113l-71 -102h-66z" />
    <glyph glyph-name="uni0123" unicode="&#x123;" horiz-adv-x="557" 
d="M299 673h45v-117h-141v113l71 102h66zM382 476l24 34h99v-558q0 -89 -60.5 -143t-171.5 -54q-110 0 -169 53q-59 54 -59 132h150q0 -23 21.5 -36.5t54.5 -13.5q37 0 60.5 16.5t23.5 47.5v60q-50 -29 -120 -29q-199 0 -199 216v108q0 216 199 216q92 0 147 -49zM208 143
q22 -22 61 -22t63 21q23 21 23 60v106q0 38 -23 59.5t-63 21.5q-39 0 -61 -21.5t-22 -62.5v-100q0 -41 22 -62z" />
    <glyph glyph-name="Hbar" unicode="&#x126;" horiz-adv-x="660" 
d="M610 616h56v-122h-56v-494h-155v275h-250v-275h-155v494h-56v122h56v94h155v-94h250v94h155v-94zM205 415h250v79h-250v-79z" />
    <glyph glyph-name="hbar" unicode="&#x127;" horiz-adv-x="562" 
d="M323 525q92 0 142 -57t50 -172v-296h-150v298q0 43 -22.5 67t-57.5 24q-34 0 -58 -22.5t-24 -59.5v-307h-150v559h-62v122h62v89h150v-89h121v-122h-121v-65q52 31 120 31z" />
    <glyph glyph-name="Imacron" unicode="&#x12a;" horiz-adv-x="255" 
d="M-47 898h349v-122h-349v122zM205 0h-155v710h155v-710z" />
    <glyph glyph-name="imacron" unicode="&#x12b;" horiz-adv-x="259" 
d="M-46 698h349v-122h-349v122zM204 0h-150v510h150v-510z" />
    <glyph glyph-name="Iogonek" unicode="&#x12e;" horiz-adv-x="255" 
d="M205 710v-710q-32 -17 -50 -40t-18 -45q0 -38 41 -38q17 0 22 1v-99q-32 -7 -67 -7q-80 0 -115.5 24.5t-35.5 86.5q0 65 72 117h-4v710h155z" />
    <glyph glyph-name="iogonek" unicode="&#x12f;" horiz-adv-x="259" 
d="M54 564v146h150v-146h-150zM54 1v509h150v-510q-32 -17 -50 -40t-18 -45q0 -38 41 -38q17 0 22 1v-99q-32 -7 -67 -7q-80 0 -115.5 24.5t-35.5 86.5q0 66 73 118z" />
    <glyph glyph-name="Idotaccent" unicode="&#x130;" horiz-adv-x="255" 
d="M203 764h-150v146h150v-146zM205 0h-155v710h155v-710z" />
    <glyph glyph-name="dotlessi" unicode="&#x131;" horiz-adv-x="259" 
d="M204 0h-150v510h150v-510z" />
    <glyph glyph-name="IJ" unicode="&#x132;" horiz-adv-x="637" 
d="M205 0h-155v710h155v-710zM330 0h-57v140h66q93 0 93 117v453h155v-453q0 -113 -69 -185q-70 -72 -188 -72z" />
    <glyph glyph-name="ij" unicode="&#x133;" horiz-adv-x="533" 
d="M204 564h-150v146h150v-146zM478 564h-150v146h150v-146zM204 0h-150v510h150v-510zM293 -230h-65v135h22q48 0 63 21t15 73v511h150v-550q0 -100 -53 -145t-132 -45z" />
    <glyph glyph-name="uni0136" unicode="&#x136;" horiz-adv-x="662" 
d="M638 710l-259 -346l265 -364h-191l-248 336v-336h-155v710h155v-317l239 317h194zM306 -163h-45v117h141v-113l-71 -102h-66z" />
    <glyph glyph-name="uni0137" unicode="&#x137;" horiz-adv-x="554" 
d="M548 510l-187 -241l191 -269h-177l-171 239v-239h-150v770h150v-472l164 212h180zM248 -163h-45v117h141v-113l-71 -102h-66z" />
    <glyph glyph-name="Lacute" unicode="&#x139;" horiz-adv-x="527" 
d="M165 910h187l-142 -155h-160zM205 710v-570h310v-140h-465v710h155z" />
    <glyph glyph-name="lacute" unicode="&#x13a;" horiz-adv-x="259" 
d="M166 970h187l-142 -155h-160zM54 0v770h150v-770h-150z" />
    <glyph glyph-name="uni013B" unicode="&#x13b;" horiz-adv-x="527" 
d="M205 710v-570h310v-140h-465v710h155zM238 -163h-45v117h141v-113l-71 -102h-66z" />
    <glyph glyph-name="uni013C" unicode="&#x13c;" horiz-adv-x="259" 
d="M54 0v770h150v-770h-150zM104 -163h-45v117h141v-113l-71 -102h-66z" />
    <glyph glyph-name="Lcaron" unicode="&#x13d;" horiz-adv-x="527" 
d="M375 725h143l-38 -215h-134zM50 710h155v-570h310v-140h-465v710z" />
    <glyph glyph-name="lcaron" unicode="&#x13e;" horiz-adv-x="360" 
d="M54 0v770h150v-770h-150zM251 770h143l-38 -215h-134z" />
    <glyph glyph-name="Ldot" unicode="&#x13f;" horiz-adv-x="533" 
d="M205 710v-570h310v-140h-465v710h155zM328 444h147v-146h-147v146z" />
    <glyph glyph-name="ldot" unicode="&#x140;" horiz-adv-x="390" 
d="M54 0v770h150v-770h-150zM406 308h-150v146h150v-146z" />
    <glyph glyph-name="Lslash" unicode="&#x141;" horiz-adv-x="527" 
d="M205 279v-139h310v-140h-465v228l-69 -23v143l69 23v339h155v-288l187 61v-143z" />
    <glyph glyph-name="lslash" unicode="&#x142;" horiz-adv-x="259" 
d="M204 472l74 42v-156l-74 -42v-316h-150v229l-74 -42v156l74 42v385h150v-298z" />
    <glyph glyph-name="Nacute" unicode="&#x143;" horiz-adv-x="631" 
d="M353 910h187l-142 -155h-160zM438 282v428h144v-710h-144l-244 426v-426h-144v710h144z" />
    <glyph glyph-name="nacute" unicode="&#x144;" horiz-adv-x="562" 
d="M311 734h169l-130 -179h-142zM322 525q93 0 143 -57t50 -172v-296h-150v299q0 42 -22.5 66t-57.5 24q-34 0 -58 -22t-24 -59v-308h-150v510h96l27 -36q57 51 146 51z" />
    <glyph glyph-name="uni0145" unicode="&#x145;" horiz-adv-x="631" 
d="M438 282v428h144v-710h-144l-244 426v-426h-144v710h144zM291 -163h-45v117h141v-113l-71 -102h-66z" />
    <glyph glyph-name="uni0146" unicode="&#x146;" horiz-adv-x="562" 
d="M322 525q93 0 143 -57t50 -172v-296h-150v299q0 42 -22.5 66t-57.5 24q-34 0 -58 -22t-24 -59v-308h-150v510h96l27 -36q57 51 146 51zM256 -163h-45v117h141v-113l-71 -102h-66z" />
    <glyph glyph-name="Ncaron" unicode="&#x147;" horiz-adv-x="631" 
d="M531 882l-141 -127h-149l-141 127h169l47 -43l46 43h169zM438 282v428h144v-710h-144l-244 426v-426h-144v710h144z" />
    <glyph glyph-name="ncaron" unicode="&#x148;" horiz-adv-x="562" 
d="M477 712l-131 -157h-131l-131 157h150l47 -64l46 64h150zM322 525q93 0 143 -57t50 -172v-296h-150v299q0 42 -22.5 66t-57.5 24q-34 0 -58 -22t-24 -59v-308h-150v510h96l27 -36q57 51 146 51z" />
    <glyph glyph-name="Eng" unicode="&#x14a;" horiz-adv-x="631" 
d="M436 287v423h146v-648q0 -113 -68.5 -180t-188.5 -67h-46v137h55q71 0 94 62l-232 407v-421h-146v710h146z" />
    <glyph glyph-name="eng" unicode="&#x14b;" horiz-adv-x="562" 
d="M322 525q93 0 143 -57t50 -172v-336q0 -100 -53 -145q-52 -45 -133 -45h-64v135h21q48 0 63.5 21t15.5 73v300q0 42 -22.5 66t-57.5 24q-34 0 -58 -22t-24 -59v-308h-150v510h99l25 -35q58 50 145 50z" />
    <glyph glyph-name="Omacron" unicode="&#x14c;" horiz-adv-x="662" 
d="M156 898h349v-122h-349v122zM544 47q-77 -62 -212 -62q-134 0 -213 62q-78 61 -78 165v286q0 105 77.5 166t212.5 61t212.5 -61t77.5 -166v-286q0 -103 -77 -165zM331 125q135 0 135 94v272q0 94 -134 94q-136 0 -136 -94v-272q0 -94 135 -94z" />
    <glyph glyph-name="omacron" unicode="&#x14d;" horiz-adv-x="538" 
d="M94 698h349v-122h-349v122zM440 45q-62 -60 -171 -60t-171 60q-62 59 -62 161v98q0 102 62 161.5t170 59.5q110 0 172 -59t62 -162v-98q0 -102 -62 -161zM268 120q84 0 84 87v96q0 87 -83 87t-83 -87v-96q0 -87 82 -87z" />
    <glyph glyph-name="Ohungarumlaut" unicode="&#x150;" horiz-adv-x="662" 
d="M252 886h139l-95 -131h-131zM464 886h139l-95 -131h-131zM544 47q-77 -62 -212 -62q-134 0 -213 62q-78 61 -78 165v286q0 105 77.5 166t212.5 61t212.5 -61t77.5 -166v-286q0 -103 -77 -165zM331 125q135 0 135 94v272q0 94 -134 94q-136 0 -136 -94v-272q0 -94 135 -94
z" />
    <glyph glyph-name="ohungarumlaut" unicode="&#x151;" horiz-adv-x="538" 
d="M168 689h134l-72 -134h-125zM378 689h134l-72 -134h-125zM440 45q-62 -60 -171 -60t-171 60q-62 59 -62 161v98q0 102 62 161.5t170 59.5q110 0 172 -59t62 -162v-98q0 -102 -62 -161zM268 120q84 0 84 87v96q0 87 -83 87t-83 -87v-96q0 -87 82 -87z" />
    <glyph glyph-name="OE" unicode="&#x152;" horiz-adv-x="951" 
d="M924 570h-303v-155h263v-140h-263v-135h303v-140h-458v5q-60 -20 -134 -20q-134 0 -213 62q-78 61 -78 165v286q0 105 77.5 166t212.5 61q73 0 135 -20v5h458v-140zM331 125q135 0 135 94v272q0 94 -134 94q-136 0 -136 -94v-272q0 -94 135 -94z" />
    <glyph glyph-name="oe" unicode="&#x153;" horiz-adv-x="838" 
d="M578 525q99 0 161 -55q63 -55 63 -140v-119h-300v-5q0 -6 -2 -32q14 -69 80 -69q27 0 49 13.5t22 33.5v10h150q0 -81 -61.5 -129t-161.5 -48q-91 0 -152 47q-62 -47 -157 -47q-108 0 -170.5 59.5t-62.5 161.5v98q0 102 62 161.5t170 59.5q98 0 157 -46q58 46 153 46z
M502 318h147v12q0 75 -70 75q-69 0 -79 -67q2 -8 2 -20zM268 120q70 0 81 59q-1 7 -1 30v95q0 22 1 28q-12 58 -80 58q-83 0 -83 -87v-96q0 -87 82 -87z" />
    <glyph glyph-name="Racute" unicode="&#x154;" horiz-adv-x="620" 
d="M350 910h187l-142 -155h-160zM591 0h-161l-100 256h-125v-256h-155v710h299q104 0 169 -56q64 -55 64 -149v-44q0 -120 -100 -174zM360 570h-155v-174h154q32 0 50 15t18 43v58q0 27 -18 42.5t-49 15.5z" />
    <glyph glyph-name="racute" unicode="&#x155;" horiz-adv-x="376" 
d="M216 734h169l-130 -179h-142zM152 510l29 -41q61 52 148 52q19 0 24 -1v-130q-32 9 -52 9q-44 0 -71 -26.5t-27 -75.5v-297h-150v510h99z" />
    <glyph glyph-name="uni0156" unicode="&#x156;" horiz-adv-x="620" 
d="M482 287l109 -287h-161l-100 256h-125v-256h-155v710h299q104 0 169 -56q64 -55 64 -149v-44q0 -120 -100 -174zM360 570h-155v-174h154q32 0 50 15t18 43v58q0 27 -18 42.5t-49 15.5zM288 -163h-45v117h141v-113l-71 -102h-66z" />
    <glyph glyph-name="uni0157" unicode="&#x157;" horiz-adv-x="376" 
d="M329 521q19 0 24 -1v-130q-32 9 -52 9q-44 0 -71 -26.5t-27 -75.5v-297h-150v510h99l29 -41q61 52 148 52zM193 -163h-45v117h141v-113l-71 -102h-66z" />
    <glyph glyph-name="Rcaron" unicode="&#x158;" horiz-adv-x="620" 
d="M528 882l-141 -127h-149l-141 127h169l47 -43l46 43h169zM591 0h-161l-100 256h-125v-256h-155v710h299q104 0 169 -56q64 -55 64 -149v-44q0 -120 -100 -174zM360 570h-155v-174h154q32 0 50 15t18 43v58q0 27 -18 42.5t-49 15.5z" />
    <glyph glyph-name="rcaron" unicode="&#x159;" horiz-adv-x="376" 
d="M382 712l-131 -157h-131l-131 157h150l47 -64l46 64h150zM152 510l29 -41q61 52 148 52q19 0 24 -1v-130q-32 9 -52 9q-44 0 -71 -26.5t-27 -75.5v-297h-150v510h99z" />
    <glyph glyph-name="Sacute" unicode="&#x15a;" horiz-adv-x="624" 
d="M350 910h187l-142 -155h-160zM318 -15q-131 0 -208 65t-77 170v25h155v-35q0 -38 39 -62.5t95 -24.5q47 0 80 21.5t33 58.5q0 20 -9.5 34t-32 25t-40.5 17.5t-55 16.5t-56 16q-42 12 -72.5 26t-60.5 36.5t-45.5 57t-15.5 80.5q0 96 68 154.5t195 58.5q129 0 198.5 -58
t69.5 -158v-33h-155v37q0 32 -33 52t-82 20q-47 0 -76 -18.5t-29 -50.5q0 -16 10 -27.5t31 -20.5t41.5 -15t54.5 -15.5t57 -17.5q88 -28 140.5 -76t52.5 -134q0 -99 -72 -162t-201 -63z" />
    <glyph glyph-name="sacute" unicode="&#x15b;" horiz-adv-x="473" 
d="M266 734h169l-130 -179h-142zM238 -15q-96 0 -154 49q-59 48 -59 124v12h149v-12q0 -21 19.5 -33t50.5 -12q27 0 43.5 9t16.5 25q0 30 -70 44q-93 22 -124 38q-77 40 -78 123q0 77 58 125q57 48 148 48q90 0 148 -47q57 -48 57 -121v-10h-148v10q0 18 -16.5 29t-41.5 11
q-26 0 -41.5 -10t-15.5 -25q0 -16 24.5 -26t75 -22t77.5 -21q43 -16 69.5 -51t26.5 -86q0 -82 -62 -126q-63 -45 -153 -45z" />
    <glyph glyph-name="Scedilla" unicode="&#x15e;" horiz-adv-x="624" 
d="M591 210q0 -90 -59 -150t-165 -72l-29 -149h-162l60 154q-96 19 -149.5 79.5t-53.5 147.5v25h155v-35q0 -38 39 -62.5t95 -24.5q47 0 80 21.5t33 58.5q0 20 -9.5 34t-32 25t-40.5 17.5t-55 16.5t-56 16q-42 12 -72.5 26t-60.5 36.5t-45.5 57t-15.5 80.5q0 96 68 154.5
t195 58.5q129 0 198.5 -58t69.5 -158v-33h-155v37q0 32 -33 52t-82 20q-47 0 -76 -18.5t-29 -50.5q0 -16 10 -27.5t31 -20.5t41.5 -15t54.5 -15.5t57 -17.5q88 -28 140.5 -76t52.5 -134z" />
    <glyph glyph-name="scedilla" unicode="&#x15f;" horiz-adv-x="473" 
d="M453 156q0 -68 -44.5 -111.5t-118.5 -55.5l-29 -150h-162l61 156q-63 18 -99 61.5t-36 101.5v12h149v-12q0 -21 19.5 -33t50.5 -12q27 0 43.5 9t16.5 25q0 30 -70 44q-93 22 -124 38q-77 40 -78 123q0 77 58 125q57 48 148 48q90 0 148 -47q57 -48 57 -121v-10h-148v10
q0 18 -16.5 29t-41.5 11q-26 0 -41.5 -10t-15.5 -25q0 -16 24.5 -26t75 -22t77.5 -21q43 -16 69.5 -51t26.5 -86z" />
    <glyph glyph-name="Scaron" unicode="&#x160;" horiz-adv-x="624" 
d="M528 882l-141 -127h-149l-141 127h169l47 -43l46 43h169zM204 516q0 -16 10 -27.5t31 -20.5t41.5 -15t54.5 -15.5t57 -17.5q88 -28 140.5 -76t52.5 -134q0 -99 -72 -162t-201 -63q-131 0 -208 65t-77 170v25h155v-35q0 -38 39 -62.5t95 -24.5q47 0 80 21.5t33 58.5
q0 20 -9.5 34t-32 25t-40.5 17.5t-55 16.5t-56 16q-42 12 -72.5 26t-60.5 36.5t-45.5 57t-15.5 80.5q0 96 68 154.5t195 58.5q129 0 198.5 -58t69.5 -158v-33h-155v37q0 32 -33 52t-82 20q-47 0 -76 -18.5t-29 -50.5z" />
    <glyph glyph-name="scaron" unicode="&#x161;" horiz-adv-x="473" 
d="M432 712l-131 -157h-131l-131 157h150l47 -64l46 64h150zM180 362q0 -16 24.5 -26t75 -22t77.5 -21q43 -16 69.5 -51t26.5 -86q0 -82 -62 -126q-63 -45 -153 -45q-96 0 -154 49q-59 48 -59 124v12h149v-12q0 -21 19.5 -33t50.5 -12q27 0 43.5 9t16.5 25q0 30 -70 44
q-93 22 -124 38q-77 40 -78 123q0 77 58 125q57 48 148 48q90 0 148 -47q57 -48 57 -121v-10h-148v10q0 18 -16.5 29t-41.5 11q-26 0 -41.5 -10t-15.5 -25z" />
    <glyph glyph-name="uni0162" unicode="&#x162;" horiz-adv-x="551" 
d="M8 710h535v-140h-189v-570h-11l-31 -161h-162l62 161h-13v570h-191v140z" />
    <glyph glyph-name="uni0163" unicode="&#x163;" horiz-adv-x="366" 
d="M297 135h49v-135h-75l-31 -161h-162l73 187q-79 49 -79 177v172h-68v135h68v143h150v-143h117v-135h-117v-145q0 -95 75 -95z" />
    <glyph glyph-name="Tcaron" unicode="&#x164;" horiz-adv-x="551" 
d="M491 882l-141 -127h-149l-141 127h169l47 -43l46 43h169zM8 710h535v-140h-189v-570h-155v570h-191v140z" />
    <glyph glyph-name="tcaron" unicode="&#x165;" horiz-adv-x="467" 
d="M255 555l29 215h143l-38 -215h-134zM222 375v-145q0 -95 75 -95h49v-135h-84q-190 0 -190 203v172h-68v135h68v143h150v-143h117v-135h-117z" />
    <glyph glyph-name="Tbar" unicode="&#x166;" horiz-adv-x="551" 
d="M543 710v-140h-189v-154h110v-122h-110v-294h-155v294h-112v122h112v154h-191v140h535z" />
    <glyph glyph-name="tbar" unicode="&#x167;" horiz-adv-x="366" 
d="M297 135h49v-135h-84q-190 0 -190 203v7h-66v122h66v43h-68v135h68v143h150v-143h117v-135h-117v-43h117v-122h-116q7 -75 74 -75z" />
    <glyph glyph-name="Umacron" unicode="&#x16a;" horiz-adv-x="644" 
d="M147 898h349v-122h-349v122zM323 -15q-129 0 -206 62q-76 61 -76 165v498h155v-491q0 -44 33 -69t93 -25t92.5 25t32.5 69v491h155v-498q0 -104 -75 -165q-76 -62 -204 -62z" />
    <glyph glyph-name="umacron" unicode="&#x16b;" horiz-adv-x="547" 
d="M99 698h349v-122h-349v122zM344 202v308h150v-510h-95l-26 34q-52 -49 -135 -49q-91 0 -140.5 57t-49.5 172v296h150v-299q0 -44 19.5 -67t53.5 -23q31 0 52 22t21 59z" />
    <glyph glyph-name="Uring" unicode="&#x16e;" horiz-adv-x="644" 
d="M226 967q38 35 96 35q59 0 97 -35q37 -34 37 -91t-37 -91q-38 -35 -97 -35q-58 0 -96 35q-37 34 -37 91q0 55 37 91zM353 902q-19 16 -47.5 7t-25.5 -33q0 -16 11.5 -26t30.5 -10q29 0 40 23t-9 39zM323 -15q-129 0 -206 62q-76 61 -76 165v498h155v-491q0 -44 33 -69
t93 -25t92.5 25t32.5 69v491h155v-498q0 -104 -75 -165q-76 -62 -204 -62z" />
    <glyph glyph-name="uring" unicode="&#x16f;" horiz-adv-x="547" 
d="M371 585q-38 -35 -97 -35q-58 0 -96 35q-37 34 -37 91q0 55 37 90.5t96 35.5t97 -35q37 -34 37 -91t-37 -91zM305 702q-19 16 -47.5 7t-25.5 -33q0 -16 11.5 -26t30.5 -10q29 0 40 23t-9 39zM344 202v308h150v-510h-95l-26 34q-52 -49 -135 -49q-91 0 -140.5 57
t-49.5 172v296h150v-299q0 -44 19.5 -67t53.5 -23q31 0 52 22t21 59z" />
    <glyph glyph-name="Uhungarumlaut" unicode="&#x170;" horiz-adv-x="644" 
d="M243 886h139l-95 -131h-131zM455 886h139l-95 -131h-131zM323 -15q-129 0 -206 62q-76 61 -76 165v498h155v-491q0 -44 33 -69t93 -25t92.5 25t32.5 69v491h155v-498q0 -104 -75 -165q-76 -62 -204 -62z" />
    <glyph glyph-name="uhungarumlaut" unicode="&#x171;" horiz-adv-x="547" 
d="M173 689h134l-72 -134h-125zM383 689h134l-72 -134h-125zM344 202v308h150v-510h-95l-26 34q-52 -49 -135 -49q-91 0 -140.5 57t-49.5 172v296h150v-299q0 -44 19.5 -67t53.5 -23q31 0 52 22t21 59z" />
    <glyph glyph-name="Uogonek" unicode="&#x172;" horiz-adv-x="644" 
d="M447 219v491h155v-498q0 -111 -83 -171l3 -2q-36 -29 -57.5 -63t-21.5 -59q0 -40 51 -40q18 0 23 1v-99q-32 -7 -68 -7q-80 0 -115 24.5t-35 86.5q0 41 51 103q-6 -1 -27 -1q-129 0 -206 62q-76 61 -76 165v498h155v-491q0 -44 33 -69t93 -25t92.5 25t32.5 69z" />
    <glyph glyph-name="uogonek" unicode="&#x173;" horiz-adv-x="547" 
d="M494 510v-510q-32 -17 -50 -40t-18 -45q0 -38 41 -38q17 0 22 1v-99q-32 -7 -67 -7q-80 0 -115 24.5t-35 86.5q0 77 113 136l-14 18q-58 -52 -133 -52q-87 0 -138.5 58.5t-51.5 170.5v296h150v-299q0 -44 19.5 -67t53.5 -23q31 0 52 22t21 59v308h150z" />
    <glyph glyph-name="Wcircumflex" unicode="&#x174;" horiz-adv-x="946" 
d="M522 756l-47 43l-46 -43h-169l141 127h149l141 -127h-169zM661 170l109 541h162l-164 -710h-203l-92 410l-92 -410h-204l-163 710h163l109 -539l115 539h138z" />
    <glyph glyph-name="wcircumflex" unicode="&#x175;" horiz-adv-x="701" 
d="M400 555l-47 64l-46 -64h-150l131 157h131l131 -157h-150zM483 153l59 357h152l-119 -510h-153l-71 224l-71 -224h-154l-119 510h152l60 -357l73 357h117z" />
    <glyph glyph-name="Ycircumflex" unicode="&#x176;" horiz-adv-x="629" 
d="M364 756l-47 43l-46 -43h-169l141 127h149l141 -127h-169zM448 710h167l-223 -472v-238h-155v236l-223 474h169l133 -291z" />
    <glyph glyph-name="ycircumflex" unicode="&#x177;" horiz-adv-x="548" 
d="M323 555l-47 64l-46 -64h-150l131 157h131l131 -157h-150zM345 202v308h150v-558q0 -89 -58.5 -143t-165.5 -54t-165 53q-57 54 -57 132h150q0 -23 19.5 -36.5t49.5 -13.5q34 0 55.5 16.5t21.5 47.5v58q-47 -27 -106 -27q-91 0 -140.5 57t-49.5 172v296h150v-299
q0 -44 19.5 -67t53.5 -23q31 0 52 22t21 59z" />
    <glyph glyph-name="Ydieresis" unicode="&#x178;" horiz-adv-x="629" 
d="M143 897h136v-133h-136v133zM350 897h136v-133h-136v133zM448 710h167l-223 -472v-238h-155v236l-223 474h169l133 -291z" />
    <glyph glyph-name="Zacute" unicode="&#x179;" horiz-adv-x="553" 
d="M314 910h187l-142 -155h-160zM529 562l-325 -422h331v-140h-516v148l325 422h-307v140h492v-148z" />
    <glyph glyph-name="zacute" unicode="&#x17a;" horiz-adv-x="473" 
d="M267 734h169l-130 -179h-142zM41 510h407v-110l-218 -265h218v-135h-423v109l219 266h-203v135z" />
    <glyph glyph-name="Zdotaccent" unicode="&#x17b;" horiz-adv-x="553" 
d="M202 910h150v-146h-150v146zM529 562l-325 -422h331v-140h-516v148l325 422h-307v140h492v-148z" />
    <glyph glyph-name="zdotaccent" unicode="&#x17c;" horiz-adv-x="473" 
d="M162 710h150v-146h-150v146zM41 510h407v-110l-218 -265h218v-135h-423v109l219 266h-203v135z" />
    <glyph glyph-name="Zcaron" unicode="&#x17d;" horiz-adv-x="553" 
d="M492 882l-141 -127h-149l-141 127h169l47 -43l46 43h169zM529 562l-325 -422h331v-140h-516v148l325 422h-307v140h492v-148z" />
    <glyph glyph-name="zcaron" unicode="&#x17e;" horiz-adv-x="473" 
d="M433 712l-131 -157h-131l-131 157h150l47 -64l46 64h150zM41 510h407v-110l-218 -265h218v-135h-423v109l219 266h-203v135z" />
    <glyph glyph-name="uni01CD" unicode="&#x1cd;" horiz-adv-x="645" 
d="M538 882l-141 -127h-149l-141 127h169l47 -43l46 43h169zM631 0h-153l-37 125h-238l-37 -125h-152l198 710h221zM243 265h158l-79 283z" />
    <glyph glyph-name="uni01CE" unicode="&#x1ce;" horiz-adv-x="557" 
d="M470 712l-131 -157h-131l-131 157h150l47 -64l46 64h150zM382 476l24 34h99v-510h-99l-24 34q-55 -49 -147 -49q-199 0 -199 216v108q0 216 199 216q92 0 147 -49zM208 143q22 -22 61 -22t63 21q23 21 23 60v106q0 38 -23 59.5t-63 21.5q-39 0 -61 -21.5t-22 -62.5v-100
q0 -41 22 -62z" />
    <glyph glyph-name="uni01CF" unicode="&#x1cf;" horiz-adv-x="255" 
d="M343 882l-141 -127h-149l-141 127h169l47 -43l46 43h169zM205 0h-155v710h155v-710z" />
    <glyph glyph-name="uni01D0" unicode="&#x1d0;" horiz-adv-x="259" 
d="M325 712l-131 -157h-131l-131 157h150l47 -64l46 64h150zM204 0h-150v510h150v-510z" />
    <glyph glyph-name="uni01D1" unicode="&#x1d1;" horiz-adv-x="662" 
d="M546 882l-141 -127h-149l-141 127h169l47 -43l46 43h169zM119 664q76 61 212 61t213 -61q77 -62 77 -166v-286q0 -105 -77.5 -166t-211.5 -61t-213 62q-78 61 -78 165v286q0 104 78 166zM466 219v272q0 94 -134 94q-136 0 -136 -94v-272q0 -94 135 -94t135 94z" />
    <glyph glyph-name="uni01D2" unicode="&#x1d2;" horiz-adv-x="538" 
d="M465 712l-131 -157h-131l-131 157h150l47 -64l46 64h150zM268 525q110 0 172 -59t62 -162v-98q0 -102 -62.5 -161.5t-170.5 -59.5t-170.5 59.5t-62.5 161.5v98q0 102 62 161.5t170 59.5zM352 207v96q0 87 -83 87t-83 -87v-96q0 -87 82 -87q84 0 84 87z" />
    <glyph glyph-name="uni01D3" unicode="&#x1d3;" horiz-adv-x="644" 
d="M537 882l-141 -127h-149l-141 127h169l47 -43l46 43h169zM447 219v491h155v-498q0 -104 -75 -165q-76 -62 -204 -62q-129 0 -206 62q-76 61 -76 165v498h155v-491q0 -44 33 -69t93 -25t92.5 25t32.5 69z" />
    <glyph glyph-name="uni01D4" unicode="&#x1d4;" horiz-adv-x="547" 
d="M470 712l-131 -157h-131l-131 157h150l47 -64l46 64h150zM344 202v308h150v-510h-95l-26 34q-52 -49 -135 -49q-91 0 -140.5 57t-49.5 172v296h150v-299q0 -44 19.5 -67t53.5 -23q31 0 52 22t21 59z" />
    <glyph glyph-name="uni0218" unicode="&#x218;" horiz-adv-x="624" 
d="M204 516q0 -16 10 -27.5t31 -20.5t41.5 -15t54.5 -15.5t57 -17.5q88 -28 140.5 -76t52.5 -134q0 -99 -72 -162t-201 -63q-131 0 -208 65t-77 170v25h155v-35q0 -38 39 -62.5t95 -24.5q47 0 80 21.5t33 58.5q0 20 -9.5 34t-32 25t-40.5 17.5t-55 16.5t-56 16
q-42 12 -72.5 26t-60.5 36.5t-45.5 57t-15.5 80.5q0 96 68 154.5t195 58.5q129 0 198.5 -58t69.5 -158v-33h-155v37q0 32 -33 52t-82 20q-47 0 -76 -18.5t-29 -50.5zM288 -163h-45v117h141v-113l-71 -102h-66z" />
    <glyph glyph-name="uni0219" unicode="&#x219;" horiz-adv-x="473" 
d="M180 362q0 -16 24.5 -26t75 -22t77.5 -21q43 -16 69.5 -51t26.5 -86q0 -82 -62 -126q-63 -45 -153 -45q-96 0 -154 49q-59 48 -59 124v12h149v-12q0 -21 19.5 -33t50.5 -12q27 0 43.5 9t16.5 25q0 30 -70 44q-93 22 -124 38q-77 40 -78 123q0 77 58 125q57 48 148 48
q90 0 148 -47q57 -48 57 -121v-10h-148v10q0 18 -16.5 29t-41.5 11q-26 0 -41.5 -10t-15.5 -25zM211 -163h-45v117h141v-113l-71 -102h-66z" />
    <glyph glyph-name="uni021A" unicode="&#x21a;" horiz-adv-x="551" 
d="M8 710h535v-140h-189v-570h-155v570h-191v140zM249 -163h-45v117h141v-113l-71 -102h-66z" />
    <glyph glyph-name="uni021B" unicode="&#x21b;" horiz-adv-x="366" 
d="M297 135h49v-135h-84q-190 0 -190 203v172h-68v135h68v143h150v-143h117v-135h-117v-145q0 -95 75 -95zM190 -163h-45v117h141v-113l-71 -102h-66z" />
    <glyph glyph-name="uni0237" unicode="&#x237;" horiz-adv-x="274" 
d="M34 -230h-65v135h22q48 0 63 21t15 73v511h150v-550q0 -100 -53 -145q-52 -45 -132 -45z" />
    <glyph glyph-name="circumflex" unicode="&#x2c6;" horiz-adv-x="447" 
d="M289 712l131 -157h-150l-47 64l-46 -64h-150l131 157h131z" />
    <glyph glyph-name="caron" unicode="&#x2c7;" horiz-adv-x="447" 
d="M221 648l46 64h150l-131 -157h-131l-131 157h150z" />
    <glyph glyph-name="breve" unicode="&#x2d8;" horiz-adv-x="381" 
d="M308 593q-46 -43 -119 -43q-74 0 -118 43q-46 42 -46 109h93q0 -29 19 -45.5t52 -16.5t52 16.5t19 45.5h93q0 -67 -45 -109z" />
    <glyph glyph-name="dotaccent" unicode="&#x2d9;" horiz-adv-x="204" 
d="M175 564h-150v146h150v-146z" />
    <glyph glyph-name="ring" unicode="&#x2da;" horiz-adv-x="334" 
d="M68 767q38 35 96 35q59 0 97 -35q37 -34 37 -91t-37 -91q-38 -35 -97 -35q-58 0 -96 35q-37 34 -37 91q0 55 37 91zM195 702q-19 16 -47.5 7t-25.5 -33q0 -16 11.5 -26t30.5 -10q29 0 40 23t-9 39z" />
    <glyph glyph-name="ogonek" unicode="&#x2db;" horiz-adv-x="215" 
d="M202 -122v-99q-32 -7 -67 -7q-80 0 -115.5 24.5t-35.5 86.5q0 44 36.5 85.5t107.5 71.5l79 -40q-32 -17 -50 -40t-18 -45q0 -38 41 -38q17 0 22 1z" />
    <glyph glyph-name="tilde" unicode="&#x2dc;" horiz-adv-x="389" 
d="M292 705h107q0 -80 -25.5 -115t-79.5 -35q-37 0 -78 22q-42 21 -55 21q-29 0 -29 -43h-107q0 76 23.5 113t80.5 37q33 0 77 -21q43 -21 56 -21q30 0 30 42z" />
    <glyph glyph-name="hungarumlaut" unicode="&#x2dd;" horiz-adv-x="435" 
d="M94 689h134l-72 -134h-125zM304 689h134l-72 -134h-125z" />
    <glyph glyph-name="gravecomb" unicode="&#x300;" horiz-adv-x="0" 
d="M-170 555l-130 179h170l102 -179h-142z" />
    <glyph glyph-name="acutecomb" unicode="&#x301;" horiz-adv-x="0" 
d="M-197 734h169l-130 -179h-142z" />
    <glyph glyph-name="uni0302" unicode="&#x302;" horiz-adv-x="0" 
d="M-173 712l131 -157h-150l-47 64l-46 -64h-150l131 157h131z" />
    <glyph glyph-name="tildecomb" unicode="&#x303;" horiz-adv-x="0" 
d="M-133 705h107q0 -80 -25.5 -115t-79.5 -35q-37 0 -78 22q-42 21 -55 21q-29 0 -29 -43h-107q0 76 23.5 113t80.5 37q34 0 77 -21t56 -21q30 0 30 42z" />
    <glyph glyph-name="uni0304" unicode="&#x304;" horiz-adv-x="0" 
d="M-376 698h349v-122h-349v122z" />
    <glyph glyph-name="uni0306" unicode="&#x306;" horiz-adv-x="0" 
d="M-85 593q-44 -43 -118 -43q-73 0 -119 43q-45 42 -45 109h93q0 -29 19 -45.5t52 -16.5t52 16.5t19 45.5h93q0 -67 -46 -109z" />
    <glyph glyph-name="uni0307" unicode="&#x307;" horiz-adv-x="0" 
d="M-35 564h-150v146h150v-146z" />
    <glyph glyph-name="uni0308" unicode="&#x308;" horiz-adv-x="0" 
d="M-234 564h-136v133h136v-133zM-27 564h-136v133h136v-133z" />
    <glyph glyph-name="uni030A" unicode="&#x30a;" horiz-adv-x="0" 
d="M-264 767q38 35 96 35t96 -35t38 -91t-38 -91t-96 -35t-96 35q-37 34 -37 91q0 55 37 91zM-137 702q-19 16 -47.5 7t-25.5 -33q0 -16 11.5 -26t30.5 -10q29 0 40 23t-9 39z" />
    <glyph glyph-name="uni030B" unicode="&#x30b;" horiz-adv-x="0" 
d="M-354 689h134l-72 -134h-125zM-144 689h134l-72 -134h-125z" />
    <glyph glyph-name="uni030C" unicode="&#x30c;" horiz-adv-x="0" 
d="M-241 648l46 64h150l-131 -157h-131l-131 157h150z" />
    <glyph glyph-name="uni0326" unicode="&#x326;" horiz-adv-x="0" 
d="M-189 -163v117h141v-113l-71 -102h-66l41 98h-45z" />
    <glyph glyph-name="uni0327" unicode="&#x327;" horiz-adv-x="0" 
d="M-97 -161h-162l74 191h125z" />
    <glyph glyph-name="uni0328" unicode="&#x328;" horiz-adv-x="0" 
d="M-84 -122v-99q-32 -7 -67 -7q-80 0 -115.5 24.5t-35.5 86.5q0 44 36.5 85.5t107.5 71.5l79 -40q-32 -17 -50 -40t-18 -45q0 -38 41 -38q17 0 22 1z" />
    <glyph glyph-name="uni0338" unicode="&#x338;" horiz-adv-x="0" 
d="M-95 607l-293 -615l-127 63l292 615z" />
    <glyph glyph-name="uni0394" unicode="&#x394;" horiz-adv-x="620" 
d="M198 710h224l171 -570v-140h-566v140zM437 140l-127 409l-126 -409h253z" />
    <glyph glyph-name="uni03A9" unicode="&#x3a9;" horiz-adv-x="677" 
d="M594 140h50v-140h-273v140q92 20 92 97v254q0 94 -122 94q-127 0 -127 -94v-254q0 -77 92 -97v-140h-273v140h50q-24 38 -24 87v271q0 105 75.5 166t206.5 61q129 0 203 -61t74 -166v-271q0 -49 -24 -87z" />
    <glyph glyph-name="uni03BC" unicode="&#x3bc;" horiz-adv-x="554" 
d="M532 123q10 0 20 3v-136q-27 -5 -53 -5q-81 0 -120 55q-54 -55 -141 -55q-20 0 -40 3v-218h-150v740h150v-299q0 -44 19.5 -67t53.5 -23q31 0 52 22t21 59v308h150v-312q0 -41 8.5 -58t29.5 -17z" />
    <glyph glyph-name="pi" unicode="&#x3c0;" horiz-adv-x="574" 
d="M550 510v-135h-58v-177q0 -42 8 -58.5t29 -16.5q9 0 20 3v-136q-27 -5 -52 -5q-155 0 -155 196v194h-120v-375h-150v375h-48v135h526z" />
    <glyph glyph-name="uni0401" unicode="&#x401;" horiz-adv-x="535" 
d="M95 897h136v-133h-136v133zM302 897h136v-133h-136v133zM508 710v-140h-303v-155h263v-140h-263v-135h303v-140h-458v710h458z" />
    <glyph glyph-name="uni0402" unicode="&#x402;" horiz-adv-x="710" 
d="M431 500q112 0 176.5 -62.5t64.5 -170.5v-44q0 -100 -70 -161q-71 -62 -183 -62h-52v140h58q41 0 66.5 23.5t25.5 60.5v42q0 94 -105 94q-54 0 -82.5 -25.5t-28.5 -74.5v-260h-155v570h-133v140h470v-140h-182v-98q52 28 130 28z" />
    <glyph glyph-name="uni0403" unicode="&#x403;" horiz-adv-x="527" 
d="M299 910h187l-142 -155h-160zM50 710h465v-140h-310v-570h-155v710z" />
    <glyph glyph-name="uni0404" unicode="&#x404;" horiz-adv-x="656" 
d="M614 498v-64h-161v57q0 45 -32 69.5t-92 24.5q-63 0 -98 -25t-35 -69v-62h182v-140h-182v-70q0 -45 34.5 -69.5t97.5 -24.5q60 0 92.5 25t32.5 69v57h161v-64q0 -104 -76 -165q-77 -62 -209 -62q-133 0 -210 62q-78 61 -78 165v286q0 104 77 166q76 61 210 61
q132 0 209 -61t77 -166z" />
    <glyph glyph-name="uni0405" unicode="&#x405;" horiz-adv-x="624" 
d="M318 -15q-131 0 -208 65t-77 170v25h155v-35q0 -38 39 -62.5t95 -24.5q47 0 80 21.5t33 58.5q0 20 -9.5 34t-32 25t-40.5 17.5t-55 16.5t-56 16q-42 12 -72.5 26t-60.5 36.5t-45.5 57t-15.5 80.5q0 96 68 154.5t195 58.5q129 0 198.5 -58t69.5 -158v-33h-155v37
q0 32 -33 52t-82 20q-47 0 -76 -18.5t-29 -50.5q0 -16 10 -27.5t31 -20.5t41.5 -15t54.5 -15.5t57 -17.5q88 -28 140.5 -76t52.5 -134q0 -99 -72 -162t-201 -63z" />
    <glyph glyph-name="uni0406" unicode="&#x406;" horiz-adv-x="255" 
d="M205 0h-155v710h155v-710z" />
    <glyph glyph-name="uni0407" unicode="&#x407;" horiz-adv-x="255" 
d="M92 764h-136v133h136v-133zM299 764h-136v133h136v-133zM205 0h-155v710h155v-710z" />
    <glyph glyph-name="uni0408" unicode="&#x408;" horiz-adv-x="382" 
d="M75 0h-57v140h66q93 0 93 117v453h155v-453q0 -113 -69 -185q-71 -72 -188 -72z" />
    <glyph glyph-name="uni0409" unicode="&#x409;" horiz-adv-x="1035" 
d="M631 466h146q104 0 168 -56q63 -57 63 -151v-52q0 -95 -63 -150q-65 -57 -169 -57h-300v570h-161l-32 -313q-12 -121 -79 -189t-177 -68h-12v140h20q42 0 64 28t28 89l46 453h458v-244zM853 200v66q0 28 -18 44t-49 16h-155v-186h156q31 0 48.5 16t17.5 44z" />
    <glyph glyph-name="uni040A" unicode="&#x40a;" horiz-adv-x="1014" 
d="M610 466h145q104 0 169 -56q63 -57 63 -151v-52q0 -95 -64 -150q-65 -57 -169 -57h-299v275h-250v-275h-155v710h155v-295h250v295h155v-244zM832 200v66q0 28 -18.5 44t-49.5 16h-154v-186h155q31 0 49 16t18 44z" />
    <glyph glyph-name="uni040B" unicode="&#x40b;" horiz-adv-x="710" 
d="M407 499h60q99 0 152 -53.5t53 -153.5v-292h-155v282q0 37 -19 57t-55 20h-62q-38 0 -59 -20t-21 -56v-283h-155v570h-133v140h470v-140h-182v-93q45 22 106 22z" />
    <glyph glyph-name="uni040C" unicode="&#x40c;" horiz-adv-x="662" 
d="M368 910h187l-142 -155h-160zM379 364l265 -364h-191l-248 336v-336h-155v710h155v-317l239 317h194z" />
    <glyph glyph-name="uni040E" unicode="&#x40e;" horiz-adv-x="635" 
d="M441 793q-46 -43 -119 -43q-74 0 -118 43q-46 42 -46 109h93q0 -29 19 -45.5t52 -16.5t52 16.5t19 45.5h93q0 -67 -45 -109zM319 414l135 296h168l-336 -710h-167l115 244l-220 466h169z" />
    <glyph glyph-name="uni040F" unicode="&#x40f;" horiz-adv-x="660" 
d="M455 140v570h155v-710h-203v-135h-155v135h-202v710h155v-570h250z" />
    <glyph glyph-name="uni0410" unicode="&#x410;" horiz-adv-x="645" 
d="M631 0h-153l-37 125h-238l-37 -125h-152l198 710h221zM243 265h158l-79 283z" />
    <glyph glyph-name="uni0411" unicode="&#x411;" horiz-adv-x="609" 
d="M205 464h145q104 0 169 -56q63 -57 63 -151v-50q0 -95 -64 -150q-64 -57 -169 -57h-299v710h481v-140h-326v-106zM427 200v64q0 28 -18.5 44t-49.5 16h-154v-184h155q31 0 49 16t18 44z" />
    <glyph glyph-name="uni0412" unicode="&#x412;" horiz-adv-x="614" 
d="M511 372q71 -53 71 -134v-41q0 -85 -59 -141q-61 -56 -152 -56h-321v710h303q91 0 152 -50q60 -50 60 -127v-51q0 -67 -54 -110zM357 575h-152v-148h151q22 0 38 15t16 38v50q0 19 -16 32t-37 13zM427 190v50q0 23 -14.5 38t-38.5 15h-169v-158h168q24 0 39 15.5t15 39.5
z" />
    <glyph glyph-name="uni0413" unicode="&#x413;" horiz-adv-x="527" 
d="M50 710h465v-140h-310v-570h-155v710z" />
    <glyph glyph-name="uni0414" unicode="&#x414;" horiz-adv-x="755" 
d="M646 710v-570h96v-275h-155v135h-419v-135h-155v275h36q42 0 64.5 28.5t28.5 88.5l46 453h458zM268 140h223v430h-161l-32 -313q-6 -61 -30 -117z" />
    <glyph glyph-name="uni0415" unicode="&#x415;" horiz-adv-x="535" 
d="M508 710v-140h-303v-155h263v-140h-263v-135h303v-140h-458v710h458z" />
    <glyph glyph-name="uni0416" unicode="&#x416;" horiz-adv-x="1070" 
d="M787 364l265 -364h-191l-248 336v-336h-155v336l-249 -336h-191l265 364l-258 346h193l240 -317v317h155v-317l239 317h193z" />
    <glyph glyph-name="uni0417" unicode="&#x417;" horiz-adv-x="628" 
d="M528 368q58 -52 58 -129v-47q0 -95 -73 -151t-199 -56q-124 0 -198 59q-75 58 -75 155v29h155v-36q0 -67 118 -67q117 0 117 60v54q0 56 -83 56h-126v135h113q83 0 83 54v42q0 59 -110 59q-102 0 -102 -66v-40h-155v32q0 98 70 156t186 58q124 0 195 -53.5t71 -148.5v-40
q0 -67 -45 -115z" />
    <glyph glyph-name="uni0418" unicode="&#x418;" horiz-adv-x="650" 
d="M194 264l262 446h144v-710h-144v447l-262 -447h-144v710h144v-446z" />
    <glyph glyph-name="uni0419" unicode="&#x419;" horiz-adv-x="650" 
d="M444 793q-46 -43 -119 -43q-74 0 -118 43q-46 42 -46 109h93q0 -29 19 -45.5t52 -16.5t52 16.5t19 45.5h93q0 -67 -45 -109zM194 264l262 446h144v-710h-144v447l-262 -447h-144v710h144v-446z" />
    <glyph glyph-name="uni041A" unicode="&#x41a;" horiz-adv-x="662" 
d="M379 364l265 -364h-191l-248 336v-336h-155v710h155v-317l239 317h194z" />
    <glyph glyph-name="uni041B" unicode="&#x41b;" horiz-adv-x="681" 
d="M173 710h458v-710h-155v570h-161l-33 -331q-13 -128 -63 -183.5t-152 -55.5h-52v140h20q42 0 64 28t28 89z" />
    <glyph glyph-name="uni041C" unicode="&#x41c;" horiz-adv-x="770" 
d="M527 710h193v-710h-140v469l-140 -469h-110l-140 469v-469h-140v710h194l141 -421z" />
    <glyph glyph-name="uni041D" unicode="&#x41d;" horiz-adv-x="660" 
d="M455 415v295h155v-710h-155v275h-250v-275h-155v710h155v-295h250z" />
    <glyph glyph-name="uni041E" unicode="&#x41e;" horiz-adv-x="662" 
d="M544 47q-77 -62 -212 -62q-134 0 -213 62q-78 61 -78 165v286q0 105 77.5 166t212.5 61t212.5 -61t77.5 -166v-286q0 -103 -77 -165zM331 125q135 0 135 94v272q0 94 -134 94q-136 0 -136 -94v-272q0 -94 135 -94z" />
    <glyph glyph-name="uni041F" unicode="&#x41f;" horiz-adv-x="660" 
d="M50 710h560v-710h-155v570h-250v-570h-155v710z" />
    <glyph glyph-name="uni0420" unicode="&#x420;" horiz-adv-x="609" 
d="M50 710h299q104 0 169 -56q64 -57 64 -151v-66q0 -95 -63 -150q-65 -57 -169 -57h-145v-230h-155v710zM427 430v80q0 28 -18 44t-49 16h-155v-200h154q31 0 49.5 16t18.5 44z" />
    <glyph glyph-name="uni0421" unicode="&#x421;" horiz-adv-x="656" 
d="M329 -15q-133 0 -210 62q-78 61 -78 165v286q0 104 77 166q76 61 210 61q132 0 209 -61t77 -166v-64h-161v57q0 45 -32 69.5t-92 24.5q-63 0 -98 -25t-35 -69v-272q0 -45 34.5 -69.5t97.5 -24.5q60 0 92.5 25t32.5 69v57h161v-64q0 -104 -76 -165q-77 -62 -209 -62z" />
    <glyph glyph-name="uni0422" unicode="&#x422;" horiz-adv-x="551" 
d="M8 710h535v-140h-189v-570h-155v570h-191v140z" />
    <glyph glyph-name="uni0423" unicode="&#x423;" horiz-adv-x="635" 
d="M319 414l135 296h168l-336 -710h-167l115 244l-220 466h169z" />
    <glyph glyph-name="uni0424" unicode="&#x424;" horiz-adv-x="876" 
d="M515 621h101q105 0 169 -57t64 -150v-81q0 -95 -63 -150q-64 -57 -169 -57h-102v-126h-155v126h-102q-105 0 -168 57q-63 55 -63 150v81q0 93 64 150q63 57 168 57h101v89h155v-89zM249 266h111v215h-112q-30 0 -48 -16.5t-18 -43.5v-95q0 -28 18 -44t49 -16zM694 326v95
q0 27 -18 43.5t-49 16.5h-112v-215h111q31 0 49.5 16t18.5 44z" />
    <glyph glyph-name="uni0425" unicode="&#x425;" horiz-adv-x="645" 
d="M458 710h174l-221 -361l211 -349h-180l-127 211l-128 -211h-170l208 360l-211 350h180l130 -215z" />
    <glyph glyph-name="uni0426" unicode="&#x426;" horiz-adv-x="719" 
d="M610 710v-570h96v-275h-155v135h-501v710h155v-570h250v570h155z" />
    <glyph glyph-name="uni0427" unicode="&#x427;" horiz-adv-x="614" 
d="M409 451v259h155v-710h-155v237q-55 -26 -126 -26q-117 0 -181 58.5t-64 166.5v274h155v-259q0 -100 109 -100q107 0 107 100z" />
    <glyph glyph-name="uni0428" unicode="&#x428;" horiz-adv-x="967" 
d="M763 140v570h155v-710h-868v710h155v-570h201v570h155v-570h202z" />
    <glyph glyph-name="uni0429" unicode="&#x429;" horiz-adv-x="1050" 
d="M918 710v-570h120v-275h-155v135h-833v710h155v-570h201v570h155v-570h202v570h155z" />
    <glyph glyph-name="uni042A" unicode="&#x42a;" horiz-adv-x="705" 
d="M301 466h146q103 0 168 -56q63 -57 63 -151v-52q0 -95 -64 -150q-64 -57 -168 -57h-300v570h-133v140h288v-244zM523 200v66q0 28 -18 44t-49 16h-155v-186h156q30 0 48 16t18 44z" />
    <glyph glyph-name="uni042B" unicode="&#x42b;" horiz-adv-x="859" 
d="M205 466h145q104 0 169 -56q63 -57 63 -151v-52q0 -95 -64 -150q-64 -57 -169 -57h-299v710h155v-244zM654 0v710h155v-710h-155zM427 200v66q0 28 -18.5 44t-49.5 16h-154v-186h155q31 0 49 16t18 44z" />
    <glyph glyph-name="uni042C" unicode="&#x42c;" horiz-adv-x="609" 
d="M205 466h145q104 0 169 -56q63 -57 63 -151v-52q0 -95 -64 -150q-64 -57 -169 -57h-299v710h155v-244zM427 200v66q0 28 -18.5 44t-49.5 16h-154v-186h155q31 0 49 16t18 44z" />
    <glyph glyph-name="uni042D" unicode="&#x42d;" horiz-adv-x="656" 
d="M118 664q76 61 210 61t210 -61t76 -166v-286q0 -103 -77 -165t-210 -62q-132 0 -209 61t-77 166v64h162v-57q0 -45 32.5 -69.5t92.5 -24.5q63 0 97 25t34 69v70h-181v140h181v62q0 45 -34.5 69.5t-97.5 24.5q-60 0 -92 -24.5t-32 -69.5v-57h-162v64q0 104 77 166z" />
    <glyph glyph-name="uni042E" unicode="&#x42e;" horiz-adv-x="967" 
d="M635 725q135 0 212.5 -61t77.5 -166v-286q0 -105 -77.5 -166t-211.5 -61q-135 0 -212.5 61t-77.5 166v63h-141v-275h-155v710h155v-295h141v83q0 105 77.5 166t211.5 61zM770 219v272q0 94 -134 94q-135 0 -135 -94v-272q0 -94 134 -94q135 0 135 94z" />
    <glyph glyph-name="uni042F" unicode="&#x42f;" horiz-adv-x="620" 
d="M270 710h300v-710h-155v256h-125l-100 -256h-161l108 286q-99 54 -99 175v44q0 95 64 150q62 55 168 55zM260 396h155v174h-156q-31 0 -48.5 -15t-17.5 -43v-58q0 -27 18 -42.5t49 -15.5z" />
    <glyph glyph-name="uni0430" unicode="&#x430;" horiz-adv-x="557" 
d="M382 476l24 34h99v-510h-99l-24 34q-55 -49 -147 -49q-199 0 -199 216v108q0 216 199 216q92 0 147 -49zM208 143q22 -22 61 -22t63 21q23 21 23 60v106q0 38 -23 59.5t-63 21.5q-39 0 -61 -21.5t-22 -62.5v-100q0 -41 22 -62z" />
    <glyph glyph-name="uni0431" unicode="&#x431;" horiz-adv-x="538" 
d="M296 525q102 0 154 -56.5t52 -164.5v-98q0 -103 -62 -162t-171 -59t-171 59t-62 162v294q0 96 48 146.5t151 62.5l49 7q56 8 56 54h150q0 -100 -39 -138q-41 -39 -157 -54l-43 -6q-37 -4 -51 -18t-14 -46v-10q46 27 110 27zM352 207v96q0 87 -83 87t-83 -87v-96
q0 -87 82 -87q84 0 84 87z" />
    <glyph glyph-name="uni0432" unicode="&#x432;" horiz-adv-x="534" 
d="M444 278q60 -32 60 -119v-4q0 -155 -172 -155h-279v510h257q89 0 130.5 -34t41.5 -107v-4q0 -54 -38 -87zM301 389h-98v-70h98q31 0 31 27v16q0 27 -31 27zM354 151v17q0 30 -31 30h-120v-77h120q31 0 31 30z" />
    <glyph glyph-name="uni0433" unicode="&#x433;" horiz-adv-x="427" 
d="M53 510h353v-135h-203v-375h-150v510z" />
    <glyph glyph-name="uni0434" unicode="&#x434;" horiz-adv-x="617" 
d="M534 510v-375h62v-270h-150v135h-275v-135h-150v270h16q67 0 74 95l29 280h394zM236 135h148v240h-109l-14 -137q-6 -67 -25 -103z" />
    <glyph glyph-name="uni0435" unicode="&#x435;" horiz-adv-x="526" 
d="M266 525q99 0 161 -55q63 -55 63 -140v-119h-304v-9q0 -47 22 -72t60 -25q27 0 49 13.5t22 33.5v10h150q0 -81 -61.5 -129t-161.5 -48q-107 0 -168.5 60.5t-61.5 163.5v95q0 102 61.5 161.5t168.5 59.5zM186 318h151v12q0 75 -70 75q-78 0 -81 -87z" />
    <glyph glyph-name="uni0436" unicode="&#x436;" horiz-adv-x="849" 
d="M656 269l191 -269h-177l-171 239v-239h-150v239l-170 -239h-177l191 269l-187 241h180l163 -211v211h150v-212l164 212h180z" />
    <glyph glyph-name="uni0437" unicode="&#x437;" horiz-adv-x="517" 
d="M425 268q56 -32 56 -109v-10q0 -78 -57.5 -121t-163.5 -43q-107 0 -165.5 44.5t-58.5 125.5v20h149v-25q0 -42 76 -42q70 0 70 41v13q0 19 -10.5 26.5t-36.5 7.5h-83v124h75q26 0 35.5 7t9.5 26v11q0 38 -65 38q-69 0 -69 -38v-22h-148v17q0 79 57 122.5t159 43.5
q100 0 158 -41.5t58 -112.5v-11q0 -58 -46 -92z" />
    <glyph glyph-name="uni0438" unicode="&#x438;" horiz-adv-x="569" 
d="M203 228l159 282h154v-510h-150v282l-159 -282h-154v510h150v-282z" />
    <glyph glyph-name="uni0439" unicode="&#x439;" horiz-adv-x="569" 
d="M404 593q-46 -43 -119 -43q-74 0 -118 43q-46 42 -46 109h93q0 -29 19 -45.5t52 -16.5t52 16.5t19 45.5h93q0 -67 -45 -109zM203 228l159 282h154v-510h-150v282l-159 -282h-154v510h150v-282z" />
    <glyph glyph-name="uni043A" unicode="&#x43a;" horiz-adv-x="552" 
d="M360 269l191 -269h-178l-170 239v-239h-150v510h150v-211l163 211h181z" />
    <glyph glyph-name="uni043B" unicode="&#x43b;" horiz-adv-x="581" 
d="M135 510h393v-510h-150v375h-108l-21 -201q-10 -97 -48.5 -135.5t-124.5 -38.5h-55v135h17q33 0 48 18.5t19 65.5z" />
    <glyph glyph-name="uni043C" unicode="&#x43c;" horiz-adv-x="696" 
d="M348 240l95 270h200v-510h-150v298l-105 -298h-80l-105 300v-300h-150v510h200z" />
    <glyph glyph-name="uni043D" unicode="&#x43d;" horiz-adv-x="567" 
d="M365 328v182h150v-510h-150v193h-162v-193h-150v510h150v-182h162z" />
    <glyph glyph-name="uni043E" unicode="&#x43e;" horiz-adv-x="538" 
d="M440 45q-62 -60 -171 -60t-171 60q-62 59 -62 161v98q0 102 62 161.5t170 59.5q110 0 172 -59t62 -162v-98q0 -102 -62 -161zM268 120q84 0 84 87v96q0 87 -83 87t-83 -87v-96q0 -87 82 -87z" />
    <glyph glyph-name="uni043F" unicode="&#x43f;" horiz-adv-x="567" 
d="M53 510h462v-510h-150v375h-162v-375h-150v510z" />
    <glyph glyph-name="uni0440" unicode="&#x440;" horiz-adv-x="557" 
d="M321 525q200 0 200 -216v-108q0 -216 -200 -216q-68 0 -118 29v-244h-150v740h99l24 -33q54 48 145 48zM371 205v100q0 41 -22 62.5t-61 21.5q-40 0 -62.5 -21t-22.5 -60v-106q0 -38 23 -59.5t62 -21.5t61 21.5t22 62.5z" />
    <glyph glyph-name="uni0441" unicode="&#x441;" horiz-adv-x="523" 
d="M265 -15q-107 0 -168 59.5t-61 161.5v98q0 102 61 161.5t167 59.5q101 0 162 -58t61 -154v-15h-151v19q0 34 -19.5 53.5t-51.5 19.5q-79 0 -79 -87v-96q0 -87 79 -87q32 0 51.5 19.5t19.5 53.5v19h151v-15q0 -95 -60 -154q-61 -58 -162 -58z" />
    <glyph glyph-name="uni0442" unicode="&#x442;" horiz-adv-x="484" 
d="M21 510h442v-135h-146v-375h-150v375h-146v135z" />
    <glyph glyph-name="uni0443" unicode="&#x443;" horiz-adv-x="548" 
d="M345 202v308h150v-558q0 -89 -58.5 -143t-165.5 -54t-165 53q-57 54 -57 132h150q0 -23 19.5 -36.5t49.5 -13.5q34 0 55.5 16.5t21.5 47.5v58q-47 -27 -106 -27q-91 0 -140.5 57t-49.5 172v296h150v-299q0 -44 19.5 -67t53.5 -23q31 0 52 22t21 59z" />
    <glyph glyph-name="uni0444" unicode="&#x444;" horiz-adv-x="859" 
d="M622 525q201 0 201 -216v-108q0 -216 -201 -216q-68 0 -117 28v-243h-150v244q-50 -29 -118 -29q-201 0 -201 216v108q0 216 201 216q68 0 118 -29v214h150v-213q49 28 117 28zM208 143q22 -22 61 -22t63 21q23 21 23 60v106q0 38 -23 59.5t-63 21.5q-39 0 -61 -21.5
t-22 -62.5v-100q0 -41 22 -62zM673 205v100q0 41 -22 62.5t-61 21.5q-40 0 -62.5 -21t-22.5 -60v-106q0 -39 23 -60t62 -21t61 21.5t22 62.5z" />
    <glyph glyph-name="uni0445" unicode="&#x445;" horiz-adv-x="519" 
d="M347 510h165l-171 -252l168 -258h-171l-85 132l-83 -132h-160l161 257l-164 253h170l84 -129z" />
    <glyph glyph-name="uni0446" unicode="&#x446;" horiz-adv-x="598" 
d="M515 135h62v-270h-150v135h-374v510h150v-375h162v375h150v-375z" />
    <glyph glyph-name="uni0447" unicode="&#x447;" horiz-adv-x="548" 
d="M345 347v163h150v-510h-150v156q-47 -26 -106 -26q-92 0 -141 50t-49 143v187h150v-162q0 -82 70 -82q33 0 54.5 23t21.5 58z" />
    <glyph glyph-name="uni0448" unicode="&#x448;" horiz-adv-x="809" 
d="M606 135v375h150v-510h-703v510h150v-375h127v375h150v-375h126z" />
    <glyph glyph-name="uni0449" unicode="&#x449;" horiz-adv-x="840" 
d="M756 135h63v-270h-150v135h-616v510h150v-375h127v375h150v-375h126v375h150v-375z" />
    <glyph glyph-name="uni044A" unicode="&#x44a;" horiz-adv-x="552" 
d="M242 354h99q90 0 138 -42.5t48 -122.5v-24q0 -80 -48 -122.5t-138 -42.5h-249v375h-82v135h232v-156zM377 172v10q0 37 -45 37h-90v-84h90q45 0 45 37z" />
    <glyph glyph-name="uni044B" unicode="&#x44b;" horiz-adv-x="744" 
d="M203 354h99q89 0 137.5 -43t48.5 -122v-24q0 -79 -48.5 -122t-137.5 -43h-249v510h150v-156zM541 0v510h150v-510h-150zM338 172v10q0 37 -45 37h-90v-84h90q45 0 45 37z" />
    <glyph glyph-name="uni044C" unicode="&#x44c;" horiz-adv-x="513" 
d="M203 354h99q89 0 137.5 -43t48.5 -122v-24q0 -79 -48.5 -122t-137.5 -43h-249v510h150v-156zM338 172v10q0 37 -45 37h-90v-84h90q45 0 45 37z" />
    <glyph glyph-name="uni044D" unicode="&#x44d;" horiz-adv-x="523" 
d="M259 525q107 0 167.5 -59.5t60.5 -161.5v-98q0 -102 -61 -161.5t-168 -59.5q-102 0 -161 58q-61 58 -61 154v15h151v-24q0 -34 19.5 -53.5t51.5 -19.5q74 0 79 78h-106v135h105q-9 67 -78 67q-33 0 -52 -19t-19 -54v-24h-151v15q0 96 61 154t162 58z" />
    <glyph glyph-name="uni044E" unicode="&#x44e;" horiz-adv-x="784" 
d="M515 525q108 0 170.5 -59.5t62.5 -161.5v-98q0 -102 -62 -161.5t-170 -59.5q-107 0 -169 56.5t-65 155.5h-79v-197h-150v510h150v-178h80q9 91 70 142t162 51zM598 207v96q0 87 -82 87q-84 0 -84 -87v-96q0 -87 83 -87t83 87z" />
    <glyph glyph-name="uni044F" unicode="&#x44f;" horiz-adv-x="540" 
d="M222 510h265v-510h-150v161h-75l-65 -161h-158l73 190q-60 44 -60 136v19q0 79 44 122t126 43zM247 296h90v79h-90q-45 0 -45 -37v-5q0 -37 45 -37z" />
    <glyph glyph-name="uni0451" unicode="&#x451;" horiz-adv-x="526" 
d="M91 697h136v-133h-136v133zM298 697h136v-133h-136v133zM266 525q99 0 161 -55q63 -55 63 -140v-119h-304v-9q0 -47 22 -72t60 -25q27 0 49 13.5t22 33.5v10h150q0 -81 -61.5 -129t-161.5 -48q-107 0 -168.5 60.5t-61.5 163.5v95q0 102 61.5 161.5t168.5 59.5zM186 318
h151v12q0 75 -70 75q-78 0 -81 -87z" />
    <glyph glyph-name="uni0452" unicode="&#x452;" horiz-adv-x="570" 
d="M330 525q92 0 142 -57t50 -172v-336q0 -100 -53 -145t-132 -45h-65v135h22q48 0 63 21t15 73v299q0 42 -22.5 66.5t-56.5 24.5q-35 0 -59 -22.5t-24 -59.5v-307h-150v559h-62v122h62v89h150v-89h121v-122h-121v-65q52 31 120 31z" />
    <glyph glyph-name="uni0453" unicode="&#x453;" horiz-adv-x="427" 
d="M244 734h169l-130 -179h-142zM53 510h353v-135h-203v-375h-150v510z" />
    <glyph glyph-name="uni0454" unicode="&#x454;" horiz-adv-x="523" 
d="M487 313v-15h-151v19q0 34 -19.5 53.5t-51.5 19.5q-66 0 -77 -62h97v-135h-98q6 -73 78 -73q32 0 51.5 19.5t19.5 53.5v19h151v-15q0 -95 -60 -154q-61 -58 -162 -58q-107 0 -168 59.5t-61 161.5v98q0 102 61 161.5t167 59.5q101 0 162 -58t61 -154z" />
    <glyph glyph-name="uni0455" unicode="&#x455;" horiz-adv-x="473" 
d="M238 -15q-96 0 -154 49q-59 48 -59 124v12h149v-12q0 -21 19.5 -33t50.5 -12q27 0 43.5 9t16.5 25q0 30 -70 44q-93 22 -124 38q-77 40 -78 123q0 77 58 125q57 48 148 48q90 0 148 -47q57 -48 57 -121v-10h-148v10q0 18 -16.5 29t-41.5 11q-26 0 -41.5 -10t-15.5 -25
q0 -16 24.5 -26t75 -22t77.5 -21q43 -16 69.5 -51t26.5 -86q0 -82 -62 -126q-63 -45 -153 -45z" />
    <glyph glyph-name="uni0456" unicode="&#x456;" horiz-adv-x="259" 
d="M204 564h-150v146h150v-146zM204 0h-150v510h150v-510z" />
    <glyph glyph-name="uni0457" unicode="&#x457;" horiz-adv-x="259" 
d="M93 564h-136v133h136v-133zM300 564h-136v133h136v-133zM204 0h-150v510h150v-510z" />
    <glyph glyph-name="uni0458" unicode="&#x458;" horiz-adv-x="274" 
d="M219 564h-150v146h150v-146zM34 -230h-65v135h22q48 0 63 21t15 73v511h150v-550q0 -100 -53 -145q-52 -45 -132 -45z" />
    <glyph glyph-name="uni0459" unicode="&#x459;" horiz-adv-x="835" 
d="M525 354h99q90 0 138 -42.5t48 -122.5v-24q0 -80 -48 -122.5t-138 -42.5h-249v375h-109l-17 -172q-11 -105 -60 -154t-143 -49h-25v135h7q34 0 52 22.5t23 72.5l28 280h394v-156zM660 172v10q0 37 -45 37h-90v-84h90q45 0 45 37z" />
    <glyph glyph-name="uni045A" unicode="&#x45a;" horiz-adv-x="824" 
d="M515 354h98q90 0 138 -42.5t48 -122.5v-24q0 -80 -48 -122.5t-138 -42.5h-248v193h-162v-193h-150v510h150v-182h162v182h150v-156zM649 172v10q0 37 -45 37h-89v-84h89q45 0 45 37z" />
    <glyph glyph-name="uni045B" unicode="&#x45b;" horiz-adv-x="570" 
d="M330 525q92 0 142 -57t50 -172v-296h-150v298q0 42 -22.5 66.5t-56.5 24.5q-35 0 -59 -22.5t-24 -59.5v-307h-150v559h-62v122h62v89h150v-89h121v-122h-121v-65q52 31 120 31z" />
    <glyph glyph-name="uni045C" unicode="&#x45c;" horiz-adv-x="552" 
d="M302 734h169l-130 -179h-142zM360 269l191 -269h-178l-170 239v-239h-150v510h150v-211l163 211h181z" />
    <glyph glyph-name="uni045E" unicode="&#x45e;" horiz-adv-x="548" 
d="M393 593q-46 -43 -119 -43q-74 0 -118 43q-46 42 -46 109h93q0 -29 19 -45.5t52 -16.5t52 16.5t19 45.5h93q0 -67 -45 -109zM345 202v308h150v-558q0 -89 -58.5 -143t-165.5 -54t-165 53q-57 54 -57 132h150q0 -23 19.5 -36.5t49.5 -13.5q34 0 55.5 16.5t21.5 47.5v58
q-47 -27 -106 -27q-91 0 -140.5 57t-49.5 172v296h150v-299q0 -44 19.5 -67t53.5 -23q31 0 52 22t21 59z" />
    <glyph glyph-name="uni045F" unicode="&#x45f;" horiz-adv-x="567" 
d="M365 510h150v-510h-156v-135h-150v135h-156v510h150v-375h162v375z" />
    <glyph glyph-name="uni0462" unicode="&#x462;" horiz-adv-x="705" 
d="M301 466h146q103 0 168 -56q63 -57 63 -151v-52q0 -95 -64 -150q-64 -57 -168 -57h-300v515h-133v140h133v55h155v-55h182v-140h-182v-49zM523 200v66q0 28 -18 44t-49 16h-155v-186h156q30 0 48 16t18 44z" />
    <glyph glyph-name="uni0463" unicode="&#x463;" horiz-adv-x="520" 
d="M210 354h99q90 0 138 -42.5t48 -122.5v-24q0 -80 -48 -122.5t-138 -42.5h-249v510h-62v122h62v138h150v-138h121v-122h-121v-156zM345 172v10q0 37 -45 37h-90v-84h90q45 0 45 37z" />
    <glyph glyph-name="uni0472" unicode="&#x472;" horiz-adv-x="662" 
d="M119 664q76 61 212 61t213 -61q77 -62 77 -166v-286q0 -105 -77.5 -166t-211.5 -61t-213 62q-78 61 -78 165v286q0 104 78 166zM332 585q-136 0 -136 -94v-45q22 6 43 6q41 0 92 -22q54 -21 92 -21q15 0 43 5v77q0 94 -134 94zM331 125q135 0 135 94v55q-28 -5 -42 -5
q-40 0 -93 22q-53 21 -91 21q-22 0 -44 -6v-87q0 -94 135 -94z" />
    <glyph glyph-name="uni0473" unicode="&#x473;" horiz-adv-x="538" 
d="M268 525q110 0 172 -59t62 -162v-98q0 -102 -62.5 -161.5t-170.5 -59.5t-170.5 59.5t-62.5 161.5v98q0 102 62 161.5t170 59.5zM269 390q-66 0 -80 -56q11 4 26 4q24 0 54 -13q32 -12 53 -12q12 0 29 4q-6 73 -82 73zM268 120q72 0 82 63q-16 -4 -27 -4q-18 -1 -54 12
q-29 12 -53 12q-18 0 -30 -4q4 -79 82 -79z" />
    <glyph glyph-name="uni0474" unicode="&#x474;" horiz-adv-x="670" 
d="M616 710h41v-140h-12q-39 0 -59.5 -21t-36.5 -77l-124 -472h-223l-188 710h158l142 -516l83 296q31 120 82 171q49 49 137 49z" />
    <glyph glyph-name="uni0475" unicode="&#x475;" horiz-adv-x="526" 
d="M480 510h25v-135h-7q-27 0 -41 -13.5t-25 -50.5l-86 -311h-197l-142 510h155l90 -350l40 175q23 96 65 135.5t123 39.5z" />
    <glyph glyph-name="uni048A" unicode="&#x48a;" horiz-adv-x="708" 
d="M438 793q-46 -43 -119 -43q-74 0 -118 43q-46 42 -46 109h93q0 -29 19 -45.5t52 -16.5t52 16.5t19 45.5h93q0 -67 -45 -109zM594 710v-570h101l-35 -275h-155l17 135h-72v447l-262 -447h-144v710h144v-446l262 446h144z" />
    <glyph glyph-name="uni048B" unicode="&#x48b;" horiz-adv-x="593" 
d="M397 593q-46 -43 -119 -43q-74 0 -118 43q-46 42 -46 109h93q0 -29 19 -45.5t52 -16.5t52 16.5t19 45.5h93q0 -67 -45 -109zM509 135h63l-34 -270h-150l17 135h-46v282l-159 -282h-154v510h150v-282l159 282h154v-375z" />
    <glyph glyph-name="uni048C" unicode="&#x48c;" horiz-adv-x="705" 
d="M301 466h146q103 0 168 -56q63 -57 63 -151v-52q0 -95 -64 -150q-64 -57 -168 -57h-300v515h-133v140h133v55h155v-55h182v-140h-182v-49zM523 200v66q0 28 -18 44t-49 16h-155v-186h156q30 0 48 16t18 44z" />
    <glyph glyph-name="uni048D" unicode="&#x48d;" horiz-adv-x="520" 
d="M210 354h99q90 0 138 -42.5t48 -122.5v-24q0 -80 -48 -122.5t-138 -42.5h-249v510h-62v122h62v138h150v-138h121v-122h-121v-156zM345 172v10q0 37 -45 37h-90v-84h90q45 0 45 37z" />
    <glyph glyph-name="uni048E" unicode="&#x48e;" horiz-adv-x="609" 
d="M50 710h299q104 0 169 -56q64 -57 64 -151v-66q0 -116 -91 -171l32 -56l-96 -56l-44 78q-30 -2 -33 -2h-145v-230h-155v710zM271 426l95 55l50 -87q11 17 11 36v80q0 28 -18 44t-49 16h-155v-200h98z" />
    <glyph glyph-name="uni048F" unicode="&#x48f;" horiz-adv-x="557" 
d="M521 309v-108q0 -114 -56 -167l42 -73l-117 -67l-53 91h-16q-68 0 -118 29v-244h-150v740h99l24 -33q54 48 145 48q200 0 200 -216zM203 308v-106q0 -38 23 -59.5t62 -21.5t61 21.5t22 62.5v100q0 41 -22 62.5t-61 21.5q-40 0 -62.5 -21t-22.5 -60z" />
    <glyph glyph-name="uni0490" unicode="&#x490;" horiz-adv-x="527" 
d="M360 710v95h155v-235h-310v-570h-155v710h310z" />
    <glyph glyph-name="uni0491" unicode="&#x491;" horiz-adv-x="427" 
d="M256 510v95h150v-230h-203v-375h-150v510h203z" />
    <glyph glyph-name="uni0492" unicode="&#x492;" horiz-adv-x="623" 
d="M611 710v-140h-310v-156h182v-140h-182v-274h-155v274h-133v140h133v296h465z" />
    <glyph glyph-name="uni0493" unicode="&#x493;" horiz-adv-x="446" 
d="M426 510v-135h-204v-88h139v-122h-139v-165h-150v165h-62v122h62v223h354z" />
    <glyph glyph-name="uni0494" unicode="&#x494;" horiz-adv-x="609" 
d="M205 464h145q104 0 169 -56q63 -57 63 -151v-215q0 -94 -64 -151q-65 -56 -169 -56h-102v140h113q31 0 49 16t18 44v229q0 28 -18.5 44t-49.5 16h-154v-324h-155v710h481v-140h-326v-106z" />
    <glyph glyph-name="uni0495" unicode="&#x495;" horiz-adv-x="513" 
d="M203 298h99q89 0 137.5 -43t48.5 -122v-133q0 -79 -48.5 -122t-137.5 -43h-76v135h67q45 0 45 37v119q0 37 -45 37h-90v-163h-150v510h353v-135h-203v-77z" />
    <glyph glyph-name="uni0496" unicode="&#x496;" horiz-adv-x="1083" 
d="M787 364l163 -224h121v-275h-155v135h-55l-248 336v-336h-155v336l-249 -336h-191l265 364l-258 346h193l240 -317v317h155v-317l239 317h193z" />
    <glyph glyph-name="uni0497" unicode="&#x497;" horiz-adv-x="900" 
d="M751 135h128v-270h-150v135h-59l-171 239v-239h-150v239l-170 -239h-177l191 269l-187 241h180l163 -211v211h150v-212l164 212h180l-187 -241z" />
    <glyph glyph-name="uni0498" unicode="&#x498;" horiz-adv-x="628" 
d="M528 368q58 -52 58 -129v-47q0 -83 -55.5 -136.5t-154.5 -66.5l20 -150h-165l21 150q-98 14 -154.5 70t-56.5 140v29h155v-36q0 -67 118 -67q117 0 117 60v54q0 56 -83 56h-126v135h113q83 0 83 54v42q0 59 -110 59q-102 0 -102 -66v-40h-155v32q0 98 70 156t186 58
q124 0 195 -53.5t71 -148.5v-40q0 -67 -45 -115z" />
    <glyph glyph-name="uni0499" unicode="&#x499;" horiz-adv-x="517" 
d="M425 268q56 -32 56 -109v-10q0 -66 -41.5 -107.5t-119.5 -52.5l21 -150h-165l21 151q-78 12 -119.5 54.5t-41.5 110.5v20h149v-25q0 -42 76 -42q70 0 70 41v13q0 19 -10.5 26.5t-36.5 7.5h-83v124h75q26 0 35.5 7t9.5 26v11q0 38 -65 38q-69 0 -69 -38v-22h-148v17
q0 79 57 122.5t159 43.5q100 0 158 -41.5t58 -112.5v-11q0 -58 -46 -92z" />
    <glyph glyph-name="uni049A" unicode="&#x49a;" horiz-adv-x="676" 
d="M379 364l163 -224h121v-275h-155v135h-55l-248 336v-336h-155v710h155v-317l239 317h194z" />
    <glyph glyph-name="uni049B" unicode="&#x49b;" horiz-adv-x="604" 
d="M455 135h128v-270h-150v135h-60l-170 239v-239h-150v510h150v-211l163 211h181l-187 -241z" />
    <glyph glyph-name="uni049C" unicode="&#x49c;" horiz-adv-x="684" 
d="M666 0h-165l-117 297h-24v-144h-116v144h-39v-297h-155v710h155v-273h39v144h116v-144h28l107 273h164l-136 -348z" />
    <glyph glyph-name="uni049D" unicode="&#x49d;" horiz-adv-x="552" 
d="M551 0h-156l-70 202h-19v-107h-75v107h-28v-202h-150v510h150v-173h28v106h75v-106h22l62 173h157l-90 -243z" />
    <glyph glyph-name="uni049E" unicode="&#x49e;" horiz-adv-x="685" 
d="M402 363l265 -363h-191l-249 336v-336h-155v515h-59v140h59v55h155v-55h72v-140h-72v-122l239 317h194z" />
    <glyph glyph-name="uni049F" unicode="&#x49f;" horiz-adv-x="570" 
d="M378 269l191 -269h-178l-170 239v-239h-150v550h-69v135h69v85h150v-85h117v-135h-117v-252l164 212h180z" />
    <glyph glyph-name="uni04A0" unicode="&#x4a0;" horiz-adv-x="758" 
d="M475 364l265 -364h-191l-248 336v-336h-155v570h-133v140h288v-317l239 317h194z" />
    <glyph glyph-name="uni04A1" unicode="&#x4a1;" horiz-adv-x="592" 
d="M399 269l191 -269h-178l-170 239v-239h-150v375h-82v135h232v-212l164 212h180z" />
    <glyph glyph-name="uni04A2" unicode="&#x4a2;" horiz-adv-x="719" 
d="M610 710v-570h96v-275h-155v135h-96v275h-250v-275h-155v710h155v-295h250v295h155z" />
    <glyph glyph-name="uni04A3" unicode="&#x4a3;" horiz-adv-x="598" 
d="M515 135h62v-270h-150v135h-62v193h-162v-193h-150v510h150v-182h162v182h150v-375z" />
    <glyph glyph-name="uni04A4" unicode="&#x4a4;" horiz-adv-x="932" 
d="M455 710h465v-140h-310v-570h-155v275h-250v-275h-155v710h155v-295h250v295z" />
    <glyph glyph-name="uni04A5" unicode="&#x4a5;" horiz-adv-x="739" 
d="M365 510h353v-135h-203v-375h-150v193h-162v-193h-150v510h150v-182h162v182z" />
    <glyph glyph-name="uni04A6" unicode="&#x4a6;" horiz-adv-x="1014" 
d="M610 464h145q104 0 169 -56q63 -57 63 -151v-215q0 -94 -64 -151q-65 -56 -169 -56h-102v140h113q31 0 49 16t18 44v229q0 28 -18.5 44t-49.5 16h-154v-324h-155v570h-250v-570h-155v710h560v-246z" />
    <glyph glyph-name="uni04A7" unicode="&#x4a7;" horiz-adv-x="824" 
d="M515 298h98q90 0 138 -42.5t48 -122.5v-133q0 -80 -48 -122.5t-138 -42.5h-75v135h66q45 0 45 37v119q0 37 -45 37h-89v-163h-150v375h-162v-375h-150v510h462v-212z" />
    <glyph glyph-name="uni04A8" unicode="&#x4a8;" horiz-adv-x="714" 
d="M673 335v-104q0 -101 -61 -163t-175 -78q11 -15 34 -15h143v-140h-145q-77 0 -127.5 40.5t-67.5 115.5q-113 16 -173 79t-60 163v229q0 118 81.5 183t233.5 65h157v-140h-156q-161 0 -161 -115v-215q0 -76 71 -102v185q0 93 54 147.5t149 54.5q93 0 148 -51.5t55 -138.5z
M518 240v77q0 39 -10.5 53.5t-37.5 14.5t-37.5 -14.5t-10.5 -53.5v-186q96 19 96 109z" />
    <glyph glyph-name="uni04A9" unicode="&#x4a9;" horiz-adv-x="615" 
d="M403 339q85 0 130.5 -41t45.5 -118v-10q0 -75 -52.5 -121.5t-149.5 -59.5q1 -19 26 -19h122v-135h-122q-176 0 -176 144v13q-92 18 -141.5 78.5t-49.5 156.5v41q0 115 72 178.5t202 63.5h142v-135h-141q-125 0 -125 -108v-39q0 -65 41 -91v58q0 144 176 144zM429 177v4
q0 23 -26 23t-26 -23v-56q52 10 52 52z" />
    <glyph glyph-name="uni04AA" unicode="&#x4aa;" horiz-adv-x="656" 
d="M614 498v-64h-161v57q0 45 -32 69.5t-92 24.5q-63 0 -98 -25t-35 -69v-272q0 -45 34.5 -69.5t97.5 -24.5q60 0 92.5 25t32.5 69v57h161v-64q0 -91 -59.5 -150.5t-164.5 -72.5l20 -150h-165l21 150q-106 14 -165.5 73.5t-59.5 149.5v286q0 104 77 166q76 61 210 61
q132 0 209 -61t77 -166z" />
    <glyph glyph-name="uni04AB" unicode="&#x4ab;" horiz-adv-x="523" 
d="M487 313v-15h-151v19q0 34 -19.5 53.5t-51.5 19.5q-79 0 -79 -87v-96q0 -87 79 -87q32 0 51.5 19.5t19.5 53.5v19h151v-15q0 -81 -44 -135.5t-120 -70.5l21 -152h-165l21 153q-78 16 -121 72.5t-43 141.5v98q0 102 61 161.5t167 59.5q101 0 162 -58t61 -154z" />
    <glyph glyph-name="uni04AC" unicode="&#x4ac;" horiz-adv-x="551" 
d="M543 710v-140h-189v-430h96v-275h-155v135h-96v570h-191v140h535z" />
    <glyph glyph-name="uni04AD" unicode="&#x4ad;" horiz-adv-x="484" 
d="M463 510v-135h-146v-240h62v-270h-150v135h-62v375h-146v135h442z" />
    <glyph glyph-name="uni04AE" unicode="&#x4ae;" horiz-adv-x="629" 
d="M448 710h167l-223 -472v-238h-155v236l-223 474h169l133 -291z" />
    <glyph glyph-name="uni04AF" unicode="&#x4af;" horiz-adv-x="526" 
d="M349 510h170l-181 -304v-206h-150v202l-181 308h170l86 -146z" />
    <glyph glyph-name="uni04B0" unicode="&#x4b0;" horiz-adv-x="628" 
d="M614 710l-223 -472v-20h157v-140h-157v-78h-155v78h-155v140h155v18l-223 474h169l133 -291l132 291h167z" />
    <glyph glyph-name="uni04B1" unicode="&#x4b1;" horiz-adv-x="526" 
d="M519 510l-181 -304v-10h92v-122h-92v-74h-150v74h-92v122h92v6l-181 308h170l86 -146l86 146h170z" />
    <glyph glyph-name="uni04B2" unicode="&#x4b2;" horiz-adv-x="654" 
d="M411 349l127 -209h102v-275h-155v135h-43l-127 211l-128 -211h-170l208 360l-211 350h180l130 -215l134 215h174z" />
    <glyph glyph-name="uni04B3" unicode="&#x4b3;" horiz-adv-x="562" 
d="M421 135h120v-270h-150v135h-53l-85 132l-83 -132h-160l161 257l-164 253h170l84 -129l86 129h165l-171 -252z" />
    <glyph glyph-name="uni04B4" unicode="&#x4b4;" horiz-adv-x="815" 
d="M706 710v-570h96v-275h-155v135h-501v570h-133v140h445v-140h-157v-430h250v570h155z" />
    <glyph glyph-name="uni04B5" unicode="&#x4b5;" horiz-adv-x="617" 
d="M534 135h62v-270h-150v135h-374v388h-62v122h307v-122h-95v-253h162v375h150v-375z" />
    <glyph glyph-name="uni04B6" unicode="&#x4b6;" horiz-adv-x="674" 
d="M564 710v-570h97v-275h-155v135h-97v237q-55 -26 -126 -26q-117 0 -181 58.5t-64 166.5v274h155v-259q0 -100 109 -100q107 0 107 100v259h155z" />
    <glyph glyph-name="uni04B7" unicode="&#x4b7;" horiz-adv-x="585" 
d="M495 135h63v-270h-150v135h-63v157q-48 -27 -106 -27q-93 0 -141.5 52t-48.5 151v177h150v-162q0 -82 73 -82q31 0 52 23t21 58v163h150v-375z" />
    <glyph glyph-name="uni04B8" unicode="&#x4b8;" horiz-adv-x="614" 
d="M409 451v259h155v-710h-155v237q-24 -12 -53 -18v-153h-111v147q-99 9 -153 67t-54 156v274h155v-259q0 -68 52 -90v134h111v-135q53 23 53 91z" />
    <glyph glyph-name="uni04B9" unicode="&#x4b9;" horiz-adv-x="548" 
d="M345 346v164h150v-510h-150v156q-10 -6 -36 -16v-117h-75v107q-89 1 -137 51t-48 142v187h150v-163q0 -60 35 -75v100h75v-96q36 22 36 70z" />
    <glyph glyph-name="uni04BA" unicode="&#x4ba;" horiz-adv-x="614" 
d="M332 480q115 0 179.5 -59t64.5 -166v-255h-155v240q0 100 -108 100t-108 -100v-240h-155v710h155v-257q53 27 127 27z" />
    <glyph glyph-name="uni04BB" unicode="&#x4bb;" horiz-adv-x="562" 
d="M323 525q92 0 142 -57t50 -172v-296h-150v298q0 43 -22.5 67t-57.5 24q-34 0 -58 -22.5t-24 -59.5v-307h-150v770h150v-276q52 31 120 31z" />
    <glyph glyph-name="uni04BC" unicode="&#x4bc;" horiz-adv-x="826" 
d="M289 664q76 61 210 61t210 -61t76 -166v-180h-418v-99q0 -44 34.5 -69t97.5 -25q60 0 92 24.5t32 69.5v44h162v-51q0 -103 -77 -165t-210 -62q-132 0 -209 61t-77 166v111q-92 18 -145 84.5t-53 167.5v42h140v-66q0 -65 58 -84v31q0 104 77 166zM367 491v-33h256v33
q0 45 -32.5 69.5t-92.5 24.5q-63 0 -97 -25t-34 -69z" />
    <glyph glyph-name="uni04BD" unicode="&#x4bd;" horiz-adv-x="665" 
d="M405 525q99 0 161 -55q62 -56 62 -140v-119h-303v-9q0 -97 82 -97q27 0 49 13.5t22 33.5v10h150q0 -81 -61.5 -129t-161.5 -48q-107 0 -168.5 60.5t-61.5 163.5v3q-85 6 -126.5 55.5t-41.5 128.5v40h135v-40q0 -55 34 -70q6 93 66.5 146t162.5 53zM325 318h151v12
q0 75 -70 75q-78 0 -81 -87z" />
    <glyph glyph-name="uni04BE" unicode="&#x4be;" horiz-adv-x="826" 
d="M289 664q76 61 210 61t210 -61t76 -166v-180h-418v-99q0 -44 34.5 -69t97.5 -25q60 0 92 24.5t32 69.5v44h162v-51q0 -92 -61.5 -151.5t-170.5 -72.5l20 -149h-165l21 151q-103 16 -160 74.5t-57 147.5v111q-92 18 -145 84.5t-53 167.5v42h140v-66q0 -65 58 -84v31
q0 104 77 166zM367 491v-33h256v33q0 45 -32.5 69.5t-92.5 24.5q-63 0 -97 -25t-34 -69z" />
    <glyph glyph-name="uni04BF" unicode="&#x4bf;" horiz-adv-x="665" 
d="M405 525q99 0 161 -55q62 -56 62 -140v-119h-303v-9q0 -97 82 -97q27 0 49 13.5t22 33.5v10h150q0 -68 -45.5 -114t-123.5 -59l21 -150h-165l21 154q-76 18 -118.5 75t-42.5 141v3q-85 6 -126.5 55.5t-41.5 128.5v40h135v-40q0 -55 34 -70q6 93 66.5 146t162.5 53z
M325 318h151v12q0 75 -70 75q-78 0 -81 -87z" />
    <glyph glyph-name="uni04C0" unicode="&#x4c0;" horiz-adv-x="255" 
d="M205 0h-155v710h155v-710z" />
    <glyph glyph-name="uni04C1" unicode="&#x4c1;" horiz-adv-x="1070" 
d="M655 793q-46 -43 -119 -43q-74 0 -118 43q-46 42 -46 109h93q0 -29 19 -45.5t52 -16.5t52 16.5t19 45.5h93q0 -67 -45 -109zM787 364l265 -364h-191l-248 336v-336h-155v336l-249 -336h-191l265 364l-258 346h193l240 -317v317h155v-317l239 317h193z" />
    <glyph glyph-name="uni04C2" unicode="&#x4c2;" horiz-adv-x="849" 
d="M543 593q-46 -43 -119 -43q-74 0 -118 43q-46 42 -46 109h93q0 -29 19 -45.5t52 -16.5t52 16.5t19 45.5h93q0 -67 -45 -109zM656 269l191 -269h-177l-171 239v-239h-150v239l-170 -239h-177l191 269l-187 241h180l163 -211v211h150v-212l164 212h180z" />
    <glyph glyph-name="uni04C3" unicode="&#x4c3;" horiz-adv-x="664" 
d="M638 710l-224 -317q102 -2 163 -58.5t61 -148.5v-144q0 -94 -64 -151q-65 -56 -169 -56h-158v140h169q31 0 49 16t18 44v158q0 28 -18.5 44t-49.5 16h-210v-253h-155v710h155v-317l239 317h194z" />
    <glyph glyph-name="uni04C4" unicode="&#x4c4;" horiz-adv-x="572" 
d="M547 510l-162 -213q78 -5 120 -47.5t42 -116.5v-133q0 -79 -48.5 -122t-137.5 -43h-135v135h126q45 0 45 37v119q0 37 -45 37h-149v-163h-150v510h150v-212h1l162 212h181z" />
    <glyph glyph-name="uni04C5" unicode="&#x4c5;" horiz-adv-x="738" 
d="M629 710v-570h96l-35 -275h-155l17 135h-78v570h-161l-33 -331q-13 -128 -63 -183.5t-152 -55.5h-52v140h20q42 0 64 28t28 89l46 453h458z" />
    <glyph glyph-name="uni04C6" unicode="&#x4c6;" horiz-adv-x="605" 
d="M528 135h56l-34 -270h-150l17 135h-39v375h-108l-21 -201q-10 -97 -48.5 -135.5t-124.5 -38.5h-55v135h17q33 0 48 18.5t19 65.5l30 291h393v-375z" />
    <glyph glyph-name="uni04C7" unicode="&#x4c7;" horiz-adv-x="660" 
d="M455 415v295h155v-683q0 -113 -69 -185q-70 -72 -188 -72h-57v140h66q93 0 93 117v248h-250v-275h-155v710h155v-295h250z" />
    <glyph glyph-name="uni04C8" unicode="&#x4c8;" horiz-adv-x="567" 
d="M365 328v182h150v-550q0 -100 -53 -145q-52 -45 -133 -45h-64v135h21q48 0 63.5 21t15.5 73v194h-162v-193h-150v510h150v-182h162z" />
    <glyph glyph-name="uni04C9" unicode="&#x4c9;" horiz-adv-x="717" 
d="M610 710v-570h94l-35 -275h-155l17 135h-76v275h-250v-275h-155v710h155v-295h250v295h155z" />
    <glyph glyph-name="uni04CA" unicode="&#x4ca;" horiz-adv-x="591" 
d="M515 135h55l-34 -270h-150l17 135h-38v193h-162v-193h-150v510h150v-182h162v182h150v-375z" />
    <glyph glyph-name="uni04CB" unicode="&#x4cb;" horiz-adv-x="614" 
d="M409 451v259h155v-710h-96v-135h-155v275h96v97q-55 -26 -126 -26q-117 0 -181 58.5t-64 166.5v274h155v-259q0 -100 109 -100q107 0 107 100z" />
    <glyph glyph-name="uni04CC" unicode="&#x4cc;" horiz-adv-x="548" 
d="M345 347v163h150v-510h-62v-135h-150v220h62v72q-48 -27 -106 -27q-93 0 -141.5 52t-48.5 151v177h150v-162q0 -82 73 -82q31 0 52 23t21 58z" />
    <glyph glyph-name="uni04CD" unicode="&#x4cd;" horiz-adv-x="820" 
d="M713 710v-570h95l-35 -275h-155l17 135h-62v466l-136 -466h-111l-136 464v-464h-140v710h194l138 -419l137 419h194z" />
    <glyph glyph-name="uni04CE" unicode="&#x4ce;" horiz-adv-x="720" 
d="M643 135h56l-34 -270h-150l17 135h-39v298l-105 -298h-80l-105 300v-300h-150v510h200l95 -270l95 270h200v-375z" />
    <glyph glyph-name="uni04CF" unicode="&#x4cf;" horiz-adv-x="259" 
d="M204 0h-150v510h150v-510z" />
    <glyph glyph-name="uni04D0" unicode="&#x4d0;" horiz-adv-x="645" 
d="M442 793q-46 -43 -119 -43q-74 0 -118 43q-46 42 -46 109h93q0 -29 19 -45.5t52 -16.5t52 16.5t19 45.5h93q0 -67 -45 -109zM631 0h-153l-37 125h-238l-37 -125h-152l198 710h221zM243 265h158l-79 283z" />
    <glyph glyph-name="uni04D1" unicode="&#x4d1;" horiz-adv-x="557" 
d="M393 593q-46 -43 -119 -43q-74 0 -118 43q-46 42 -46 109h93q0 -29 19 -45.5t52 -16.5t52 16.5t19 45.5h93q0 -67 -45 -109zM382 476l24 34h99v-510h-99l-24 34q-55 -49 -147 -49q-199 0 -199 216v108q0 216 199 216q92 0 147 -49zM208 143q22 -22 61 -22t63 21
q23 21 23 60v106q0 38 -23 59.5t-63 21.5q-39 0 -61 -21.5t-22 -62.5v-100q0 -41 22 -62z" />
    <glyph glyph-name="uni04D2" unicode="&#x4d2;" horiz-adv-x="645" 
d="M151 897h136v-133h-136v133zM358 897h136v-133h-136v133zM631 0h-153l-37 125h-238l-37 -125h-152l198 710h221zM243 265h158l-79 283z" />
    <glyph glyph-name="uni04D3" unicode="&#x4d3;" horiz-adv-x="557" 
d="M102 697h136v-133h-136v133zM309 697h136v-133h-136v133zM382 476l24 34h99v-510h-99l-24 34q-55 -49 -147 -49q-199 0 -199 216v108q0 216 199 216q92 0 147 -49zM208 143q22 -22 61 -22t63 21q23 21 23 60v106q0 38 -23 59.5t-63 21.5q-39 0 -61 -21.5t-22 -62.5v-100
q0 -41 22 -62z" />
    <glyph glyph-name="uni04D4" unicode="&#x4d4;" horiz-adv-x="962" 
d="M935 710v-140h-303v-155h263v-140h-263v-135h303v-140h-458v165h-245l-62 -165h-156l265 710h656zM284 305h193v265h-93z" />
    <glyph glyph-name="uni04D5" unicode="&#x4d5;" horiz-adv-x="831" 
d="M602 525q89 0 141 -55t52 -140v-119h-297v-9q0 -97 82 -97q30 0 47 14.5t17 38.5v14h150q0 -89 -49 -138t-142 -49q-78 0 -131 50l-25 -35h-48l-24 33q-54 -48 -144 -48q-195 0 -195 216v108q0 108 51 162t146 54q89 0 143 -48l23 33h48l24 -34q55 49 131 49zM498 318
h144v12q0 75 -64 75q-77 0 -80 -87zM267 121q37 0 59 21.5t22 59.5v106q0 38 -22 59.5t-59 21.5q-39 0 -60 -21.5t-21 -62.5v-100q0 -41 22 -62.5t59 -21.5z" />
    <glyph glyph-name="uni04D6" unicode="&#x4d6;" horiz-adv-x="535" 
d="M386 793q-46 -43 -119 -43q-74 0 -118 43q-46 42 -46 109h93q0 -29 19 -45.5t52 -16.5t52 16.5t19 45.5h93q0 -67 -45 -109zM508 710v-140h-303v-155h263v-140h-263v-135h303v-140h-458v710h458z" />
    <glyph glyph-name="uni04D7" unicode="&#x4d7;" horiz-adv-x="526" 
d="M382 593q-46 -43 -119 -43q-74 0 -118 43q-46 42 -46 109h93q0 -29 19 -45.5t52 -16.5t52 16.5t19 45.5h93q0 -67 -45 -109zM266 525q99 0 161 -55q63 -55 63 -140v-119h-304v-9q0 -47 22 -72t60 -25q27 0 49 13.5t22 33.5v10h150q0 -81 -61.5 -129t-161.5 -48
q-107 0 -168.5 60.5t-61.5 163.5v95q0 102 61.5 161.5t168.5 59.5zM186 318h151v12q0 75 -70 75q-78 0 -81 -87z" />
    <glyph glyph-name="uni04D8" unicode="&#x4d8;" horiz-adv-x="656" 
d="M118 664q76 61 210 61t210 -61t76 -166v-286q0 -103 -77 -165t-210 -62q-132 0 -209 61t-77 166v180h418v99q0 45 -34.5 69.5t-97.5 24.5q-60 0 -92 -24.5t-32 -69.5v-44h-162v51q0 104 77 166zM328 125q63 0 97 25t34 69v33h-256v-33q0 -45 32.5 -69.5t92.5 -24.5z" />
    <glyph glyph-name="uni04D9" unicode="&#x4d9;" horiz-adv-x="526" 
d="M259 525q107 0 169 -60.5t62 -163.5v-95q0 -102 -61.5 -161.5t-168.5 -59.5q-97 0 -161 56q-63 56 -63 139v119h304v9q0 47 -22 72t-60 25q-27 0 -49 -13.5t-22 -33.5v-10h-150q0 81 61 129t161 48zM259 105q78 0 81 87h-151v-12q0 -75 70 -75z" />
    <glyph glyph-name="uni04DA" unicode="&#x4da;" horiz-adv-x="656" 
d="M156 897h136v-133h-136v133zM363 897h136v-133h-136v133zM118 664q76 61 210 61t210 -61t76 -166v-286q0 -103 -77 -165t-210 -62q-132 0 -209 61t-77 166v180h418v99q0 45 -34.5 69.5t-97.5 24.5q-60 0 -92 -24.5t-32 -69.5v-44h-162v51q0 104 77 166zM328 125
q63 0 97 25t34 69v33h-256v-33q0 -45 32.5 -69.5t92.5 -24.5z" />
    <glyph glyph-name="uni04DB" unicode="&#x4db;" horiz-adv-x="526" 
d="M88 697h136v-133h-136v133zM295 697h136v-133h-136v133zM259 525q107 0 169 -60.5t62 -163.5v-95q0 -102 -61.5 -161.5t-168.5 -59.5q-97 0 -161 56q-63 56 -63 139v119h304v9q0 47 -22 72t-60 25q-27 0 -49 -13.5t-22 -33.5v-10h-150q0 81 61 129t161 48zM259 105
q78 0 81 87h-151v-12q0 -75 70 -75z" />
    <glyph glyph-name="uni04DC" unicode="&#x4dc;" horiz-adv-x="1070" 
d="M364 897h136v-133h-136v133zM571 897h136v-133h-136v133zM787 364l265 -364h-191l-248 336v-336h-155v336l-249 -336h-191l265 364l-258 346h193l240 -317v317h155v-317l239 317h193z" />
    <glyph glyph-name="uni04DD" unicode="&#x4dd;" horiz-adv-x="849" 
d="M252 697h136v-133h-136v133zM459 697h136v-133h-136v133zM656 269l191 -269h-177l-171 239v-239h-150v239l-170 -239h-177l191 269l-187 241h180l163 -211v211h150v-212l164 212h180z" />
    <glyph glyph-name="uni04DE" unicode="&#x4de;" horiz-adv-x="628" 
d="M142 897h136v-133h-136v133zM349 897h136v-133h-136v133zM528 368q58 -52 58 -129v-47q0 -95 -73 -151t-199 -56q-124 0 -198 59q-75 58 -75 155v29h155v-36q0 -67 118 -67q117 0 117 60v54q0 56 -83 56h-126v135h113q83 0 83 54v42q0 59 -110 59q-102 0 -102 -66v-40
h-155v32q0 98 70 156t186 58q124 0 195 -53.5t71 -148.5v-40q0 -67 -45 -115z" />
    <glyph glyph-name="uni04DF" unicode="&#x4df;" horiz-adv-x="517" 
d="M87 697h136v-133h-136v133zM294 697h136v-133h-136v133zM425 268q56 -32 56 -109v-10q0 -78 -57.5 -121t-163.5 -43q-107 0 -165.5 44.5t-58.5 125.5v20h149v-25q0 -42 76 -42q70 0 70 41v13q0 19 -10.5 26.5t-36.5 7.5h-83v124h75q26 0 35.5 7t9.5 26v11q0 38 -65 38
q-69 0 -69 -38v-22h-148v17q0 79 57 122.5t159 43.5q100 0 158 -41.5t58 -112.5v-11q0 -58 -46 -92z" />
    <glyph glyph-name="uni04E0" unicode="&#x4e0;" horiz-adv-x="628" 
d="M561 570l-170 -129q90 -3 142.5 -54.5t52.5 -135.5v-59q0 -95 -73 -151t-199 -56q-124 0 -198 59q-75 58 -75 155v29h155v-36q0 -67 118 -67q117 0 117 60v65q0 56 -83 56h-179v135l171 129h-262v140h483v-140z" />
    <glyph glyph-name="uni04E1" unicode="&#x4e1;" horiz-adv-x="520" 
d="M447 375l-156 -159q35 -2 67 -13.5t61.5 -33.5t47 -61.5t17.5 -92.5v-43q0 -98 -61 -158q-62 -59 -163 -59t-162 58q-62 59 -62 154v35h151v-39q0 -35 19.5 -54t53.5 -19q74 0 74 82v38q0 33 -17.5 52t-48.5 19h-161v135l156 159h-204v135h388v-135z" />
    <glyph glyph-name="uni04E2" unicode="&#x4e2;" horiz-adv-x="650" 
d="M150 898h349v-122h-349v122zM194 264l262 446h144v-710h-144v447l-262 -447h-144v710h144v-446z" />
    <glyph glyph-name="uni04E3" unicode="&#x4e3;" horiz-adv-x="569" 
d="M110 698h349v-122h-349v122zM203 228l159 282h154v-510h-150v282l-159 -282h-154v510h150v-282z" />
    <glyph glyph-name="uni04E4" unicode="&#x4e4;" horiz-adv-x="650" 
d="M153 897h136v-133h-136v133zM360 897h136v-133h-136v133zM194 264l262 446h144v-710h-144v447l-262 -447h-144v710h144v-446z" />
    <glyph glyph-name="uni04E5" unicode="&#x4e5;" horiz-adv-x="569" 
d="M113 697h136v-133h-136v133zM320 697h136v-133h-136v133zM203 228l159 282h154v-510h-150v282l-159 -282h-154v510h150v-282z" />
    <glyph glyph-name="uni04E6" unicode="&#x4e6;" horiz-adv-x="662" 
d="M295 764h-136v133h136v-133zM502 764h-136v133h136v-133zM544 47q-77 -62 -212 -62q-134 0 -213 62q-78 61 -78 165v286q0 105 77.5 166t212.5 61t212.5 -61t77.5 -166v-286q0 -103 -77 -165zM331 125q135 0 135 94v272q0 94 -134 94q-136 0 -136 -94v-272q0 -94 135 -94
z" />
    <glyph glyph-name="uni04E7" unicode="&#x4e7;" horiz-adv-x="538" 
d="M233 564h-136v133h136v-133zM440 564h-136v133h136v-133zM440 45q-62 -60 -171 -60t-171 60q-62 59 -62 161v98q0 102 62 161.5t170 59.5q110 0 172 -59t62 -162v-98q0 -102 -62 -161zM268 120q84 0 84 87v96q0 87 -83 87t-83 -87v-96q0 -87 82 -87z" />
    <glyph glyph-name="uni04E8" unicode="&#x4e8;" horiz-adv-x="662" 
d="M119 664q76 61 212 61t213 -61q77 -62 77 -166v-286q0 -105 -77.5 -166t-211.5 -61t-213 62q-78 61 -78 165v286q0 104 78 166zM332 585q-136 0 -136 -94v-53h270v53q0 94 -134 94zM331 125q135 0 135 94v79h-270v-79q0 -94 135 -94z" />
    <glyph glyph-name="uni04E9" unicode="&#x4e9;" horiz-adv-x="538" 
d="M268 525q110 0 172 -59t62 -162v-98q0 -102 -62.5 -161.5t-170.5 -59.5t-170.5 59.5t-62.5 161.5v98q0 102 62 161.5t170 59.5zM188 328h162q-11 62 -81 62t-81 -62zM268 120q77 0 83 73h-164q6 -73 81 -73z" />
    <glyph glyph-name="uni04EA" unicode="&#x4ea;" horiz-adv-x="662" 
d="M159 897h136v-133h-136v133zM366 897h136v-133h-136v133zM119 664q76 61 212 61t213 -61q77 -62 77 -166v-286q0 -105 -77.5 -166t-211.5 -61t-213 62q-78 61 -78 165v286q0 104 78 166zM332 585q-136 0 -136 -94v-53h270v53q0 94 -134 94zM331 125q135 0 135 94v79h-270
v-79q0 -94 135 -94z" />
    <glyph glyph-name="uni04EB" unicode="&#x4eb;" horiz-adv-x="538" 
d="M97 697h136v-133h-136v133zM304 697h136v-133h-136v133zM268 525q110 0 172 -59t62 -162v-98q0 -102 -62.5 -161.5t-170.5 -59.5t-170.5 59.5t-62.5 161.5v98q0 102 62 161.5t170 59.5zM188 328h162q-11 62 -81 62t-81 -62zM268 120q77 0 83 73h-164q6 -73 81 -73z" />
    <glyph glyph-name="uni04EC" unicode="&#x4ec;" horiz-adv-x="656" 
d="M156 897h136v-133h-136v133zM363 897h136v-133h-136v133zM118 664q76 61 210 61t210 -61t76 -166v-286q0 -103 -77 -165t-210 -62q-132 0 -209 61t-77 166v64h162v-57q0 -45 32.5 -69.5t92.5 -24.5q63 0 97 25t34 69v70h-181v140h181v62q0 45 -34.5 69.5t-97.5 24.5
q-60 0 -92 -24.5t-32 -69.5v-57h-162v64q0 104 77 166z" />
    <glyph glyph-name="uni04ED" unicode="&#x4ed;" horiz-adv-x="523" 
d="M90 697h136v-133h-136v133zM297 697h136v-133h-136v133zM259 525q107 0 167.5 -59.5t60.5 -161.5v-98q0 -102 -61 -161.5t-168 -59.5q-102 0 -161 58q-61 58 -61 154v15h151v-24q0 -34 19.5 -53.5t51.5 -19.5q74 0 79 78h-106v135h105q-9 67 -78 67q-33 0 -52 -19
t-19 -54v-24h-151v15q0 96 61 154t162 58z" />
    <glyph glyph-name="uni04EE" unicode="&#x4ee;" horiz-adv-x="635" 
d="M147 898h349v-122h-349v122zM319 414l135 296h168l-336 -710h-167l115 244l-220 466h169z" />
    <glyph glyph-name="uni04EF" unicode="&#x4ef;" horiz-adv-x="548" 
d="M99 698h349v-122h-349v122zM345 202v308h150v-558q0 -89 -58.5 -143t-165.5 -54t-165 53q-57 54 -57 132h150q0 -23 19.5 -36.5t49.5 -13.5q34 0 55.5 16.5t21.5 47.5v58q-47 -27 -106 -27q-91 0 -140.5 57t-49.5 172v296h150v-299q0 -44 19.5 -67t53.5 -23q31 0 52 22
t21 59z" />
    <glyph glyph-name="uni04F0" unicode="&#x4f0;" horiz-adv-x="635" 
d="M150 897h136v-133h-136v133zM357 897h136v-133h-136v133zM319 414l135 296h168l-336 -710h-167l115 244l-220 466h169z" />
    <glyph glyph-name="uni04F1" unicode="&#x4f1;" horiz-adv-x="548" 
d="M102 697h136v-133h-136v133zM309 697h136v-133h-136v133zM345 202v308h150v-558q0 -89 -58.5 -143t-165.5 -54t-165 53q-57 54 -57 132h150q0 -23 19.5 -36.5t49.5 -13.5q34 0 55.5 16.5t21.5 47.5v58q-47 -27 -106 -27q-91 0 -140.5 57t-49.5 172v296h150v-299
q0 -44 19.5 -67t53.5 -23q31 0 52 22t21 59z" />
    <glyph glyph-name="uni04F2" unicode="&#x4f2;" horiz-adv-x="635" 
d="M243 886h139l-95 -131h-131zM594 886l-95 -131h-131l87 131h139zM319 414l135 296h168l-336 -710h-167l115 244l-220 466h169z" />
    <glyph glyph-name="uni04F3" unicode="&#x4f3;" horiz-adv-x="548" 
d="M173 689h134l-72 -134h-125zM383 689h134l-72 -134h-125zM345 202v308h150v-558q0 -89 -58.5 -143t-165.5 -54t-165 53q-57 54 -57 132h150q0 -23 19.5 -36.5t49.5 -13.5q34 0 55.5 16.5t21.5 47.5v58q-47 -27 -106 -27q-91 0 -140.5 57t-49.5 172v296h150v-299
q0 -44 19.5 -67t53.5 -23q31 0 52 22t21 59z" />
    <glyph glyph-name="uni04F4" unicode="&#x4f4;" horiz-adv-x="614" 
d="M136 897h136v-133h-136v133zM343 897h136v-133h-136v133zM409 451v259h155v-710h-155v237q-55 -26 -126 -26q-117 0 -181 58.5t-64 166.5v274h155v-259q0 -100 109 -100q107 0 107 100z" />
    <glyph glyph-name="uni04F5" unicode="&#x4f5;" horiz-adv-x="548" 
d="M102 697h136v-133h-136v133zM309 697h136v-133h-136v133zM345 347v163h150v-510h-150v156q-47 -26 -106 -26q-92 0 -141 50t-49 143v187h150v-162q0 -82 70 -82q33 0 54.5 23t21.5 58z" />
    <glyph glyph-name="uni04F6" unicode="&#x4f6;" horiz-adv-x="527" 
d="M515 710v-140h-310v-430h96v-275h-155v135h-96v710h465z" />
    <glyph glyph-name="uni04F7" unicode="&#x4f7;" horiz-adv-x="427" 
d="M406 510v-135h-203v-240h62v-270h-150v135h-62v510h353z" />
    <glyph glyph-name="uni04F8" unicode="&#x4f8;" horiz-adv-x="859" 
d="M258 897h136v-133h-136v133zM601 764h-136v133h136v-133zM205 466h145q104 0 169 -56q63 -57 63 -151v-52q0 -95 -64 -150q-64 -57 -169 -57h-299v710h155v-244zM654 0v710h155v-710h-155zM427 200v66q0 28 -18.5 44t-49.5 16h-154v-186h155q31 0 49 16t18 44z" />
    <glyph glyph-name="uni04F9" unicode="&#x4f9;" horiz-adv-x="744" 
d="M200 697h136v-133h-136v133zM407 697h136v-133h-136v133zM203 354h99q89 0 137.5 -43t48.5 -122v-24q0 -79 -48.5 -122t-137.5 -43h-249v510h150v-156zM541 0v510h150v-510h-150zM338 172v10q0 37 -45 37h-90v-84h90q45 0 45 37z" />
    <glyph glyph-name="uni04FC" unicode="&#x4fc;" horiz-adv-x="647" 
d="M428 377l162 -231q43 -61 43 -137q0 -78 -53.5 -126t-141.5 -48h-56v140h43q23 0 38 15t15 38t-16 43l-125 178l-150 -249h-170l223 387l-226 323h180l140 -199l124 199h174z" />
    <glyph glyph-name="uni04FD" unicode="&#x4fd;" horiz-adv-x="519" 
d="M512 510l-164 -241l129 -182q35 -47 35 -110q0 -64 -41 -103t-108 -39h-75v135h45q29 0 29 28q0 16 -12 32l-86 120l-94 -150h-160l169 269l-172 241h170l88 -123l82 123h165z" />
    <glyph glyph-name="uni0510" unicode="&#x510;" horiz-adv-x="628" 
d="M431 192v36h155v-29q0 -96 -74 -155t-198 -59q-126 0 -199.5 56t-73.5 151v47q0 77 58 129q-45 48 -45 115v40q0 95 71 148.5t195 53.5q117 0 187 -58q69 -59 69 -156v-32h-155v40q0 66 -102 66q-110 0 -110 -59v-42q0 -54 84 -54h113v-135h-126q-84 0 -84 -56v-54
q0 -60 118 -60q117 0 117 67z" />
    <glyph glyph-name="uni0511" unicode="&#x511;" horiz-adv-x="517" 
d="M332 150v25h149v-20q0 -81 -58.5 -125.5t-165.5 -44.5q-105 0 -163 43t-58 121v10q0 76 56 109q-46 34 -46 92v11q0 71 58 112.5t158 41.5q103 0 159.5 -43.5t56.5 -122.5v-17h-147v22q0 38 -70 38q-65 0 -65 -38v-11q0 -19 10 -26t35 -7h75v-124h-82q-27 0 -37.5 -7.5
t-10.5 -26.5v-13q0 -41 70 -41q76 0 76 42z" />
    <glyph glyph-name="uni0512" unicode="&#x512;" horiz-adv-x="681" 
d="M173 710h458v-683q0 -113 -69 -185q-71 -72 -188 -72h-57v140h66q93 0 93 117v543h-161l-33 -331q-13 -128 -63 -183.5t-152 -55.5h-52v140h20q42 0 64 28t28 89z" />
    <glyph glyph-name="uni0513" unicode="&#x513;" horiz-adv-x="581" 
d="M135 510h393v-550q0 -100 -53 -145t-132 -45h-65v135h22q48 0 63 21t15 73v376h-108l-21 -201q-10 -97 -48.5 -135.5t-124.5 -38.5h-55v135h17q33 0 48 18.5t19 65.5z" />
    <glyph glyph-name="uni051C" unicode="&#x51c;" horiz-adv-x="946" 
d="M661 170l109 541h162l-164 -710h-203l-92 410l-92 -410h-204l-163 710h163l109 -539l115 539h138z" />
    <glyph glyph-name="uni051D" unicode="&#x51d;" horiz-adv-x="701" 
d="M483 153l59 357h152l-119 -510h-153l-71 224l-71 -224h-154l-119 510h152l60 -357l73 357h117z" />
    <glyph glyph-name="uni0524" unicode="&#x524;" horiz-adv-x="719" 
d="M610 710v-570h96v-275h-155v135h-96v570h-250v-570h-155v710h560z" />
    <glyph glyph-name="uni0525" unicode="&#x525;" horiz-adv-x="598" 
d="M515 135h62v-270h-150v135h-62v375h-162v-375h-150v510h462v-375z" />
    <glyph glyph-name="uni0526" unicode="&#x526;" horiz-adv-x="669" 
d="M579 135h69v-270h-150v135h-74v240q0 100 -108 100t-108 -100v-240h-155v710h155v-257q52 27 127 27q115 0 179.5 -59t64.5 -166v-120z" />
    <glyph glyph-name="uni0527" unicode="&#x527;" horiz-adv-x="598" 
d="M515 135h62v-270h-150v135h-62v298q0 43 -22.5 67t-57.5 24q-34 0 -58 -22.5t-24 -59.5v-307h-150v770h150v-276q52 31 120 31q92 0 142 -57t50 -172v-161z" />
    <glyph glyph-name="Wgrave" unicode="&#x1e80;" horiz-adv-x="946" 
d="M436 910l115 -155h-160l-142 155h187zM661 170l109 541h162l-164 -710h-203l-92 410l-92 -410h-204l-163 710h163l109 -539l115 539h138z" />
    <glyph glyph-name="wgrave" unicode="&#x1e81;" horiz-adv-x="701" 
d="M321 734l102 -179h-142l-130 179h170zM483 153l59 357h152l-119 -510h-153l-71 224l-71 -224h-154l-119 510h152l60 -357l73 357h117z" />
    <glyph glyph-name="Wacute" unicode="&#x1e82;" horiz-adv-x="946" 
d="M510 910h187l-142 -155h-160zM661 170l109 541h162l-164 -710h-203l-92 410l-92 -410h-204l-163 710h163l109 -539l115 539h138z" />
    <glyph glyph-name="wacute" unicode="&#x1e83;" horiz-adv-x="701" 
d="M381 734h169l-130 -179h-142zM483 153l59 357h152l-119 -510h-153l-71 224l-71 -224h-154l-119 510h152l60 -357l73 357h117z" />
    <glyph glyph-name="Wdieresis" unicode="&#x1e84;" horiz-adv-x="946" 
d="M301 897h136v-133h-136v133zM508 897h136v-133h-136v133zM661 170l109 541h162l-164 -710h-203l-92 410l-92 -410h-204l-163 710h163l109 -539l115 539h138z" />
    <glyph glyph-name="wdieresis" unicode="&#x1e85;" horiz-adv-x="701" 
d="M179 697h136v-133h-136v133zM386 697h136v-133h-136v133zM483 153l59 357h152l-119 -510h-153l-71 224l-71 -224h-154l-119 510h152l60 -357l73 357h117z" />
    <glyph glyph-name="Ygrave" unicode="&#x1ef2;" horiz-adv-x="629" 
d="M278 910l115 -155h-160l-142 155h187zM448 710h167l-223 -472v-238h-155v236l-223 474h169l133 -291z" />
    <glyph glyph-name="ygrave" unicode="&#x1ef3;" horiz-adv-x="548" 
d="M244 734l102 -179h-142l-130 179h170zM345 202v308h150v-558q0 -89 -58.5 -143t-165.5 -54t-165 53q-57 54 -57 132h150q0 -23 19.5 -36.5t49.5 -13.5q34 0 55.5 16.5t21.5 47.5v58q-47 -27 -106 -27q-91 0 -140.5 57t-49.5 172v296h150v-299q0 -44 19.5 -67t53.5 -23
q31 0 52 22t21 59z" />
    <glyph glyph-name="uni2009" unicode="&#x2009;" horiz-adv-x="84" 
 />
    <glyph glyph-name="endash" unicode="&#x2013;" horiz-adv-x="424" 
d="M385 209h-346v127h346v-127z" />
    <glyph glyph-name="emdash" unicode="&#x2014;" horiz-adv-x="581" 
d="M542 209h-503v127h503v-127z" />
    <glyph glyph-name="quoteleft" unicode="&#x2018;" horiz-adv-x="238" 
d="M187 481h-146v146l66 143h64l-22 -143h38v-146z" />
    <glyph glyph-name="quoteright" unicode="&#x2019;" horiz-adv-x="238" 
d="M51 770h146v-146l-66 -143h-64l22 143h-38v146z" />
    <glyph glyph-name="quotesinglbase" unicode="&#x201a;" horiz-adv-x="253" 
d="M59 146h146v-146l-66 -143h-64l22 143h-38v146z" />
    <glyph glyph-name="quotedblleft" unicode="&#x201c;" horiz-adv-x="431" 
d="M187 481h-146v146l66 143h64l-22 -143h38v-146zM380 481h-146v146l66 143h64l-22 -143h38v-146z" />
    <glyph glyph-name="quotedblright" unicode="&#x201d;" horiz-adv-x="431" 
d="M51 770h146v-146l-66 -143h-64l22 143h-38v146zM245 770h146v-146l-66 -143h-64l22 143h-38v146z" />
    <glyph glyph-name="quotedblbase" unicode="&#x201e;" horiz-adv-x="457" 
d="M60 146h146v-146l-66 -143h-64l22 143h-38v146zM254 146h146v-146l-66 -143h-64l22 143h-38v146z" />
    <glyph glyph-name="dagger" unicode="&#x2020;" horiz-adv-x="445" 
d="M295 525h104v-130h-104v-595h-145v595h-104v130h104v185h145v-185z" />
    <glyph glyph-name="daggerdbl" unicode="&#x2021;" horiz-adv-x="445" 
d="M399 525v-130h-104v-150h104v-130h-104v-315h-145v315h-104v130h104v150h-104v130h104v185h145v-185h104z" />
    <glyph glyph-name="bullet" unicode="&#x2022;" horiz-adv-x="316" 
d="M74 387q32 33 84 33q54 0 85 -33q31 -32 31 -88t-31 -88q-31 -34 -85 -34q-53 0 -84 34q-32 34 -32 88t32 88z" />
    <glyph glyph-name="ellipsis" unicode="&#x2026;" horiz-adv-x="766" 
d="M204 0h-150v146h150v-146zM458 0h-150v146h150v-146zM711 0h-150v146h150v-146z" />
    <glyph glyph-name="perthousand" unicode="&#x2030;" horiz-adv-x="1125" 
d="M303 397q-44 -32 -113 -32t-113 32t-44 82v132q0 50 43.5 82t112.5 32q70 0 114 -32t44 -82v-132q0 -50 -44 -82zM214 0h-119l454 710h119zM150 467q18 -11 40 -11t40.5 11t15.5 27v103q0 15 -15.5 25.5t-39.5 10.5t-40 -10.5t-16 -25.5v-103q0 -16 15 -27zM684 17
q-44 -32 -113 -32t-113 32t-44 82v132q0 50 43.5 82t112.5 32q70 0 114 -32t44 -82v-132q0 -50 -44 -82zM936 -15q-70 0 -114 32t-44 82v132q0 50 44 82t113 32t113 -32t44 -82v-132q0 -50 -43.5 -82t-112.5 -32zM531 87q17 -11 39.5 -11t40.5 11t16 27v103q0 15 -15.5 25.5
t-39.5 10.5t-40 -10.5t-16 -25.5v-103q0 -16 15 -27zM936 76q24 0 39.5 11t15.5 27v103q0 15 -15 25.5t-39 10.5q-25 0 -41 -10.5t-16 -25.5v-103q0 -16 16 -27t40 -11z" />
    <glyph glyph-name="guilsinglleft" unicode="&#x2039;" horiz-adv-x="354" 
d="M59 329l231 168v-150l-129 -92l129 -94v-150l-231 168v150z" />
    <glyph glyph-name="guilsinglright" unicode="&#x203a;" horiz-adv-x="354" 
d="M64 347v150l231 -168v-150l-231 -168v150l129 94z" />
    <glyph glyph-name="fraction" unicode="&#x2044;" horiz-adv-x="172" 
d="M14 0h-99l243 710h99z" />
    <glyph glyph-name="Euro" unicode="&#x20ac;" horiz-adv-x="696" 
d="M654 498v-64h-161v57q0 45 -32 69.5t-92 24.5q-63 0 -98 -25t-35 -69v-21h207v-95h-207v-47h207v-95h-207v-14q0 -45 34.5 -69.5t97.5 -24.5q60 0 92.5 25t32.5 69v57h161v-64q0 -104 -76 -165q-77 -62 -209 -62q-133 0 -210 62q-78 61 -78 165v21h-72v95h72v47h-72v95
h72v28q0 104 77 166q76 61 210 61q132 0 209 -61t77 -166z" />
    <glyph glyph-name="uni20BD" unicode="&#x20bd;" horiz-adv-x="663" 
d="M104 710h300q104 0 169 -56q64 -57 64 -151v-32q0 -93 -63 -150q-64 -57 -169 -57h-146v-40h175v-140h-175v-84h-155v84h-90v140h90v40h-90v140h90v306zM482 464v46q0 28 -18 44t-49 16h-156v-166h155q31 0 49.5 16.5t18.5 43.5z" />
    <glyph glyph-name="uni2116" unicode="&#x2116;" horiz-adv-x="1181" 
d="M907 725q110 0 172 -59t62 -162v-98q0 -102 -62.5 -161.5t-170.5 -59.5t-170.5 59.5t-62.5 161.5v98q0 102 62 161.5t170 59.5zM194 710l244 -428v428h144v-710h-144l-244 426v-426h-144v710h144zM991 407v96q0 87 -83 87t-83 -87v-96q0 -87 82 -87q84 0 84 87zM1091 0
h-377v122h377v-122z" />
    <glyph glyph-name="trademark" unicode="&#x2122;" horiz-adv-x="646" 
d="M14 710h245v-81h-78v-240h-89v240h-78v81zM488 710h112v-321h-80v175l-48 -175h-63l-48 175v-175h-80v321h111l48 -151z" />
    <glyph glyph-name="Omega" unicode="&#x2126;" horiz-adv-x="677" 
d="M594 140h50v-140h-273v140q92 20 92 97v254q0 94 -122 94q-127 0 -127 -94v-254q0 -77 92 -97v-140h-273v140h50q-24 38 -24 87v271q0 105 75.5 166t206.5 61q129 0 203 -61t74 -166v-271q0 -49 -24 -87z" />
    <glyph glyph-name="uni2150" unicode="&#x2150;" horiz-adv-x="820" 
d="M204 433h59v-79h-207v79h60v198h-60v79h148v-277zM239 0l243 710h99l-243 -710h-99zM558 277v79h246v-79l-140 -277h-96l139 277h-149z" />
    <glyph glyph-name="uni2151" unicode="&#x2151;" horiz-adv-x="820" 
d="M204 433h59v-79h-207v79h60v198h-60v79h148v-277zM239 0l243 710h99l-243 -710h-99zM658 364q57 0 95 -31t38 -79v-147q0 -52 -37 -83.5t-95 -31.5t-95 31.5t-37 82.5h87q0 -17 12.5 -27t31.5 -10q45 0 45 37v29q-29 -15 -63 -15q-47 0 -80.5 26.5t-33.5 69.5v44
q0 45 37.5 74.5t94.5 29.5zM657 192q44 0 46 26v43q0 16 -22.5 23t-44.5 -0.5t-22 -24.5v-46q0 -9 12.5 -15t30.5 -6z" />
    <glyph glyph-name="onethird" unicode="&#x2153;" horiz-adv-x="820" 
d="M204 433h59v-79h-207v79h60v198h-60v79h148v-277zM239 0l243 710h99l-243 -710h-99zM792 257v-21q0 -31 -23 -57q22 -23 22 -56v-25q0 -48 -36.5 -77t-94.5 -29q-60 0 -97 30.5t-37 79.5v12h88v-17q0 -26 47 -26q42 0 42 23v30q0 17 -36 17h-61v77h61q37 0 37 18v25
q0 23 -42 23q-48 0 -48 -25v-20h-88v15q0 49 37 79.5t97 30.5q58 0 95 -29.5t37 -77.5z" />
    <glyph glyph-name="twothirds" unicode="&#x2154;" horiz-adv-x="820" 
d="M128 433h160v-79h-256v79q0 25 25 51t61 45q86 46 86 74v10q0 25 -38 25q-40 0 -40 -34v-15h-88v11q0 53 35.5 85.5t93.5 32.5q55 0 90 -28.5t35 -75.5v-16q0 -31 -24.5 -61t-57.5 -48q-82 -44 -82 -56zM239 0l243 710h99l-243 -710h-99zM792 257v-21q0 -31 -23 -57
q22 -23 22 -56v-25q0 -48 -36.5 -77t-94.5 -29q-60 0 -97 30.5t-37 79.5v12h88v-17q0 -26 47 -26q42 0 42 23v30q0 17 -36 17h-61v77h61q37 0 37 18v25q0 23 -42 23q-48 0 -48 -25v-20h-88v15q0 49 37 79.5t97 30.5q58 0 95 -29.5t37 -77.5z" />
    <glyph glyph-name="uni2155" unicode="&#x2155;" horiz-adv-x="820" 
d="M204 433h59v-79h-207v79h60v198h-60v79h148v-277zM239 0l243 710h99l-243 -710h-99zM630 228h54q44 0 71.5 -28.5t27.5 -74.5v-28q0 -47 -34.5 -76t-90.5 -29t-90.5 29t-34.5 76v24h88v-31q0 -21 36 -21q38 0 38 21v42q0 19 -11 19h-142v205h226v-79h-138v-49z" />
    <glyph glyph-name="uni2156" unicode="&#x2156;" horiz-adv-x="820" 
d="M128 433h160v-79h-256v79q0 25 25 51t61 45q86 46 86 74v10q0 25 -38 25q-40 0 -40 -34v-15h-88v11q0 53 35.5 85.5t93.5 32.5q55 0 90 -28.5t35 -75.5v-16q0 -31 -24.5 -61t-57.5 -48q-82 -44 -82 -56zM239 0l243 710h99l-243 -710h-99zM630 228h54q44 0 71.5 -28.5
t27.5 -74.5v-28q0 -47 -34.5 -76t-90.5 -29t-90.5 29t-34.5 76v24h88v-31q0 -21 36 -21q38 0 38 21v42q0 19 -11 19h-142v205h226v-79h-138v-49z" />
    <glyph glyph-name="uni2157" unicode="&#x2157;" horiz-adv-x="820" 
d="M295 477v-25q0 -48 -36.5 -77t-94.5 -29q-60 0 -97 30.5t-37 79.5v12h88v-17q0 -26 47 -26q42 0 42 23v30q0 17 -36 17h-61v77h61q37 0 37 18v25q0 23 -42 23q-48 0 -48 -25v-20h-88v15q0 49 37 79.5t97 30.5q58 0 95 -29.5t37 -77.5v-21q0 -31 -23 -57q22 -23 22 -56z
M239 0l243 710h99l-243 -710h-99zM630 228h54q44 0 71.5 -28.5t27.5 -74.5v-28q0 -47 -34.5 -76t-90.5 -29t-90.5 29t-34.5 76v24h88v-31q0 -21 36 -21q38 0 38 21v42q0 19 -11 19h-142v205h226v-79h-138v-49z" />
    <glyph glyph-name="uni2158" unicode="&#x2158;" horiz-adv-x="820" 
d="M285 586v-232h-88v73h-160v79l82 204h96l-81 -204h63v80h88zM239 0l243 710h99l-243 -710h-99zM630 228h54q44 0 71.5 -28.5t27.5 -74.5v-28q0 -47 -34.5 -76t-90.5 -29t-90.5 29t-34.5 76v24h88v-31q0 -21 36 -21q38 0 38 21v42q0 19 -11 19h-142v205h226v-79h-138v-49z
" />
    <glyph glyph-name="uni2159" unicode="&#x2159;" horiz-adv-x="820" 
d="M204 433h59v-79h-207v79h60v198h-60v79h148v-277zM239 0l243 710h99l-243 -710h-99zM676 232q49 0 82 -26.5t33 -69.5v-40q0 -45 -37.5 -74.5t-94.5 -29.5q-58 0 -95.5 30.5t-37.5 80.5v146q0 52 37 83.5t95 31.5t95 -31.5t37 -83.5h-87q0 18 -12 28t-33 10
q-44 0 -44 -37v-33q27 15 62 15zM703 97v42q0 9 -12.5 15t-31.5 6q-43 0 -45 -26v-38q0 -27 45 -27q19 0 31.5 7.5t12.5 20.5z" />
    <glyph glyph-name="uni215A" unicode="&#x215a;" horiz-adv-x="820" 
d="M287 479v-28q0 -47 -34.5 -76t-90.5 -29t-90.5 29t-34.5 76v24h88v-31q0 -21 36 -21q38 0 38 21v42q0 19 -11 19h-142v205h226v-79h-138v-49h54q44 0 71.5 -28.5t27.5 -74.5zM239 0l243 710h99l-243 -710h-99zM676 232q49 0 82 -26.5t33 -69.5v-40q0 -45 -37.5 -74.5
t-94.5 -29.5q-58 0 -95.5 30.5t-37.5 80.5v146q0 52 37 83.5t95 31.5t95 -31.5t37 -83.5h-87q0 18 -12 28t-33 10q-44 0 -44 -37v-33q27 15 62 15zM703 97v42q0 9 -12.5 15t-31.5 6q-43 0 -45 -26v-38q0 -27 45 -27q19 0 31.5 7.5t12.5 20.5z" />
    <glyph glyph-name="oneeighth" unicode="&#x215b;" horiz-adv-x="820" 
d="M204 433h59v-79h-207v79h60v198h-60v79h148v-277zM239 0l243 710h99l-243 -710h-99zM766 180q30 -26 30 -64v-29q0 -43 -37.5 -69t-99.5 -26q-61 0 -99 26t-38 69v29q0 38 30 64q-26 23 -26 59v26q0 44 37 71.5t96 27.5t96 -27.5t37 -71.5v-26q0 -36 -26 -59zM614 263
v-26q0 -25 45 -25t45 25v26q0 27 -45 27t-45 -27zM708 89v30q0 28 -49 28t-49 -28v-30q0 -23 49 -23t49 23z" />
    <glyph glyph-name="threeeighths" unicode="&#x215c;" horiz-adv-x="820" 
d="M295 477v-25q0 -48 -36.5 -77t-94.5 -29q-60 0 -97 30.5t-37 79.5v12h88v-17q0 -26 47 -26q42 0 42 23v30q0 17 -36 17h-61v77h61q37 0 37 18v25q0 23 -42 23q-48 0 -48 -25v-20h-88v15q0 49 37 79.5t97 30.5q58 0 95 -29.5t37 -77.5v-21q0 -31 -23 -57q22 -23 22 -56z
M239 0l243 710h99l-243 -710h-99zM766 180q30 -26 30 -64v-29q0 -43 -37.5 -69t-99.5 -26q-61 0 -99 26t-38 69v29q0 38 30 64q-26 23 -26 59v26q0 44 37 71.5t96 27.5t96 -27.5t37 -71.5v-26q0 -36 -26 -59zM614 263v-26q0 -25 45 -25t45 25v26q0 27 -45 27t-45 -27z
M708 89v30q0 28 -49 28t-49 -28v-30q0 -23 49 -23t49 23z" />
    <glyph glyph-name="fiveeighths" unicode="&#x215d;" horiz-adv-x="820" 
d="M287 479v-28q0 -47 -34.5 -76t-90.5 -29t-90.5 29t-34.5 76v24h88v-31q0 -21 36 -21q38 0 38 21v42q0 19 -11 19h-142v205h226v-79h-138v-49h54q44 0 71.5 -28.5t27.5 -74.5zM239 0l243 710h99l-243 -710h-99zM766 180q30 -26 30 -64v-29q0 -43 -37.5 -69t-99.5 -26
q-61 0 -99 26t-38 69v29q0 38 30 64q-26 23 -26 59v26q0 44 37 71.5t96 27.5t96 -27.5t37 -71.5v-26q0 -36 -26 -59zM614 263v-26q0 -25 45 -25t45 25v26q0 27 -45 27t-45 -27zM708 89v30q0 28 -49 28t-49 -28v-30q0 -23 49 -23t49 23z" />
    <glyph glyph-name="seveneighths" unicode="&#x215e;" horiz-adv-x="820" 
d="M62 710h246v-79l-140 -277h-96l139 277h-149v79zM239 0l243 710h99l-243 -710h-99zM766 180q30 -26 30 -64v-29q0 -43 -37.5 -69t-99.5 -26q-61 0 -99 26t-38 69v29q0 38 30 64q-26 23 -26 59v26q0 44 37 71.5t96 27.5t96 -27.5t37 -71.5v-26q0 -36 -26 -59zM614 263v-26
q0 -25 45 -25t45 25v26q0 27 -45 27t-45 -27zM708 89v30q0 28 -49 28t-49 -28v-30q0 -23 49 -23t49 23z" />
    <glyph glyph-name="arrowleft" unicode="&#x2190;" horiz-adv-x="767" 
d="M334 417h390v-155h-390l194 -196h-214l-268 272v3l268 272h214z" />
    <glyph glyph-name="arrowup" unicode="&#x2191;" horiz-adv-x="636" 
d="M320 720l273 -269v-213l-197 194v-432h-155v430l-196 -192v213l272 269h3z" />
    <glyph glyph-name="arrowright" unicode="&#x2192;" horiz-adv-x="767" 
d="M241 613h214l268 -272v-3l-268 -272h-214l194 196h-390v155h390z" />
    <glyph glyph-name="arrowdown" unicode="&#x2193;" horiz-adv-x="636" 
d="M396 720v-432l197 194v-213l-273 -269h-3l-272 269v213l196 -192v430h155z" />
    <glyph glyph-name="arrowboth" unicode="&#x2194;" horiz-adv-x="1224" 
d="M698 613h213l269 -272v-3l-269 -272h-213l194 196h-559l194 -196h-213l-269 272v3l269 272h213l-193 -196h557z" />
    <glyph glyph-name="arrowupdn" unicode="&#x2195;" horiz-adv-x="636" 
d="M593 633v-213l-196 194v-559l196 194v-213l-272 -269h-3l-272 269v213l196 -193v557l-196 -193v213l272 269h3z" />
    <glyph glyph-name="uni2196" unicode="&#x2196;" horiz-adv-x="667" 
d="M318 463l306 -306l-110 -110l-304 304l-2 -274l-151 151l2 382l2 2l383 3l151 -150z" />
    <glyph glyph-name="uni2197" unicode="&#x2197;" horiz-adv-x="666" 
d="M610 617l3 -383l-150 -151l-2 277l-306 -306l-110 110l304 304l-274 2l151 151l382 -2z" />
    <glyph glyph-name="uni2198" unicode="&#x2198;" horiz-adv-x="666" 
d="M461 356l2 277l150 -151l-3 -383l-2 -2l-382 -2l-151 151l274 2l-304 304l110 110z" />
    <glyph glyph-name="uni2199" unicode="&#x2199;" horiz-adv-x="667" 
d="M514 674l110 -110l-306 -306l277 -2l-151 -150l-383 3l-2 2l-2 382l151 151l2 -274z" />
    <glyph glyph-name="increment" unicode="&#x2206;" horiz-adv-x="620" 
d="M198 710h224l171 -570v-140h-566v140zM437 140l-127 409l-126 -409h253z" />
    <glyph glyph-name="product" unicode="&#x220f;" horiz-adv-x="812" 
d="M29 710h754v-140h-104v-680h-155v680h-236v-680h-155v680h-104v140z" />
    <glyph glyph-name="summation" unicode="&#x2211;" horiz-adv-x="590" 
d="M26 710h540v-140h-361l190 -224v-92l-190 -224h361v-140h-540v140l229 270l-229 270v140z" />
    <glyph glyph-name="minus" unicode="&#x2212;" horiz-adv-x="513" 
d="M471 295h-429v140h429v-140z" />
    <glyph glyph-name="uni2215" unicode="&#x2215;" horiz-adv-x="668" 
d="M130 0h-130l538 710h130z" />
    <glyph glyph-name="infinity" unicode="&#x221e;" horiz-adv-x="710" 
d="M513 523q75 0 119 -45t44 -122v-40q0 -77 -44 -122t-116 -45q-52 0 -89.5 24t-75.5 75q-38 -52 -72.5 -75.5t-84.5 -23.5q-72 0 -116 45t-44 122v40q0 77 44.5 122t117.5 45q88 0 155 -81q71 81 162 81zM217 280q27 0 66 63q-37 49 -65 49q-18 0 -28 -12.5t-10 -33.5v-20
q0 -21 10 -33.5t27 -12.5zM530 326v20q0 21 -11 33.5t-29 12.5q-29 0 -70 -47q42 -65 71 -65q18 0 28.5 13t10.5 33z" />
    <glyph glyph-name="integral" unicode="&#x222b;" horiz-adv-x="364" 
d="M328 770h74v-135h-45q-39 0 -56.5 -22.5t-21.5 -73.5l-44 -546q-8 -104 -56 -153.5t-143 -49.5h-75v135h46q38 0 56 22.5t22 73.5l44 546q8 104 55.5 153.5t143.5 49.5z" />
    <glyph glyph-name="approxequal" unicode="&#x2248;" horiz-adv-x="524" 
d="M173 556q31 0 91 -23q36 -16 54 -16q34 0 34 39h130q0 -175 -135 -175q-38 0 -95 24q-36 14 -46 14q-34 0 -34 -43h-130q0 180 131 180zM173 359q31 0 91 -23q36 -16 54 -16q34 0 34 39h130q0 -175 -135 -175q-38 0 -95 24q-36 14 -46 14q-34 0 -34 -43h-130
q0 180 131 180z" />
    <glyph glyph-name="notequal" unicode="&#x2260;" horiz-adv-x="516" 
d="M467 555v-140h-115l-32 -100h147v-140h-193l-39 -121h-146l39 121h-90v140h136l33 100h-169v140h215l39 121h145l-39 -121h69z" />
    <glyph glyph-name="lessequal" unicode="&#x2264;" horiz-adv-x="513" 
d="M290 394l170 -121l-81 -107l-332 229l332 229l82 -107zM42 0v140h429v-140h-429z" />
    <glyph glyph-name="greaterequal" unicode="&#x2265;" horiz-adv-x="513" 
d="M134 166l-81 107l170 121l-171 123l82 107l332 -229zM42 0v140h429v-140h-429z" />
    <glyph glyph-name="Earth" horiz-adv-x="618" 
d="M109 470q79 78 200 78t200 -78t79 -201t-79 -201t-200 -78t-200 78t-79 201t79 201zM309 21q105 0 173 68q67 67 69 175q0 47 -34 47q-10 0 -36 -7.5t-36 -7.5q-15 0 -60 10q-15 -4 -15 -11q0 -13 21 -14q12 -2 18.5 -4.5t13.5 -13t7 -29.5q0 -51 -31 -97
q-32 -48 -83 -49q-33 9 -52.5 38t-19.5 71q0 12 -1 19.5t-5 15.5t-13 11.5t-24 2.5q-25 -4 -43.5 15t-18.5 47q0 18 7 31q7 15 62 16q38 0 106 2q50 2 50 21q0 17 -23.5 31t-47.5 14q-25 0 -46 -22t-31 -22q-11 0 -22 6.5t-11 12.5t18 12q17 6 17 10q0 3 -10.5 10.5
t-10.5 8.5q0 2 34 9t34 27q0 5 -0.5 12t-0.5 9.5t1 6t4 6.5t9 7q-94 -10 -153 -78q-58 -67 -58 -169q0 -75 33 -133q8 11 10 11q10 0 25 -23q13 -19 22 -19q1 0 17 3t24 -1q14 -3 23.5 -17.5t9.5 -31.5q0 -13 -8 -24q36 -13 86 -13z" />
    <glyph glyph-name="Helmet" horiz-adv-x="636" 
d="M354 536q102 0 177 -72q75 -74 75 -173v-163q0 -56 -74 -97t-177 -41q-102 0 -178 41q-76 40 -76 97v32h-37v274q-15 4 -24.5 16.5t-9.5 27.5q-2 28 22 40t48 0t21 -40q0 -15 -9.5 -27.5t-24.5 -16.5v-161h14v14q0 103 75 176q74 73 178 73zM353 390q69 0 129 -20t93 -53
q-13 81 -75 135q-63 54 -146 54q-82 0 -144 -53q-63 -53 -76 -132q34 31 92.5 50t126.5 19zM60 495q-10 -10 -6 -23t15.5 -16t22.5 6q9 10 5 22.5t-15 16t-22 -5.5zM577 201v52q0 42 -66 75q-67 32 -158 32q-94 0 -158 -34q-65 -35 -65 -78v-52q0 -42 66 -75t159 -33t158 35
q64 34 64 78zM87 183h14v67h-14v-67zM577 128v3q-33 -33 -92.5 -53t-129.5 -20q-72 0 -132 20t-93 54v-4q0 -44 66 -76t159 -32q92 0 158 32q64 31 64 76z" />
    <glyph glyph-name="Iacute_J.loclNLD" horiz-adv-x="637" 
d="M165 910h187l-142 -155h-160zM547 910h187l-142 -155h-160zM205 0h-155v710h155v-710zM330 0h-57v140h66q93 0 93 117v453h155v-453q0 -113 -69 -185q-70 -72 -188 -72z" />
    <glyph glyph-name="Jupiter" horiz-adv-x="618" 
d="M109 470q79 78 200 78t200 -78t79 -201t-79 -201t-200 -78t-200 78t-79 201t79 201zM309 517q-83 0 -144 -43.5t-85 -116.5h161v-23h-167q-6 -27 -7 -51h484q-4 76 -43 135h-228v23h210q-67 76 -181 76zM309 21q86 0 148 46t84 124h-104v23h109q4 18 5 46h-484
q3 -105 71 -172q67 -67 171 -67zM186 176q19 14 48 14t48 -15q18 -15 18 -37t-18 -36q-29 -24 -74 -10.5t-41 46.5q0 23 19 38zM211 120q20 -17 43 -2q22 15 10 33q-2 3 -6 6q-22 17 -46 0q-21 -16 -5 -33q1 -2 4 -4z" />
    <glyph glyph-name="Mars" horiz-adv-x="618" 
d="M509 68q-79 -78 -200 -78t-200 78t-79 201t79 201t200 78t200 -78t79 -201t-79 -201zM135 91q67 -70 174 -70q108 0 175 70q67 68 67 178q0 109 -67 179q-68 69 -175 69t-174 -69q-68 -71 -68 -179t68 -178zM439 358q-19 -19 -47 -19t-47 19q-19 18 -19 47t19 48
q19 18 47 18t47 -18q19 -19 19 -48t-19 -47zM361 374q12 -12 31 -12t31 12t12 31t-12 31t-31 12t-31 -12t-12 -31t12 -31zM204 218q-44 0 -72.5 27t-28.5 68t28.5 67.5t72.5 26.5q45 0 74 -26.5t29 -67.5t-29 -68t-74 -27zM204 241q35 0 57.5 20.5t22.5 51.5t-22.5 51
t-57.5 20q-34 0 -56 -20t-22 -51t22 -51.5t56 -20.5zM474 101q-19 -19 -47 -19t-46 19q-19 20 -19 48.5t19 48.5q18 20 46 20t47 -20q18 -20 18 -49t-18 -48zM397 117q12 -13 30 -13t30 13t12 32t-12 32t-30 13t-30 -13t-12 -32t12 -32zM260 98q-14 -14 -34 -14t-33 14
t-13 33.5t13 32.5t33 13t34 -13t14 -32.5t-14 -33.5zM209 114q11 -11 26 -5t15 22q0 14 -12 20t-24 0t-12 -20q0 -11 7 -17z" />
    <glyph glyph-name="Mercury" horiz-adv-x="618" 
d="M109 470q79 78 200 78t200 -78t79 -201t-79 -201t-200 -78t-200 78t-79 201t79 201zM443 58q51 33 79.5 87.5t28.5 123.5q0 109 -67 179q-68 69 -175 69q-128 0 -195 -94q23 -8 23 -33q0 -16 -10 -26t-26 -10q-11 0 -20 6q-14 -45 -14 -91q0 -108 68 -178q67 -70 174 -70
q48 0 90 15q-28 7 -28 37q-2 23 17.5 32t39 0t18.5 -32q0 -9 -3 -15zM210 475q15 15 38 15t39 -15q15 -16 15 -39t-15 -38q-16 -16 -39 -16t-38 16q-16 15 -16 38t16 39zM226 414q8 -9 22 -9t23 9q8 8 8 22t-8 23q-9 8 -23 8t-22 -8q-9 -9 -9 -23t9 -22zM370 462
q16 0 27 -11t11 -27q0 -17 -11 -28.5t-27 -11.5q-24 -1 -34 19.5t0 40.5t34 18zM370 407q15 0 15 17q0 15 -15 15q-16 0 -16 -15q0 -17 16 -17zM101 402h-1q-7 -14 -9 -19q3 -6 10 -6q13 0 13 13q0 12 -13 12zM506 318q-22 -22 -50.5 -9.5t-28.5 42.5q0 20 13 32.5t33 12.5
q19 0 32 -13t13 -32t-12 -33zM495 351q0 22 -22 22t-22 -22q0 -14 11 -20t22 0t11 20zM267 272q-13 -13 -33 -13t-33 13t-13 33t13 33t33 13t33 -13t13 -33t-13 -33zM251 322q-10 10 -23 5.5t-16 -16t6 -22.5q10 -10 22.5 -6t16 15.5t-5.5 23.5zM315 256q12 13 32 13t34 -13
q13 -13 13 -33t-13 -33t-33.5 -13t-32.5 13q-13 13 -13 33t13 33zM108 246q11 11 28 11t29 -11q11 -12 11 -29t-11 -28q-12 -12 -29 -12t-28 12q-12 11 -12 28t12 29zM347 201q16 0 22.5 14t-5.5 25q-12 10 -25.5 4t-13.5 -21q0 -22 22 -22zM119 217q0 -16 17 -16t17 16
q0 17 -17 17t-17 -17zM448 224q10 10 26 10t27 -10t11 -26t-11 -27t-27 -11t-26 11t-10 27t10 26zM460 197q0 -14 14 -14t14 14t-14 14t-14 -14zM203 148q13 14 33 14t34 -14t14 -34t-14 -33t-34 -13t-33 13t-13 33t13 34zM219 97q10 -10 23.5 -5.5t16.5 16.5t-6 23
q-17 15 -33.5 -1.5t-0.5 -32.5zM408 58q15 0 15 15q0 14 -15 14q-14 0 -14 -14q0 -15 14 -15z" />
    <glyph glyph-name="Meteor" horiz-adv-x="566" 
d="M358 525l103 -210q75 -35 75 -129q0 -68 -40 -108t-108 -40q-95 0 -128 74l-212 104l16 31l184 -91q-2 18 -2 24q0 57 29 95l-245 243l24 24l245 -243q38 29 95 29q19 0 24 -1l-90 183zM387 73q53 0 83.5 30.5t30.5 83.5q0 75 -61 99l-2 -1l-1 2q-17 7 -43 7
q-41 0 -70 -20l77 -77l-23 -24l-77 77q-20 -29 -20 -70q0 -23 8 -45q24 -62 98 -62z" />
    <glyph glyph-name="Moon" horiz-adv-x="618" 
d="M109 470q79 78 200 78t200 -78t79 -201t-79 -201t-200 -78t-200 78t-79 201t79 201zM309 21q108 0 175 70q67 68 67 178q0 109 -67 179q-68 69 -175 69q-43 0 -81 -12q66 -25 108 -92t42 -144t-42 -143q-44 -68 -108 -93q38 -12 81 -12z" />
    <glyph glyph-name="Neptune" horiz-adv-x="618" 
d="M109 470q79 78 200 78t200 -78t79 -201t-79 -201t-200 -78t-200 78t-79 201t79 201zM515 406q-31 52 -84.5 81.5t-121.5 29.5q-103 0 -171 -66q18 -3 50 1q31 4 49 4q71 0 120 -69q31 -45 66 -45q43 0 92 64zM118 429q-35 -46 -47 -108q40 -15 80 -35q58 -28 95 -41
q42 -15 79 -15q52 0 131 40q80 39 92 42q-6 39 -21 72q-57 -65 -106 -65q-44 0 -83 54q-24 32 -45.5 45t-54.5 13q-10 0 -39 -3t-39 -3q-10 -1 -42 4zM551 269q0 16 -1 21q-16 -4 -54 -27q-38 -22 -83 -39t-87 -17q-69 0 -182 55q-57 28 -76 35q-1 -6 -1 -28q0 -33 6 -61
q45 -9 83 -23q44 -17 58 -28q11 -11 45 -41q34 -32 73 -32q25 -2 65 27t78.5 58t59.5 27h7q9 33 9 73zM309 21q80 0 140 41t86 111h-2q-15 2 -51.5 -27t-79.5 -58t-72 -27q-38 0 -83 34q-13 9 -29.5 25.5t-18.5 17.5q-24 22 -119 45q23 -75 84.5 -118.5t144.5 -43.5z" />
    <glyph glyph-name="Point" horiz-adv-x="459" 
d="M373 409h2q24 0 39 -16t15 -41v-162q0 -81 -59 -140q-58 -60 -141 -60t-141 60q-58 58 -58 142v175q0 27 15.5 42t40.5 15q11 0 23 -4q9 40 55 40q15 0 22 -4q8 44 55 44q14 0 22 -4v20q0 27 15.5 42t40.5 15q24 0 39 -16t15 -41v-107zM397 192v160q0 25 -22 25
q-25 0 -25 -25v-114q0 -28 -16 -47t-42 -19h-18q-27 0 -27 -35h-33q0 28 17 48t43 20h18q25 0 25 34v113q0 33 24 48h-1v116q0 24 -21 24q-24 0 -24 -24v-160q0 -27 -15 -42t-39 -15q-12 0 -25 5q-8 -44 -52 -44q-11 0 -26 5q-8 -42 -52 -42q-16 0 -24 4v-35q0 -70 49 -119
q50 -50 118 -50t118 50t50 119zM217 443v-87q0 -25 24 -25q22 0 22 25v87q0 24 -22 24q-24 0 -24 -24zM140 403v-86q0 -25 24 -25q21 0 21 25v86q0 25 -21 25q-24 0 -24 -25zM86 392q-24 0 -24 -25v-87q0 -24 24 -24q21 0 21 24v87q0 25 -21 25z" />
    <glyph glyph-name="Saturn" horiz-adv-x="876" 
d="M846 421q0 -98 -141 -215q-20 -98 -94 -157q-76 -59 -179 -59q-72 0 -127 27q-49 -10 -100 -10q-80 0 -127.5 29.5t-47.5 84.5q0 45 34 98.5t94 104.5q17 101 92 163q74 61 182 61q66 0 123 -25q62 12 115 12q80 0 128 -29.5t48 -84.5zM432 517q-101 0 -166 -61
q-67 -61 -75 -161q92 17 185 61q113 53 185 128q-59 33 -129 33zM516 112q137 67 221 154q86 88 86 154q0 46 -41.5 69.5t-109.5 23.5q-33 0 -84 -8l4 -2q6 1 27 1q67 0 105 -24.5t38 -71.5q0 -61 -74 -137q-72 -74 -188 -130q-138 -67 -258 -67q-66 0 -106 24t-40 70
q0 56 58 121v2q-102 -96 -102 -169q0 -46 40.5 -69.5t109.5 -23.5q140 0 314 83zM706 326q33 46 33 81q0 37 -32.5 56.5t-87.5 19.5h-1q72 -61 88 -157zM190 273v-4q0 -31 6 -60q103 7 227 65q133 64 204 150q-25 31 -48 47q-73 -79 -193 -136q-104 -49 -196 -62zM252 95
q111 5 238 66q115 55 184 127q-5 66 -35 117q-75 -90 -206 -151q-126 -60 -232 -66q17 -54 51 -93zM153 255q-36 -49 -36 -86q0 -61 89 -72q-48 66 -53 158zM432 21q78 0 138 39.5t87 108.5q-66 -48 -131 -78q-77 -38 -165 -61q33 -9 71 -9z" />
    <glyph glyph-name="Stop" horiz-adv-x="459" 
d="M373 408h2q24 0 39 -16t15 -41v-161q-2 -84 -59 -141q-59 -59 -141 -59t-141 59q-58 58 -58 142v286q0 27 15.5 42t40.5 15q15 0 22 -4q9 43 56 43q17 0 27 -7q14 29 50 29q35 0 49 -30q10 7 29 7q24 0 39 -16t15 -41v-107zM397 191v160q0 25 -22 25q-25 0 -25 -25v-113
q0 -28 -16 -47.5t-42 -19.5h-18q-27 0 -27 -35h-33q0 30 16.5 49t43.5 19h18q25 0 25 34v113q0 33 24 48h-1v116q0 25 -21 25q-24 0 -24 -25v-151h-32v174q0 25 -23 25t-23 -25v-196h-32v174q0 25 -23 25q-22 0 -22 -25v-35v-4v-174h-33v174q0 24 -22 24t-22 -24v-286
q0 -70 49 -119q48 -50 117 -50t118 51q50 50 50 118z" />
    <glyph glyph-name="Sun" horiz-adv-x="618" 
d="M109 470q-79 -78 -79 -201t79 -201t200 -78t200 78t79 201t-79 201t-200 78t-200 -78zM135 91q-68 70 -68 178t68 179q67 69 174 69t175 -69q67 -70 67 -179q0 -110 -67 -178q-67 -70 -175 -70q-107 0 -174 70zM310 104q-71 0 -116 47q-46 46 -46 118q0 73 46 119
q45 46 116 46q70 0 116 -46q45 -46 45 -119q0 -71 -45 -118q-47 -47 -116 -47z" />
    <glyph glyph-name="Uranus" horiz-adv-x="842" 
d="M812 390q0 -83 -118 -156q-10 -107 -88 -176q-79 -68 -189 -68q-141 0 -221 101q-6 -1 -27 -1q-139 0 -139 68q0 57 107 129q7 115 86 188q77 73 194 73q131 0 211 -90q47 2 88 1.5t68.5 -17.5t27.5 -52zM592 448q-68 69 -175 69t-175 -69q-68 -71 -68 -179
q0 -89 46 -153q107 9 227 43q124 33 211 82q1 6 1 28q0 109 -67 179zM696 269v-4q92 62 92 127q0 56 -142 43q50 -71 50 -166zM166 114h13q-39 61 -42 143q-82 -58 -82 -97q0 -46 111 -46zM417 20q91 0 155 52t81 139q-84 -44 -200 -76q-115 -32 -214 -41q68 -74 178 -74z
" />
    <glyph glyph-name="Venus" horiz-adv-x="618" 
d="M109 470q79 78 200 78t200 -78t79 -201t-79 -201t-200 -78t-200 78t-79 201t79 201zM309 21q78 0 137 38.5t86 105.5l-150 -57l-8 22l167 63q10 33 10 76q0 65 -27 121l-263 -99l-7 22l259 97q-68 107 -204 107q-77 0 -135.5 -37.5t-86.5 -103.5l244 91l8 -21l-262 -99
q-10 -39 -10 -78q0 -73 33 -133l272 102l8 -21l-267 -101q69 -95 196 -95z" />
    <glyph glyph-name="_732" horiz-adv-x="131" 
d="M176 268h-150v146h150v-146z" />
    <glyph glyph-name="_733" horiz-adv-x="101" 
d="M67 770h143l-38 -215h-134z" />
    <glyph glyph-name="acutecomb.case" horiz-adv-x="0" 
d="M-219 710h187l-142 -155h-160z" />
    <glyph glyph-name="braceleft.case" horiz-adv-x="333" 
d="M230 645v-159q0 -88 -58 -133q58 -45 58 -133v-160q0 -40 38 -40h55v-135h-61q-83 0 -132.5 50.5t-49.5 136.5v160q0 24 -12.5 38.5t-30.5 14.5h-22v136h22q18 0 30.5 14.5t12.5 38.5v159q0 86 49.5 136.5t132.5 50.5h61v-135h-55q-38 0 -38 -40z" />
    <glyph glyph-name="braceright.case" horiz-adv-x="333" 
d="M296 421h22v-136h-22q-19 0 -31 -14t-12 -39v-160q0 -86 -49.5 -136.5t-132.5 -50.5h-62v135h56q38 0 38 40v160q0 88 58 133q-58 45 -58 133v159q0 40 -38 40h-56v135h62q83 0 132.5 -50.5t49.5 -136.5v-159q0 -25 12 -39t31 -14z" />
    <glyph glyph-name="bracketleft.case" horiz-adv-x="320" 
d="M302 820v-135h-92v-665h92v-135h-242v935h242z" />
    <glyph glyph-name="bracketright.case" horiz-adv-x="320" 
d="M17 823h243v-935h-243v135h93v665h-93v135z" />
    <glyph glyph-name="brevecombcy" horiz-adv-x="0" 
d="M-88 593q-44 -43 -118 -43q-73 0 -119 43q-45 42 -45 109h93q0 -29 19 -45.5t52 -16.5t52 16.5t19 45.5h93q0 -67 -46 -109z" />
    <glyph glyph-name="eight.dnom" 
d="M270 180q30 -26 30 -64v-29q0 -43 -37.5 -69t-99.5 -26q-61 0 -99 26t-38 69v29q0 38 30 64q-26 23 -26 59v26q0 44 37 71.5t96 27.5t96 -27.5t37 -71.5v-26q0 -36 -26 -59zM118 263v-26q0 -25 45 -25t45 25v26q0 27 -45 27t-45 -27zM212 89v30q0 28 -49 28t-49 -28v-30
q0 -23 49 -23t49 23z" />
    <glyph glyph-name="eight.numr" 
d="M270 534q30 -26 30 -64v-29q0 -43 -37.5 -69t-99.5 -26q-61 0 -99 26t-38 69v29q0 38 30 64q-26 23 -26 59v26q0 44 37 71.5t96 27.5t96 -27.5t37 -71.5v-26q0 -36 -26 -59zM118 617v-26q0 -25 45 -25t45 25v26q0 27 -45 27t-45 -27zM212 443v30q0 28 -49 28t-49 -28v-30
q0 -23 49 -23t49 23z" />
    <glyph glyph-name="eight.subs" 
d="M270 100q30 -26 30 -64v-29q0 -43 -37.5 -69t-99.5 -26q-61 0 -99 26t-38 69v29q0 38 30 64q-26 23 -26 59v26q0 44 37 71.5t96 27.5t96 -27.5t37 -71.5v-26q0 -36 -26 -59zM118 183v-26q0 -25 45 -25t45 25v26q0 27 -45 27t-45 -27zM212 9v30q0 28 -49 28t-49 -28v-30
q0 -23 49 -23t49 23z" />
    <glyph glyph-name="eight.sups" 
d="M270 594q30 -26 30 -64v-29q0 -43 -37.5 -69t-99.5 -26q-61 0 -99 26t-38 69v29q0 38 30 64q-26 23 -26 59v26q0 44 37 71.5t96 27.5t96 -27.5t37 -71.5v-26q0 -36 -26 -59zM118 677v-26q0 -25 45 -25t45 25v26q0 27 -45 27t-45 -27zM212 503v30q0 28 -49 28t-49 -28v-30
q0 -23 49 -23t49 23z" />
    <glyph glyph-name="emdash.case" horiz-adv-x="581" 
d="M542 259h-503v127h503v-127z" />
    <glyph glyph-name="endash.case" horiz-adv-x="424" 
d="M385 259h-346v127h346v-127z" />
    <glyph glyph-name="eth.bold" horiz-adv-x="551" 
d="M419 795l96 -86l-73 -67q60 -94 60 -239v-184q0 -108 -62.5 -171t-170.5 -63t-170.5 59.5t-62.5 161.5v103q0 211 190 216l-51 46l66 60q-45 18 -109 18v136q130 0 218 -53zM344 501q-5 24 -12 40l-27 -25q25 -8 39 -15zM352 221v87q0 39 -22 60t-61 21t-61 -21.5
t-22 -62.5v-97q0 -88 83 -88t83 101z" />
    <glyph glyph-name="exclamdown.case" horiz-adv-x="282" 
d="M66 710h150v-146h-150v146zM219 0h-155v250l20 237h115l20 -235v-252z" />
    <glyph glyph-name="five.dnom" 
d="M134 228h54q44 0 71.5 -28.5t27.5 -74.5v-28q0 -47 -34.5 -76t-90.5 -29t-90.5 29t-34.5 76v24h88v-31q0 -21 36 -21q38 0 38 21v42q0 19 -11 19h-142v205h226v-79h-138v-49z" />
    <glyph glyph-name="five.numr" 
d="M134 582h54q44 0 71.5 -28.5t27.5 -74.5v-28q0 -47 -34.5 -76t-90.5 -29t-90.5 29t-34.5 76v24h88v-31q0 -21 36 -21q38 0 38 21v42q0 19 -11 19h-142v205h226v-79h-138v-49z" />
    <glyph glyph-name="five.subs" 
d="M134 148h54q44 0 71.5 -28.5t27.5 -74.5v-28q0 -47 -34.5 -76t-90.5 -29t-90.5 29t-34.5 76v24h88v-31q0 -21 36 -21q38 0 38 21v42q0 19 -11 19h-142v205h226v-79h-138v-49z" />
    <glyph glyph-name="five.sups" 
d="M134 642h54q44 0 71.5 -28.5t27.5 -74.5v-28q0 -47 -34.5 -76t-90.5 -29t-90.5 29t-34.5 76v24h88v-31q0 -21 36 -21q38 0 38 21v42q0 19 -11 19h-142v205h226v-79h-138v-49z" />
    <glyph glyph-name="four.dnom" 
d="M197 152v80h88v-232h-88v73h-160v79l82 204h96l-81 -204h63z" />
    <glyph glyph-name="four.numr" 
d="M197 506v80h88v-232h-88v73h-160v79l82 204h96l-81 -204h63z" />
    <glyph glyph-name="four.subs" 
d="M197 72v80h88v-232h-88v73h-160v79l82 204h96l-81 -204h63z" />
    <glyph glyph-name="four.sups" 
d="M197 566v80h88v-232h-88v73h-160v79l82 204h96l-81 -204h63z" />
    <glyph glyph-name="gravecomb.case" horiz-adv-x="0" 
d="M-187 555l-142 155h187l115 -155h-160z" />
    <glyph glyph-name="guillemotleft.case" horiz-adv-x="595" 
d="M290 91l-231 168v150l231 168v-150l-129 -92l129 -94v-150zM300 409l231 168v-150l-129 -92l129 -94v-150l-231 168v150z" />
    <glyph glyph-name="guillemotright.case" horiz-adv-x="595" 
d="M193 335l-129 92v150l231 -168v-150l-231 -168v150zM305 427v150l231 -168v-150l-231 -168v150l129 94z" />
    <glyph glyph-name="guilsinglleft.case" horiz-adv-x="354" 
d="M59 409l231 168v-150l-129 -92l129 -94v-150l-231 168v150z" />
    <glyph glyph-name="guilsinglright.case" horiz-adv-x="354" 
d="M64 427v150l231 -168v-150l-231 -168v150l129 94z" />
    <glyph glyph-name="hyphen.case" horiz-adv-x="334" 
d="M295 260h-256v130h256v-130z" />
    <glyph glyph-name="iacute_j.loclNLD" horiz-adv-x="533" 
d="M159 734h169l-130 -179h-142zM433 734h169l-130 -179h-142zM204 0h-150v510h150v-510zM293 -230h-65v135h22q48 0 63 21t15 73v511h150v-550q0 -100 -53 -145t-132 -45z" />
    <glyph glyph-name="nine.dnom" 
d="M162 364q57 0 95 -31t38 -79v-147q0 -52 -37 -83.5t-95 -31.5t-95 31.5t-37 82.5h87q0 -17 12.5 -27t31.5 -10q45 0 45 37v29q-29 -15 -63 -15q-47 0 -80.5 26.5t-33.5 69.5v44q0 45 37.5 74.5t94.5 29.5zM161 192q44 0 46 26v43q0 16 -22.5 23t-44.5 -0.5t-22 -24.5v-46
q0 -9 12.5 -15t30.5 -6z" />
    <glyph glyph-name="nine.numr" 
d="M162 718q57 0 95 -31t38 -79v-147q0 -52 -37 -83.5t-95 -31.5t-95 31.5t-37 82.5h87q0 -17 12.5 -27t31.5 -10q45 0 45 37v29q-29 -15 -63 -15q-47 0 -80.5 26.5t-33.5 69.5v44q0 45 37.5 74.5t94.5 29.5zM161 546q44 0 46 26v43q0 16 -22.5 23t-44.5 -0.5t-22 -24.5v-46
q0 -9 12.5 -15t30.5 -6z" />
    <glyph glyph-name="nine.subs" 
d="M162 284q57 0 95 -31t38 -79v-147q0 -52 -37 -83.5t-95 -31.5t-95 31.5t-37 82.5h87q0 -17 12.5 -27t31.5 -10q45 0 45 37v29q-29 -15 -63 -15q-47 0 -80.5 26.5t-33.5 69.5v44q0 45 37.5 74.5t94.5 29.5zM161 112q44 0 46 26v43q0 16 -22.5 23t-44.5 -0.5t-22 -24.5v-46
q0 -9 12.5 -15t30.5 -6z" />
    <glyph glyph-name="nine.sups" 
d="M162 778q57 0 95 -31t38 -79v-147q0 -52 -37 -83.5t-95 -31.5t-95 31.5t-37 82.5h87q0 -17 12.5 -27t31.5 -10q45 0 45 37v29q-29 -15 -63 -15q-47 0 -80.5 26.5t-33.5 69.5v44q0 45 37.5 74.5t94.5 29.5zM161 606q44 0 46 26v43q0 16 -22.5 23t-44.5 -0.5t-22 -24.5v-46
q0 -9 12.5 -15t30.5 -6z" />
    <glyph glyph-name="one.dnom" 
d="M204 356v-277h59v-79h-207v79h60v198h-60v79h148z" />
    <glyph glyph-name="one.numr" 
d="M204 710v-277h59v-79h-207v79h60v198h-60v79h148z" />
    <glyph glyph-name="one.subs" 
d="M204 276v-277h59v-79h-207v79h60v198h-60v79h148z" />
    <glyph glyph-name="one.sups" 
d="M204 770v-277h59v-79h-207v79h60v198h-60v79h148z" />
    <glyph glyph-name="parenleft.case" horiz-adv-x="320" 
d="M300 20v-135q-112 0 -176 59.5t-64 161.5v493q0 103 63.5 162t176.5 59v-135q-90 0 -90 -87v-491q0 -87 90 -87z" />
    <glyph glyph-name="parenright.case" horiz-adv-x="320" 
d="M19 -115v135q90 0 90 87v491q0 87 -90 87v135q113 0 176.5 -59t63.5 -162v-493q0 -103 -63.5 -162t-176.5 -59z" />
    <glyph glyph-name="questiondown.case" horiz-adv-x="632" 
d="M254 710h150v-146h-150v146zM254 487h150v-43q0 -45 -15 -79t-37.5 -51.5t-48.5 -33t-48.5 -25t-37.5 -26.5t-15 -39q0 -32 29 -48.5t80 -16.5q65 0 99 26t34 74v28h150v-30q0 -107 -74 -172q-75 -66 -202 -66q-130 0 -200.5 55.5t-70.5 152.5q0 43 11.5 75.5t34 53.5
t41.5 33t47 24q73 35 73 90v18z" />
    <glyph glyph-name="seven.dnom" 
d="M62 277v79h246v-79l-140 -277h-96l139 277h-149z" />
    <glyph glyph-name="seven.numr" 
d="M62 631v79h246v-79l-140 -277h-96l139 277h-149z" />
    <glyph glyph-name="seven.subs" 
d="M62 197v79h246v-79l-140 -277h-96l139 277h-149z" />
    <glyph glyph-name="seven.sups" 
d="M62 691v79h246v-79l-140 -277h-96l139 277h-149z" />
    <glyph glyph-name="six.dnom" 
d="M180 232q49 0 82 -26.5t33 -69.5v-40q0 -45 -37.5 -74.5t-94.5 -29.5q-58 0 -95.5 30.5t-37.5 80.5v146q0 52 37 83.5t95 31.5t95 -31.5t37 -83.5h-87q0 18 -12 28t-33 10q-44 0 -44 -37v-33q27 15 62 15zM207 97v42q0 9 -12.5 15t-31.5 6q-43 0 -45 -26v-38
q0 -27 45 -27q19 0 31.5 7.5t12.5 20.5z" />
    <glyph glyph-name="six.numr" 
d="M180 586q49 0 82 -26.5t33 -69.5v-40q0 -45 -37.5 -74.5t-94.5 -29.5q-58 0 -95.5 30.5t-37.5 80.5v146q0 52 37 83.5t95 31.5t95 -31.5t37 -83.5h-87q0 18 -12 28t-33 10q-44 0 -44 -37v-33q27 15 62 15zM207 451v42q0 9 -12.5 15t-31.5 6q-43 0 -45 -26v-38
q0 -27 45 -27q19 0 31.5 7.5t12.5 20.5z" />
    <glyph glyph-name="six.subs" 
d="M180 152q49 0 82 -26.5t33 -69.5v-40q0 -45 -37.5 -74.5t-94.5 -29.5q-58 0 -95.5 30.5t-37.5 80.5v146q0 52 37 83.5t95 31.5t95 -31.5t37 -83.5h-87q0 18 -12 28t-33 10q-44 0 -44 -37v-33q27 15 62 15zM207 17v42q0 9 -12.5 15t-31.5 6q-43 0 -45 -26v-38
q0 -27 45 -27q19 0 31.5 7.5t12.5 20.5z" />
    <glyph glyph-name="six.sups" 
d="M180 646q49 0 82 -26.5t33 -69.5v-40q0 -45 -37.5 -74.5t-94.5 -29.5q-58 0 -95.5 30.5t-37.5 80.5v146q0 52 37 83.5t95 31.5t95 -31.5t37 -83.5h-87q0 18 -12 28t-33 10q-44 0 -44 -37v-33q27 15 62 15zM207 511v42q0 9 -12.5 15t-31.5 6q-43 0 -45 -26v-38
q0 -27 45 -27q19 0 31.5 7.5t12.5 20.5z" />
    <glyph glyph-name="three.dnom" 
d="M296 257v-21q0 -31 -23 -57q22 -23 22 -56v-25q0 -48 -36.5 -77t-94.5 -29q-60 0 -97 30.5t-37 79.5v12h88v-17q0 -26 47 -26q42 0 42 23v30q0 17 -36 17h-61v77h61q37 0 37 18v25q0 23 -42 23q-48 0 -48 -25v-20h-88v15q0 49 37 79.5t97 30.5q58 0 95 -29.5t37 -77.5z
" />
    <glyph glyph-name="three.numr" 
d="M296 611v-21q0 -31 -23 -57q22 -23 22 -56v-25q0 -48 -36.5 -77t-94.5 -29q-60 0 -97 30.5t-37 79.5v12h88v-17q0 -26 47 -26q42 0 42 23v30q0 17 -36 17h-61v77h61q37 0 37 18v25q0 23 -42 23q-48 0 -48 -25v-20h-88v15q0 49 37 79.5t97 30.5q58 0 95 -29.5t37 -77.5z
" />
    <glyph glyph-name="three.subs" 
d="M296 177v-21q0 -31 -23 -57q22 -23 22 -56v-25q0 -48 -36.5 -77t-94.5 -29q-60 0 -97 30.5t-37 79.5v12h88v-17q0 -26 47 -26q42 0 42 23v30q0 17 -36 17h-61v77h61q37 0 37 18v25q0 23 -42 23q-48 0 -48 -25v-20h-88v15q0 49 37 79.5t97 30.5q58 0 95 -29.5t37 -77.5z
" />
    <glyph glyph-name="three.sups" 
d="M296 671v-21q0 -31 -23 -57q22 -23 22 -56v-25q0 -48 -36.5 -77t-94.5 -29q-60 0 -97 30.5t-37 79.5v12h88v-17q0 -26 47 -26q42 0 42 23v30q0 17 -36 17h-61v77h61q37 0 37 18v25q0 23 -42 23q-48 0 -48 -25v-20h-88v15q0 49 37 79.5t97 30.5q58 0 95 -29.5t37 -77.5z
" />
    <glyph glyph-name="tildecomb.case" horiz-adv-x="0" 
d="M-133 705h107q0 -80 -25.5 -115t-79.5 -35q-37 0 -78 22q-42 21 -55 21q-29 0 -29 -43h-107q0 76 23.5 113t80.5 37q34 0 77 -21t56 -21q30 0 30 42z" />
    <glyph glyph-name="two.dnom" 
d="M292 260v-16q0 -31 -24.5 -61t-57.5 -48q-82 -44 -82 -56h160v-79h-256v79q0 25 25 51t61 45q86 46 86 74v10q0 25 -38 25q-40 0 -40 -34v-15h-88v11q0 53 35.5 85.5t93.5 32.5q55 0 90 -28.5t35 -75.5z" />
    <glyph glyph-name="two.numr" 
d="M292 614v-16q0 -31 -24.5 -61t-57.5 -48q-82 -44 -82 -56h160v-79h-256v79q0 25 25 51t61 45q86 46 86 74v10q0 25 -38 25q-40 0 -40 -34v-15h-88v11q0 53 35.5 85.5t93.5 32.5q55 0 90 -28.5t35 -75.5z" />
    <glyph glyph-name="two.subs" 
d="M292 180v-16q0 -31 -24.5 -61t-57.5 -48q-82 -44 -82 -56h160v-79h-256v79q0 25 25 51t61 45q86 46 86 74v10q0 25 -38 25q-40 0 -40 -34v-15h-88v11q0 53 35.5 85.5t93.5 32.5q55 0 90 -28.5t35 -75.5z" />
    <glyph glyph-name="two.sups" 
d="M292 674v-16q0 -31 -24.5 -61t-57.5 -48q-82 -44 -82 -56h160v-79h-256v79q0 25 25 51t61 45q86 46 86 74v10q0 25 -38 25q-40 0 -40 -34v-15h-88v11q0 53 35.5 85.5t93.5 32.5q55 0 90 -28.5t35 -75.5z" />
    <glyph glyph-name="uni00AD.case" horiz-adv-x="334" 
d="M295 260h-256v130h256v-130z" />
    <glyph glyph-name="uni0302.case" horiz-adv-x="0" 
d="M-160 683l141 -127h-169l-47 43l-46 -43h-169l141 127h149z" />
    <glyph glyph-name="uni0304.case" horiz-adv-x="0" 
d="M-379 698h349v-122h-349v122z" />
    <glyph glyph-name="uni0306.case" horiz-adv-x="0" 
d="M-87 593q-44 -43 -118 -43q-73 0 -119 43q-45 42 -45 109h93q0 -29 19 -45.5t52 -16.5t52 16.5t19 45.5h93q0 -67 -46 -109z" />
    <glyph glyph-name="uni0307.case" horiz-adv-x="0" 
d="M-38 564h-150v146h150v-146z" />
    <glyph glyph-name="uni0308.case" horiz-adv-x="0" 
d="M-237 564h-136v133h136v-133zM-30 564h-136v133h136v-133z" />
    <glyph glyph-name="uni030A.case" horiz-adv-x="0" 
d="M-266 767q38 35 96 35t96 -35t38 -91t-38 -91t-96 -35t-96 35q-37 34 -37 91q0 55 37 91zM-139 702q-19 16 -47.5 7t-25.5 -33q0 -16 11.5 -26t30.5 -10q29 0 40 23t-9 39z" />
    <glyph glyph-name="uni030B.case" horiz-adv-x="0" 
d="M-428 686h139l-95 -131h-131zM-216 686h139l-95 -131h-131z" />
    <glyph glyph-name="uni030C.calt" horiz-adv-x="0" 
d="M-247 725h143l-38 -215h-134z" />
    <glyph glyph-name="uni030C.case" horiz-adv-x="0" 
d="M-248 639l46 43h169l-141 -127h-149l-141 127h169z" />
    <glyph glyph-name="uni0327.case" horiz-adv-x="0" 
d="M-95 -161h-162l74 191h125z" />
    <glyph glyph-name="uni0328.case" horiz-adv-x="0" 
d="M-12 -122v-99q-32 -7 -67 -7q-80 0 -115.5 24.5t-35.5 86.5q0 44 36.5 85.5t107.5 71.5l79 -40q-32 -17 -50 -40t-18 -45q0 -38 41 -38q17 0 22 1z" />
    <glyph glyph-name="uni0338.case" horiz-adv-x="0" 
d="M-560 -25l401 811l122 -64l-401 -812z" />
    <glyph glyph-name="uni0414.loclBGR" horiz-adv-x="755" 
d="M488 710l159 -570h95v-275h-155v135h-419v-135h-155v275h95l159 570h221zM378 526l-106 -386h212z" />
    <glyph glyph-name="uni041B.loclBGR" horiz-adv-x="645" 
d="M433 710l198 -710h-164l-144 526l-144 -526h-165l198 710h221z" />
    <glyph glyph-name="uni0424.loclBGR" horiz-adv-x="886" 
d="M521 645h106q104 0 169 -56q64 -57 64 -151v-143q0 -95 -63 -150q-65 -57 -169 -57h-107v-88h-155v88h-108q-105 0 -168 57q-63 55 -63 150v143q0 94 64 151q64 56 168 56h107v65h155v-65zM249 228h117v277h-118q-31 0 -48.5 -16t-17.5 -44v-157q0 -28 18 -44t49 -16z
M705 288v157q0 28 -18 44t-49 16h-117v-277h116q31 0 49.5 16t18.5 44z" />
    <glyph glyph-name="uni0431.loclMKD" horiz-adv-x="538" 
d="M274 525q109 0 168.5 -57t59.5 -164v-98q0 -102 -62.5 -161.5t-170.5 -59.5t-170.5 59.5t-62.5 161.5v98q0 100 56 156q-38 50 -38 126q0 86 51 135t139 49h208v-135h-191q-57 0 -57 -56q0 -31 17.5 -42.5t52.5 -11.5zM352 207v96q0 87 -83 87t-83 -87v-96q0 -87 82 -87
q84 0 84 87z" />
    <glyph glyph-name="uni0431.loclSRB" horiz-adv-x="538" 
d="M274 525q109 0 168.5 -57t59.5 -164v-98q0 -102 -62.5 -161.5t-170.5 -59.5t-170.5 59.5t-62.5 161.5v98q0 100 56 156q-38 50 -38 126q0 86 51 135t139 49h208v-135h-191q-57 0 -57 -56q0 -31 17.5 -42.5t52.5 -11.5zM352 207v96q0 87 -83 87t-83 -87v-96q0 -87 82 -87
q84 0 84 87z" />
    <glyph glyph-name="uni0432.loclBGR" horiz-adv-x="538" 
d="M423 461q79 -55 79 -188v-67q0 -103 -62 -162t-171 -59t-171 59t-62 162v368q0 99 57.5 155t158.5 56q99 0 155.5 -53t56.5 -146v-5q0 -73 -41 -120zM252 647q-66 0 -66 -76v-77h53q36 0 55.5 17.5t19.5 49.5v22q0 64 -62 64zM352 207v65q0 87 -83 87h-83v-152
q0 -87 82 -87q84 0 84 87z" />
    <glyph glyph-name="uni0433.loclBGR" horiz-adv-x="474" 
d="M235 -15q-100 0 -157.5 45.5t-57.5 125.5q0 39 15.5 69t43.5 47.5t54.5 27t60.5 16.5q94 20 94 46q0 15 -16.5 25t-41.5 10t-39.5 -11t-14.5 -29v-10h-148v10q0 74 56 121t145 47q97 0 152 -46.5t55 -126.5q0 -41 -15 -69.5t-49 -46t-54.5 -24.5t-63.5 -17q-2 -1 -3 -1
t-3 -0.5t-3.5 -1l-3 -1t-3.5 -0.5q-70 -14 -70 -44q0 -16 16.5 -25t44.5 -9q31 0 51 12.5t20 32.5v12h149v-12q0 -76 -59 -124q-59 -49 -155 -49z" />
    <glyph glyph-name="uni0434.loclBGR" horiz-adv-x="557" 
d="M382 476l24 34h99v-558q0 -91 -61.5 -144t-166.5 -53q-103 0 -164 50t-61 135h150q0 -23 19.5 -36.5t52.5 -13.5q37 0 59 17t22 47v60q-50 -29 -120 -29q-199 0 -199 216v108q0 216 199 216q92 0 147 -49zM208 143q22 -22 61 -22t63 21q23 21 23 60v106q0 38 -23 59.5
t-63 21.5q-39 0 -61 -21.5t-22 -62.5v-100q0 -41 22 -62z" />
    <glyph glyph-name="uni0436.loclBGR" horiz-adv-x="849" 
d="M656 269l191 -269h-177l-171 239v-239h-150v239l-170 -239h-177l191 269l-187 241h180l163 -211v471h150v-472l164 212h180z" />
    <glyph glyph-name="uni0437.loclBGR" horiz-adv-x="520" 
d="M416 161q68 -47 68 -142v-47q0 -98 -61 -158q-62 -59 -163 -59t-162 58q-62 59 -62 154v35h151v-39q0 -35 19.5 -54t53.5 -19q74 0 74 82v38q0 71 -68 71h-79v135h69q64 0 64 68v41q0 30 -17 47.5t-47 17.5t-47 -17.5t-17 -49.5v-28h-150v32q0 90 59 144t156 54
q98 0 155.5 -55t57.5 -147v-40q0 -73 -54 -122z" />
    <glyph glyph-name="uni0438.loclBGR" horiz-adv-x="547" 
d="M344 202v308h150v-510h-95l-26 34q-52 -49 -135 -49q-91 0 -140.5 57t-49.5 172v296h150v-299q0 -44 19.5 -67t53.5 -23q31 0 52 22t21 59z" />
    <glyph glyph-name="uni0439.loclBGR" horiz-adv-x="547" 
d="M393 593q-46 -43 -119 -43q-74 0 -118 43q-46 42 -46 109h93q0 -29 19 -45.5t52 -16.5t52 16.5t19 45.5h93q0 -67 -45 -109zM344 202v308h150v-510h-95l-26 34q-52 -49 -135 -49q-91 0 -140.5 57t-49.5 172v296h150v-299q0 -44 19.5 -67t53.5 -23q31 0 52 22t21 59z" />
    <glyph glyph-name="uni043A.loclBGR" horiz-adv-x="552" 
d="M360 269l191 -269h-178l-170 239v-239h-150v770h150v-471l163 211h181z" />
    <glyph glyph-name="uni043B.loclBGR" horiz-adv-x="495" 
d="M346 510l142 -510h-155l-81 351l-90 -351h-155l142 510h197z" />
    <glyph glyph-name="uni043F.loclBGR" horiz-adv-x="562" 
d="M322 525q93 0 143 -57t50 -172v-296h-150v299q0 42 -22.5 66t-57.5 24q-34 0 -58 -22t-24 -59v-308h-150v510h96l27 -36q57 51 146 51z" />
    <glyph glyph-name="uni0442.loclBGR" horiz-adv-x="814" 
d="M579 525q187 0 187 -229v-296h-150v305q2 53 -31.5 74t-67.5 0t-33 -71v-5v-303h-150v305q0 39 -18.5 61.5t-46.5 22.5t-47 -22t-19 -59v-308h-150v510h96l25 -33q51 48 123 48q99 0 145 -61q55 61 137 61z" />
    <glyph glyph-name="uni0444.loclBGR" horiz-adv-x="817" 
d="M483 510h85q102 0 157.5 -55.5t55.5 -160.5v-78q0 -105 -55.5 -160.5t-157.5 -55.5h-85v-230h-150v230h-84q-102 0 -157.5 55.5t-55.5 160.5v78q0 105 55.5 160.5t157.5 55.5h84v200h150v-200zM269 136h64v238h-64q-40 0 -61.5 -22t-21.5 -62v-70q0 -40 21.5 -62
t61.5 -22zM631 220v70q0 40 -22 62t-62 22h-64v-238h64q40 0 62 22t22 62z" />
    <glyph glyph-name="uni0446.loclBGR" horiz-adv-x="578" 
d="M494 510v-375h64v-270h-150v135h-9l-26 34q-52 -49 -135 -49q-91 0 -140.5 57t-49.5 172v296h150v-299q0 -44 19.5 -67t53.5 -23q31 0 52 22t21 59v308h150z" />
    <glyph glyph-name="uni0448.loclBGR" horiz-adv-x="814" 
d="M611 202v308h150v-510h-96l-25 33q-51 -48 -123 -48q-98 0 -146 61q-54 -61 -136 -61q-187 0 -187 229v296h150v-305q0 -39 18.5 -61.5t46.5 -22.5t47 22t19 59v5v303h150v-305q-2 -53 31.5 -74t67.5 0t33 71z" />
    <glyph glyph-name="uni0449.loclBGR" horiz-adv-x="845" 
d="M761 510v-375h63v-270h-150v135h-9l-25 33q-51 -48 -123 -48q-98 0 -146 61q-54 -61 -136 -61q-187 0 -187 229v296h150v-305q0 -39 18.5 -61.5t46.5 -22.5t47 22t19 59v5v303h150v-305q-2 -53 31.5 -74t67.5 0t33 71v308h150z" />
    <glyph glyph-name="uni044A.loclBGR" horiz-adv-x="552" 
d="M312 354h37q85 0 131.5 -43t46.5 -122v-24q0 -79 -49 -122t-138 -43h-62q-90 0 -138 42.5t-48 122.5v210h-82v135h232v-166q27 10 70 10zM377 172v10q0 37 -43 37h-49q-24 0 -43 -10v-37q0 -37 43 -37h50q42 0 42 37z" />
    <glyph glyph-name="uni044B.loclBGR" horiz-adv-x="739" 
d="M273 354h37q85 0 131.5 -43t46.5 -122v-24q0 -79 -49 -122t-139 -43h-61q-90 0 -138 42.5t-48 122.5v345h150v-166q27 10 70 10zM535 0v510h150v-510h-150zM338 172v10q0 37 -43 37h-50q-23 0 -42 -10v-37q0 -37 43 -37h49q43 0 43 37z" />
    <glyph glyph-name="uni044C.loclBGR" horiz-adv-x="513" 
d="M273 354h37q85 0 131.5 -43t46.5 -122v-24q0 -79 -49 -122t-139 -43h-61q-90 0 -138 42.5t-48 122.5v345h150v-166q27 10 70 10zM338 172v10q0 37 -43 37h-50q-23 0 -42 -10v-37q0 -37 43 -37h49q43 0 43 37z" />
    <glyph glyph-name="uni045D.loclBGR" horiz-adv-x="547" 
d="M244 734l102 -179h-142l-130 179h170zM344 202v308h150v-510h-95l-26 34q-52 -49 -135 -49q-91 0 -140.5 57t-49.5 172v296h150v-299q0 -44 19.5 -67t53.5 -23q31 0 52 22t21 59z" />
    <glyph glyph-name="uni048B.loclBGR" horiz-adv-x="578" 
d="M488 135h70l-34 -270h-150l17 137l-24 32q-52 -49 -135 -49q-91 0 -140.5 57t-49.5 172v296h150v-299q0 -44 19.5 -67t53.5 -23q31 0 52 22t21 59v308h150v-375z" />
    <glyph glyph-name="uni0492.loclBSH" horiz-adv-x="527" 
d="M515 710v-140h-310v-156h207v-140h-207v-274h-155v710h465z" />
    <glyph glyph-name="uni0493.loclBSH" horiz-adv-x="427" 
d="M406 510v-135h-203v-88h139v-122h-139v-165h-150v510h353z" />
    <glyph glyph-name="uni04AA.loclCHU" horiz-adv-x="656" 
d="M614 498v-64h-161v57q0 45 -32 69.5t-92 24.5q-63 0 -98 -25t-35 -69v-272q0 -45 34.5 -69.5t97.5 -24.5q60 0 92.5 25t32.5 69v57h161v-64q0 -93 -61.5 -152.5t-170.5 -71.5l-29 -149h-162l59 152q-99 17 -154 75.5t-55 145.5v286q0 104 77 166q76 61 210 61
q132 0 209 -61t77 -166z" />
    <glyph glyph-name="uni04AB.loclCHU" horiz-adv-x="523" 
d="M487 313v-15h-151v19q0 34 -19.5 53.5t-51.5 19.5q-79 0 -79 -87v-96q0 -87 79 -87q32 0 51.5 19.5t19.5 53.5v19h151v-15q0 -83 -46 -138.5t-125 -69.5l-29 -150h-162l61 156q-71 20 -110.5 75t-39.5 136v98q0 102 61 161.5t167 59.5q101 0 162 -58t61 -154z" />
    <glyph glyph-name="uni04C5.loclBGR" horiz-adv-x="694" 
d="M433 710l159 -570h89l-35 -275h-155l17 135h-41l-144 526l-144 -526h-165l198 710h221z" />
    <glyph glyph-name="uni04C6.loclBGR" horiz-adv-x="583" 
d="M449 135h113l-34 -270h-150l17 135h-63l-81 351l-90 -351h-155l142 510h197z" />
    <glyph glyph-name="uni04E2.loclBGR" horiz-adv-x="650" 
d="M150 898h349v-122h-349v122zM194 264l262 446h144v-710h-144v447l-262 -447h-144v710h144v-446z" />
    <glyph glyph-name="uni04E4.loclBGR" horiz-adv-x="650" 
d="M153 897h136v-133h-136v133zM360 897h136v-133h-136v133zM194 264l262 446h144v-710h-144v447l-262 -447h-144v710h144v-446z" />
    <glyph glyph-name="zero.dnom" 
d="M264 24q-40 -32 -101 -32q-62 0 -100 32q-39 32 -39 82v144q0 51 38.5 82.5t100.5 31.5t100.5 -31.5t38.5 -82.5v-144q0 -50 -38 -82zM126 82q22 -18 57 -8.5t31 35.5v138q0 37 -51 37t-51 -37v-138q0 -16 14 -27z" />
    <glyph glyph-name="zero.numr" 
d="M264 378q-40 -32 -101 -32q-62 0 -100 32q-39 32 -39 82v144q0 51 38.5 82.5t100.5 31.5t100.5 -31.5t38.5 -82.5v-144q0 -50 -38 -82zM126 436q22 -18 57 -8.5t31 35.5v138q0 37 -51 37t-51 -37v-138q0 -16 14 -27z" />
    <glyph glyph-name="zero.subs" 
d="M264 -57q-38 -31 -101 -31t-100 31q-39 32 -39 83v144q0 51 38.5 82.5t100.5 31.5t100.5 -31.5t38.5 -82.5v-144q0 -51 -38 -83zM126 2q22 -18 57 -8.5t31 35.5v138q0 37 -51 37t-51 -37v-138q0 -16 14 -27z" />
    <glyph glyph-name="zero.sups" 
d="M264 438q-40 -32 -101 -32q-62 0 -100 32q-39 32 -39 82v144q0 51 38.5 82.5t100.5 31.5t100.5 -31.5t38.5 -82.5v-144q0 -50 -38 -82zM126 496q22 -18 57 -8.5t31 35.5v138q0 37 -51 37t-51 -37v-138q0 -16 14 -27z" />
    </font>
</defs>
</svg>
